<svg xmlns="http://www.w3.org/2000/svg" width="64" height="64" viewBox="0 0 64 64">
  <defs>
    <linearGradient id="icon11-a" x1="50%" x2="50%" y1="2.96%" y2="98.382%">
      <stop offset="0%" stop-color="#A38ECA"/>
      <stop offset="100%" stop-color="#5E7B99"/>
    </linearGradient>
  </defs>
  <g fill="none" fill-rule="evenodd">
    <path fill="url(#icon11-a)" d="M33.6,36.4228732 L33.6,56 C33.6,60.418278 30.018278,64 25.6,64 C21.181722,64 17.6,60.418278 17.6,56 C17.6,55.1163444 18.3163444,54.4 19.2,54.4 C20.0836556,54.4 20.8,55.1163444 20.8,56 C20.8,58.6509668 22.9490332,60.8 25.6,60.8 C28.2509668,60.8 30.4,58.6509668 30.4,56 L30.4,36.4228732 C28.5754688,34.9513223 26.2547223,34.0703234 23.7282076,34.0703234 C20.3872706,34.0703234 17.4061422,35.6108466 15.4564151,38.0203001 C13.5066881,35.6108466 10.5255596,34.0703234 7.18462269,34.0703234 C4.41490805,34.0703234 1.89248246,35.1290937 0,36.8639802 C4.28542938,22.8707784 16.4042937,12.8 32,12.8 C47.5957063,12.8 59.7145706,22.8707784 64,36.8639802 C62.1075175,35.1290937 59.585092,34.0703234 56.8153773,34.0703234 C53.4744404,34.0703234 50.4933119,35.6108466 48.5435849,38.0203001 C46.5938578,35.6108466 43.6127294,34.0703234 40.2717924,34.0703234 C37.7452777,34.0703234 35.4245312,34.9513223 33.6,36.4228732 Z"/>
    <path fill="#B6B3BB" d="M18.6559796.414067786C19.4212478.855895586 19.683448 1.83444023 19.2416202 2.59970843L16.7009424 7.00029157C16.2591146 7.76555977 15.2805699 8.02776001 14.5153017 7.58593221 13.7500335 7.14410441 13.4878333 6.16555977 13.9296611 5.40029157L16.4703389.999708432C16.9121667.234440234 17.8907114-.027760014 18.6559796.414067786zM34.6559796.414067786C35.4212478.855895586 35.683448 1.83444023 35.2416202 2.59970843L32.7009424 7.00029157C32.2591146 7.76555977 31.2805699 8.02776001 30.5153017 7.58593221 29.7500335 7.14410441 29.4878333 6.16555977 29.9296611 5.40029157L32.4703389.999708432C32.9121667.234440234 33.8907114-.027760014 34.6559796.414067786zM50.6559796.414067786C51.4212478.855895586 51.683448 1.83444023 51.2416202 2.59970843L48.7009424 7.00029157C48.2591146 7.76555977 47.2805699 8.02776001 46.5153017 7.58593221 45.7500335 7.14410441 45.4878333 6.16555977 45.9296611 5.40029157L48.4703389.999708432C48.9121667.234440234 49.8907114-.027760014 50.6559796.414067786z"/>
  </g>
</svg>
