<svg xmlns="http://www.w3.org/2000/svg" width="64" height="64" viewBox="0 0 64 64">
  <defs>
    <linearGradient id="icon9-a" x1="50%" x2="50%" y1="0%" y2="100%">
      <stop offset="0%" stop-color="#FFC31F"/>
      <stop offset="100%" stop-color="#FFB500"/>
    </linearGradient>
    <linearGradient id="icon9-b" x1="50%" x2="50%" y1="0%" y2="100%">
      <stop offset="0%" stop-color="#FFC31F"/>
      <stop offset="100%" stop-color="#FFB500"/>
    </linearGradient>
    <linearGradient id="icon9-c" x1="50%" x2="50%" y1="0%" y2="100%">
      <stop offset="0%" stop-color="#FFC31F"/>
      <stop offset="100%" stop-color="#FFB500"/>
    </linearGradient>
    <linearGradient id="icon9-d" x1="50%" x2="50%" y1="0%" y2="100%">
      <stop offset="0%" stop-color="#FFC31F"/>
      <stop offset="100%" stop-color="#FFB500"/>
    </linearGradient>
  </defs>
  <g fill="none" fill-rule="evenodd">
    <ellipse cx="32" cy="32.5" fill="url(#icon9-a)" rx="20.211" ry="20.129"/>
    <path fill="url(#icon9-b)" d="M32,0 C33.1782075,-2.15560486e-16 34.1333333,0.951274553 34.1333333,2.12473118 L34.1333333,6.26236559 C34.1333333,7.43582222 33.1782075,8.38709677 32,8.38709677 C30.8217925,8.38709677 29.8666667,7.43582222 29.8666667,6.26236559 L29.8666667,2.12473118 C29.8666667,0.951274553 30.8217925,2.15560486e-16 32,0 Z"/>
    <path fill="url(#icon9-c)" d="M51.4031005,6.20694768 C52.3562904,6.89668818 52.5675946,8.22543062 51.8750616,9.17477697 L49.4331748,12.5221935 C48.7406418,13.4715399 47.4065199,13.681992 46.45333,12.9922515 C45.5001401,12.302511 45.288836,10.9737686 45.9813689,10.0244222 L48.4232557,6.67700566 C49.1157887,5.72765931 50.4499107,5.51720718 51.4031005,6.20694768 Z"/>
    <path fill="url(#icon9-d)" d="M63.3948762 22.4569477C63.7589623 23.5729713 63.1457337 24.7716471 62.0251918 25.1342652L58.074136 26.4128645C56.9535941 26.7754826 55.7500653 26.1647267 55.3859792 25.0487031 55.021893 23.9326795 55.6351216 22.7340037 56.7556635 22.3713856L60.7067193 21.0927863C61.8272612 20.7301682 63.03079 21.3409241 63.3948762 22.4569477zM63.3948762 42.5430523C63.03079 43.6590759 61.8272612 44.2698318 60.7067193 43.9072137L56.7556635 42.6286144C55.6351216 42.2659963 55.021893 41.0673205 55.3859792 39.9512969 55.7500653 38.8352733 56.9535941 38.2245174 58.074136 38.5871355L62.0251918 39.8657348C63.1457337 40.2283529 63.7589623 41.4270287 63.3948762 42.5430523z"/>
    <path fill="url(#icon9-c)" d="M51.4031005,58.7930523 C50.4499107,59.4827928 49.1157887,59.2723407 48.4232557,58.3229943 L45.9813689,54.9755778 C45.288836,54.0262314 45.5001401,52.697489 46.45333,52.0077485 C47.4065199,51.318008 48.7406418,51.5284601 49.4331748,52.4778065 L51.8750616,55.825223 C52.5675946,56.7745694 52.3562904,58.1033118 51.4031005,58.7930523 Z"/>
    <path fill="url(#icon9-b)" d="M32,65 C30.8217925,65 29.8666667,64.0487254 29.8666667,62.8752688 L29.8666667,58.7376344 C29.8666667,57.5641778 30.8217925,56.6129032 32,56.6129032 C33.1782075,56.6129032 34.1333333,57.5641778 34.1333333,58.7376344 L34.1333333,62.8752688 C34.1333333,64.0487254 33.1782075,65 32,65 Z"/>
    <path fill="url(#icon9-c)" d="M12.5968995,58.7930523 C11.6437096,58.1033118 11.4324054,56.7745694 12.1249384,55.825223 L14.5668252,52.4778065 C15.2593582,51.5284601 16.5934801,51.318008 17.54667,52.0077485 C18.4998599,52.697489 18.711164,54.0262314 18.0186311,54.9755778 L15.5767443,58.3229943 C14.8842113,59.2723407 13.5500893,59.4827928 12.5968995,58.7930523 Z"/>
    <path fill="url(#icon9-d)" d="M.605123841 42.5430523C.241037711 41.4270287.854266266 40.2283529 1.97480815 39.8657348L5.925864 38.5871355C7.04640589 38.2245174 8.24993469 38.8352733 8.61402082 39.9512969 8.97810695 41.0673205 8.3648784 42.2659963 7.24433651 42.6286144L3.29328066 43.9072137C2.17273878 44.2698318.969209971 43.6590759.605123841 42.5430523zM.605123841 22.4569477C.969209971 21.3409241 2.17273878 20.7301682 3.29328066 21.0927863L7.24433651 22.3713856C8.3648784 22.7340037 8.97810695 23.9326795 8.61402082 25.0487031 8.24993469 26.1647267 7.04640589 26.7754826 5.925864 26.4128645L1.97480815 25.1342652C.854266266 24.7716471.241037711 23.5729713.605123841 22.4569477z"/>
    <path fill="url(#icon9-c)" d="M12.5968995,6.20694768 C13.5500893,5.51720718 14.8842113,5.72765931 15.5767443,6.67700566 L18.0186311,10.0244222 C18.711164,10.9737686 18.4998599,12.302511 17.54667,12.9922515 C16.5934801,13.681992 15.2593582,13.4715399 14.5668252,12.5221935 L12.1249384,9.17477697 C11.4324054,8.22543062 11.6437096,6.89668818 12.5968995,6.20694768 Z"/>
  </g>
</svg>
