<svg xmlns="http://www.w3.org/2000/svg" width="64" height="64" viewBox="0 0 64 64">
  <defs>
    <linearGradient id="icon4-a" x1="50%" x2="50%" y1="0%" y2="98.382%">
      <stop offset="0%" stop-color="#689CFF"/>
      <stop offset="100%" stop-color="#37A7F4"/>
    </linearGradient>
  </defs>
  <g fill="none" fill-rule="evenodd" transform="translate(0 1)">
    <path fill="url(#icon4-a)" d="M58.2428951,19.9492318 C60.0173066,20.9164716 61.4558246,22.3137721 62.4511184,24.0369558 C63.4477814,25.7625099 64,27.8148445 64,30.0893513 C64,32.3638581 63.4477814,34.4161926 62.4511184,36.1417468 C61.4544554,37.867301 60.013348,39.2660748 58.2355702,40.2334601 C56.4577924,41.2008454 54.3433443,41.7368421 52,41.7368421 L12,41.7368421 C9.6566557,41.7368421 7.5422076,41.2008454 5.76442982,40.2334601 C3.98665204,39.2660748 2.54554459,37.867301 1.54888158,36.1417468 C0.552218566,34.4161926 0,32.3638581 0,30.0893513 C0,27.8148445 0.552218566,25.7625099 1.54888158,24.0369558 C2.54554459,22.3114016 3.98665204,20.9126277 5.76442982,19.9452425 C6.32514868,19.6401249 6.91935948,19.3779219 7.54368064,19.1619156 C7.46099103,18.6099559 7.41818182,18.0454485 7.41818182,17.4712362 C7.41818182,11.0385047 12.7907648,5.82374541 19.4181818,5.82374541 C22.862369,5.82374541 25.9676564,7.23212315 28.1560983,9.48791032 C30.584323,3.91242356 36.2714358,0 42.9,0 C51.736556,0 58.9,6.95301236 58.9,15.5299878 C58.9,17.0652928 58.6704682,18.5485627 58.2428951,19.9492318 L58.2428951,19.9492318 Z"/>
    <ellipse cx="12.8" cy="56.184" fill="#B6B3BB" rx="3.2" ry="3.211"/>
    <ellipse cx="32" cy="49.763" fill="#B6B3BB" rx="3.2" ry="3.211"/>
    <ellipse cx="20.8" cy="48.158" fill="#B6B3BB" rx="1.6" ry="1.605"/>
    <ellipse cx="51.2" cy="51.368" fill="#B6B3BB" rx="3.2" ry="3.211"/>
    <ellipse cx="40" cy="59.395" fill="#B6B3BB" rx="1.6" ry="1.605"/>
  </g>
</svg>
