<svg xmlns="http://www.w3.org/2000/svg" width="64" height="64" viewBox="0 0 64 64">
  <g fill="#31293E" fill-rule="evenodd" transform="translate(0 7)">
    <path d="M9.98034055,26.3480961 C12.2336845,28.5198152 15.3232236,29.859375 18.7317073,29.859375 C25.6285315,29.859375 31.2195122,24.3748632 31.2195122,17.609375 C31.2195122,16.5325198 31.0778662,15.4881178 30.811854,14.4931197 C33.6518587,10.8122434 38.2391003,8.421875 43.4146341,8.421875 C52.0356644,8.421875 59.0243902,15.0543079 59.0243902,23.2358285 C59.0243902,24.7003459 58.8004568,26.1152273 58.3833123,27.4513164 C60.1144455,28.3739601 61.5178777,29.7068359 62.488896,31.3505695 C63.4612502,32.9965643 64,34.9542728 64,37.1239099 C64,39.293547 63.4612502,41.2512555 62.488896,42.8972503 C61.5165419,44.5432451 60.1105834,45.8775263 58.376166,46.8003088 C56.6417487,47.7230912 54.5788725,48.234375 52.2926829,48.234375 L13.2682927,48.234375 C10.9821031,48.234375 8.91922693,47.7230912 7.18480958,46.8003088 C5.45039224,45.8775263 4.04443374,44.5432451 3.07207959,42.8972503 C2.09972543,41.2512555 1.56097561,39.293547 1.56097561,37.1239099 C1.56097561,34.9542728 2.09972543,32.9965643 3.07207959,31.3505695 C4.04443374,29.7045746 5.45039224,28.3702935 7.18480958,27.447511 C7.73185237,27.1564614 8.31157022,26.9063476 8.92066404,26.7003006 C8.91286861,26.6494237 9.3704216,26.5356673 9.98034055,26.3480961 L9.98034055,26.3480961 Z"/>
    <ellipse cx="18.732" cy="17.609" rx="9.366" ry="9.188"/>
    <path d="M14.1010741,0.349783804 C14.9620774,0.353888054 15.6633856,1.04367069 15.6674899,1.89045644 L15.6823527,4.95693892 C15.6864569,5.80372467 14.991803,6.48685301 14.1307997,6.48274876 C13.2697964,6.47864451 12.5684882,5.78886187 12.5643839,4.94207612 L12.5495211,1.87559364 C12.5454169,1.02880789 13.2400708,0.345679554 14.1010741,0.349783804 Z" transform="rotate(-15 14.116 3.416)"/>
    <path d="M25.6821062,1.89836915 C26.3443111,2.44581658 26.4350294,3.41332716 25.8847312,4.05936452 L23.8919251,6.39887276 C23.3416269,7.04491012 22.3586989,7.12483305 21.6964939,6.57738562 C21.034289,6.02993819 20.9435707,5.06242761 21.4938689,4.41639025 L23.486675,2.07688201 C24.0369732,1.43084465 25.0199012,1.35092172 25.6821062,1.89836915 Z" transform="rotate(-15 23.69 4.238)"/>
    <path d="M0.683527531,17.3819206 C0.828997287,16.5487121 1.63487875,15.9957415 2.48351417,16.1468262 L5.55669486,16.6939523 C6.40533027,16.845037 6.97535867,17.6429643 6.82988891,18.4761728 C6.68441916,19.3093812 5.87853769,19.8623518 5.02990227,19.7112671 L1.95672158,19.164141 C1.10808617,19.0130563 0.538057776,18.215129 0.683527531,17.3819206 L0.683527531,17.3819206 Z" transform="rotate(-15 3.757 17.929)"/>
    <path d="M4.22836436,6.46471582 C4.88529299,5.92355647 5.86904119,6.0128542 6.42562748,6.66416788 L8.44120473,9.02278337 C8.99779101,9.67409705 8.91644747,10.6407874 8.25951885,11.1819468 C7.60259022,11.7231062 6.61884201,11.6338084 6.06225572,10.9824947 L4.04667848,8.62387925 C3.49009219,7.97256557 3.57143573,7.00587518 4.22836436,6.46471582 Z" transform="rotate(-15 6.244 8.823)"/>
  </g>
</svg>
