<svg xmlns="http://www.w3.org/2000/svg" width="64" height="64" viewBox="0 0 64 64">
  <g fill="none" fill-rule="evenodd" transform="translate(0 3)">
    <path stroke="#31293E" stroke-width="3" d="M57.5229585,21.337844 L56.4528618,20.7524045 L56.8078074,19.5854169 C57.1990986,18.2989326 57.4,16.9566201 57.4,15.5865633 C57.4,7.81568501 50.9167902,1.5 42.9,1.5 C37.0088963,1.5 31.7784054,4.94308222 29.5321284,10.1195852 L28.638245,12.1795229 L27.0775928,10.5649841 C25.1049601,8.52423984 22.3616137,7.34496124 19.4181818,7.34496124 C13.6105306,7.34496124 8.91818182,11.9160607 8.91818182,17.5348837 C8.91818182,18.0324316 8.95481035,18.5250112 9.02724428,19.0102748 L9.21089872,20.2406486 L8.03572865,20.6487221 C7.49170464,20.8376324 6.97320498,21.066868 6.48339989,21.3343685 C4.94706447,22.1734174 3.70741231,23.3810372 2.84896365,24.872711 C1.96720245,26.4048935 1.5,28.2136336 1.5,30.1989664 C1.5,32.1842992 1.96720245,33.9930393 2.84896365,35.5252219 C3.70741231,37.0168956 4.94706447,38.2245154 6.48339989,39.0635644 C8.06882266,39.9294217 9.94323354,40.3888889 12,40.3888889 L52,40.3888889 C54.0567665,40.3888889 55.9311773,39.9294217 57.5166001,39.0635644 C59.0529355,38.2245154 60.2925877,37.0168956 61.1510364,35.5252219 C62.0327975,33.9930393 62.5,32.1842992 62.5,30.1989664 C62.5,28.2136336 62.0327975,26.4048935 61.1510364,24.872711 C60.29378,23.3831091 59.0563705,22.1767589 57.5229585,21.337844 Z"/>
    <path fill="#31293E" d="M11.1714286 46.7222222L52.0285714 46.7222222C52.8964475 46.7222222 53.6 47.3937951 53.6 48.2222222 53.6 49.0506493 52.8964475 49.7222222 52.0285714 49.7222222L11.1714286 49.7222222C10.3035525 49.7222222 9.6 49.0506493 9.6 48.2222222 9.6 47.3937951 10.3035525 46.7222222 11.1714286 46.7222222zM11.1714286 54.7777778L52.0285714 54.7777778C52.8964475 54.7777778 53.6 55.4493507 53.6 56.2777778 53.6 57.1062049 52.8964475 57.7777778 52.0285714 57.7777778L11.1714286 57.7777778C10.3035525 57.7777778 9.6 57.1062049 9.6 56.2777778 9.6 55.4493507 10.3035525 54.7777778 11.1714286 54.7777778z"/>
  </g>
</svg>
