<svg xmlns="http://www.w3.org/2000/svg" width="64" height="64" viewBox="0 0 64 64">
  <g fill="none" fill-rule="evenodd" transform="translate(0 8)">
    <path stroke="#31293E" stroke-width="2.909" d="M10.2631229,27.2676096 L10.4063215,27.7332438 L10.2489588,27.7864772 C10.0164555,27.8561909 9.68730415,27.9531885 9.64588475,27.965909 C9.63375576,27.9696339 9.62252948,27.9731193 9.61229458,27.9763231 C9.61004205,27.9744063 9.60779009,27.9724888 9.6055387,27.9705705 C9.63992697,27.9536872 9.67858024,27.9320091 9.72662269,27.9010623 C9.84093584,27.826056 9.84093584,27.826056 10.0404259,27.6230752 C10.1564915,27.4690108 10.2219227,27.382158 10.2631229,27.2676096 Z M9.54512339,27.9978082 C9.54310704,27.9984669 9.54215237,27.9987768 9.54232476,27.9987072 C9.54351982,27.998224 9.54471626,27.9977381 9.54591437,27.9972492 Z M9.63379171,27.9945787 L9.38676691,28.0781433 C8.85437268,28.2582441 8.34707614,28.4767383 7.86800998,28.7316215 C6.36806926,29.5296526 5.15973145,30.676388 4.32442937,32.0903819 C3.46859595,33.5391312 3.01552106,35.2479087 3.01552106,37.1239099 C3.01552106,38.999911 3.46859595,40.7086885 4.32442937,42.1574378 C5.15973145,43.5714318 6.36806926,44.7181672 7.86800998,45.5161983 C9.41931077,46.3415551 11.2546314,46.7798295 13.2682927,46.7798295 L52.2926829,46.7798295 C54.3063442,46.7798295 56.1416648,46.3415551 57.6929656,45.5161983 C59.1929063,44.7181672 60.4012442,43.5714318 61.2365462,42.1574378 C62.0923797,40.7086885 62.5454545,38.999911 62.5454545,37.1239099 C62.5454545,35.2479087 62.0923797,33.5391312 61.2365462,32.0903819 C60.4024062,30.6783551 59.1962602,29.5328309 57.6991825,28.734932 L56.6357215,28.1681382 L56.9948644,27.0178249 C57.3748193,25.8008516 57.5698448,24.5314287 57.5698448,23.2358285 C57.5698448,15.8751454 51.2488695,9.87642045 43.4146341,9.87642045 C39.0649791,9.87642045 35.0528221,11.7392805 32.3919004,14.8540987 C32.5789107,15.754179 32.6740576,16.6760107 32.6740576,17.609375 C32.6740576,25.1845126 26.4256618,31.3139205 18.7317073,31.3139205 C15.3410935,31.3139205 12.1384934,30.117246 9.63379171,27.9945787 Z"/>
    <ellipse cx="18.732" cy="17.609" stroke="#31293E" stroke-width="2.909" rx="7.911" ry="7.733"/>
    <path fill="#31293E" d="M14.1010741,0.349783804 C14.9620774,0.353888054 15.6633856,1.04367069 15.6674899,1.89045644 L15.6823527,4.95693892 C15.6864569,5.80372467 14.991803,6.48685301 14.1307997,6.48274876 C13.2697964,6.47864451 12.5684882,5.78886187 12.5643839,4.94207612 L12.5495211,1.87559364 C12.5454169,1.02880789 13.2400708,0.345679554 14.1010741,0.349783804 Z" transform="rotate(-15 14.116 3.416)"/>
    <path fill="#31293E" d="M25.6821062,1.89836915 C26.3443111,2.44581658 26.4350294,3.41332716 25.8847312,4.05936452 L23.8919251,6.39887276 C23.3416269,7.04491012 22.3586989,7.12483305 21.6964939,6.57738562 C21.034289,6.02993819 20.9435707,5.06242761 21.4938689,4.41639025 L23.486675,2.07688201 C24.0369732,1.43084465 25.0199012,1.35092172 25.6821062,1.89836915 Z" transform="rotate(-15 23.69 4.238)"/>
    <path fill="#31293E" d="M0.683527531,17.3819206 C0.828997287,16.5487121 1.63487875,15.9957415 2.48351417,16.1468262 L5.55669486,16.6939523 C6.40533027,16.845037 6.97535867,17.6429643 6.82988891,18.4761728 C6.68441916,19.3093812 5.87853769,19.8623518 5.02990227,19.7112671 L1.95672158,19.164141 C1.10808617,19.0130563 0.538057776,18.215129 0.683527531,17.3819206 L0.683527531,17.3819206 Z" transform="rotate(-15 3.757 17.929)"/>
    <path fill="#31293E" d="M4.22836436,6.46471582 C4.88529299,5.92355647 5.86904119,6.0128542 6.42562748,6.66416788 L8.44120473,9.02278337 C8.99779101,9.67409705 8.91644747,10.6407874 8.25951885,11.1819468 C7.60259022,11.7231062 6.61884201,11.6338084 6.06225572,10.9824947 L4.04667848,8.62387925 C3.49009219,7.97256557 3.57143573,7.00587518 4.22836436,6.46471582 Z" transform="rotate(-15 6.244 8.823)"/>
  </g>
</svg>
