<svg xmlns="http://www.w3.org/2000/svg" width="64" height="64" viewBox="0 0 64 64">
  <g fill="none" fill-rule="evenodd" stroke="#31293E" transform="translate(1)">
    <ellipse cx="31.5" cy="32" stroke-width="3.097" rx="18.346" ry="18.271"/>
    <path fill="#000" stroke-width="2.092" d="M31.5 1.04602151C30.9170167 1.04602151 30.4460215 1.51523207 30.4460215 2.09204301L30.4460215 6.16602151C30.4460215 6.74283244 30.9170167 7.21204301 31.5 7.21204301 32.0829833 7.21204301 32.5539785 6.74283244 32.5539785 6.16602151L32.5539785 2.09204301C32.5539785 1.51523207 32.0829833 1.04602151 31.5 1.04602151zM49.9866188 6.95881324C49.5148894 6.61738034 48.8537911 6.72169127 48.5117796 7.19064607L46.1080473 10.4865639C45.7677755 10.9531333 45.8714628 11.6053087 46.340805 11.9450137 46.8125344 12.2864466 47.4736327 12.1821356 47.8156442 11.7131808L50.2193765 8.41726299C50.5596483 7.9506936 50.455961 7.29851824 49.9866188 6.95881324zM61.4098675 22.435806C61.2305438 21.8859956 60.6352627 21.583834 60.0803069 21.7634669L56.1909863 23.0223955C55.6377606 23.2014683 55.33628 23.7909155 55.515037 24.3389886 55.6943607 24.888799 56.2896417 25.1909606 56.8445976 25.0113277L60.7339182 23.7523991C61.2871438 23.5733263 61.5886245 22.9838791 61.4098675 22.435806zM61.4098675 41.564194C61.5886245 41.0161209 61.2871438 40.4266737 60.7339182 40.2476009L56.8445976 38.9886723C56.2896417 38.8090394 55.6943607 39.111201 55.515037 39.6610114 55.33628 40.2090845 55.6377606 40.7985317 56.1909863 40.9776045L60.0803069 42.2365331C60.6352627 42.416166 61.2305438 42.1140044 61.4098675 41.564194zM49.9866188 57.0411868C50.455961 56.7014818 50.5596483 56.0493064 50.2193765 55.582737L47.8156442 52.2868192C47.4736327 51.8178644 46.8125344 51.7135534 46.340805 52.0549863 45.8714628 52.3946913 45.7677755 53.0468667 46.1080473 53.5134361L48.5117796 56.8093539C48.8537911 57.2783087 49.5148894 57.3826197 49.9866188 57.0411868zM31.5 62.9539785C32.0829833 62.9539785 32.5539785 62.4847679 32.5539785 61.907957L32.5539785 57.8339785C32.5539785 57.2571676 32.0829833 56.787957 31.5 56.787957 30.9170167 56.787957 30.4460215 57.2571676 30.4460215 57.8339785L30.4460215 61.907957C30.4460215 62.4847679 30.9170167 62.9539785 31.5 62.9539785zM13.0133812 57.0411868C13.4851106 57.3826197 14.1462089 57.2783087 14.4882204 56.8093539L16.8919527 53.5134361C17.2322245 53.0468667 17.1285372 52.3946913 16.659195 52.0549863 16.1874656 51.7135534 15.5263673 51.8178644 15.1843558 52.2868192L12.7806235 55.582737C12.4403517 56.0493064 12.544039 56.7014818 13.0133812 57.0411868zM1.59013254 41.564194C1.76945624 42.1140044 2.36473726 42.416166 2.91969314 42.2365331L6.80901374 40.9776045C7.36223935 40.7985317 7.66372004 40.2090845 7.48496298 39.6610114 7.30563929 39.111201 6.71035827 38.8090394 6.15540238 38.9886723L2.26608179 40.2476009C1.71285618 40.4266737 1.41137549 41.0161209 1.59013254 41.564194zM1.59013254 22.435806C1.41137549 22.9838791 1.71285618 23.5733263 2.26608179 23.7523991L6.15540238 25.0113277C6.71035827 25.1909606 7.30563929 24.888799 7.48496298 24.3389886 7.66372004 23.7909155 7.36223935 23.2014683 6.80901374 23.0223955L2.91969314 21.7634669C2.36473726 21.583834 1.76945624 21.8859956 1.59013254 22.435806zM13.0133812 6.95881324C12.544039 7.29851824 12.4403517 7.9506936 12.7806235 8.41726299L15.1843558 11.7131808C15.5263673 12.1821356 16.1874656 12.2864466 16.659195 11.9450137 17.1285372 11.6053087 17.2322245 10.9531333 16.8919527 10.4865639L14.4882204 7.19064607C14.1462089 6.72169127 13.4851106 6.61738034 13.0133812 6.95881324z"/>
  </g>
</svg>
