<svg xmlns="http://www.w3.org/2000/svg" width="64" height="64" viewBox="0 0 64 64">
  <path fill="#31293E" fill-rule="evenodd" d="M58.2428951,20.0750151 C60.0173066,21.0483535 61.4558246,22.4544642 62.4511184,24.1885128 C63.4477814,25.924947 64,27.9902218 64,30.2790698 C64,32.5679177 63.4477814,34.6331926 62.4511184,36.3696267 C61.4544554,38.1060608 60.013348,39.5136541 58.2355702,40.4871389 C56.4577924,41.4606237 54.3433443,42 52,42 L12,42 C9.6566557,42 7.5422076,41.4606237 5.76442982,40.4871389 C3.98665204,39.5136541 2.54554459,38.1060608 1.54888158,36.3696267 C0.552218566,34.6331926 0,32.5679177 0,30.2790698 C0,27.9902218 0.552218566,25.924947 1.54888158,24.1885128 C2.54554459,22.4520787 3.98665204,21.0444854 5.76442982,20.0710006 C6.32514868,19.7639593 6.91935948,19.500103 7.54368064,19.2827347 C7.46099103,18.7272948 7.41818182,18.1592281 7.41818182,17.5813953 C7.41818182,11.1081043 12.7907648,5.86046512 19.4181818,5.86046512 C22.862369,5.86046512 25.9676564,7.27772292 28.1560983,9.54773321 C30.584323,3.93709205 36.2714358,0 42.9,0 C51.736556,0 58.9,6.99685228 58.9,15.627907 C58.9,17.1728924 58.6704682,18.6655145 58.2428951,20.0750151 L58.2428951,20.0750151 Z" transform="translate(0 11)"/>
</svg>
