<svg xmlns="http://www.w3.org/2000/svg" width="64" height="64" viewBox="0 0 64 64">
  <path fill="#31293E" fill-rule="evenodd" d="M58.2428951 20.0219066C60.0173066 20.99267 61.4558246 22.3950609 62.4511184 24.1245221 63.4477814 25.8563624 64 27.9161736 64 30.1989664 64 32.4817592 63.4477814 34.5415704 62.4511184 36.2734107 61.4544554 38.0052511 60.013348 39.4091206 58.2355702 40.3800301 56.4577924 41.3509395 54.3433443 41.8888889 52 41.8888889L12 41.8888889C9.6566557 41.8888889 7.5422076 41.3509395 5.76442982 40.3800301 3.98665204 39.4091206 2.54554459 38.0052511 1.54888158 36.2734107.552218566 34.5415704 0 32.4817592 0 30.1989664 0 27.9161736.552218566 25.8563624 1.54888158 24.1245221 2.54554459 22.3926817 3.98665204 20.9888122 5.76442982 20.0179027 6.32514868 19.7116737 6.91935948 19.4485154 7.54368064 19.2317222 7.46099103 18.6777517 7.41818182 18.1111879 7.41818182 17.5348837 7.41818182 11.0787178 12.7907648 5.84496124 19.4181818 5.84496124 22.862369 5.84496124 25.9676564 7.25846969 28.1560983 9.52247466 30.584323 3.92667646 36.2714358 0 42.9 0 51.736556 0 58.9 6.97834209 58.9 15.5865633 58.9 17.1274614 58.6704682 18.6161348 58.2428951 20.0219066L58.2428951 20.0219066zM11.1714286 46.7222222L52.0285714 46.7222222C52.8964475 46.7222222 53.6 47.3937951 53.6 48.2222222 53.6 49.0506493 52.8964475 49.7222222 52.0285714 49.7222222L11.1714286 49.7222222C10.3035525 49.7222222 9.6 49.0506493 9.6 48.2222222 9.6 47.3937951 10.3035525 46.7222222 11.1714286 46.7222222zM11.1714286 54.7777778L52.0285714 54.7777778C52.8964475 54.7777778 53.6 55.4493507 53.6 56.2777778 53.6 57.1062049 52.8964475 57.7777778 52.0285714 57.7777778L11.1714286 57.7777778C10.3035525 57.7777778 9.6 57.1062049 9.6 56.2777778 9.6 55.4493507 10.3035525 54.7777778 11.1714286 54.7777778z" transform="translate(0 3)"/>
</svg>
