<svg xmlns="http://www.w3.org/2000/svg" width="64" height="64" viewBox="0 0 64 64">
  <g fill="#31293E" fill-rule="evenodd" transform="translate(0 1)">
    <path d="M16.9357035 46.1447368C13.7354346 42.5663207 11.7894737 37.8408528 11.7894737 32.6605263 11.7894737 21.4898406 20.8380345 12.4342105 32 12.4342105 43.1619655 12.4342105 52.2105263 21.4898406 52.2105263 32.6605263 52.2105263 37.8408528 50.2645654 42.5663207 47.0642965 46.1447368L16.9357035 46.1447368M32 .00345394737C33.1782075.00345394737 34.1333333.959326006 34.1333333 2.13845395L34.1333333 6.29608553C34.1333333 7.47521347 33.1782075 8.43108553 32 8.43108553 30.8217925 8.43108553 29.8666667 7.47521347 29.8666667 6.29608553L29.8666667 2.13845395C29.8666667.959326006 30.8217925.00345394737 32 .00345394737zM51.4031005 6.24039978C52.3562904 6.9334738 52.5675946 8.26863804 51.8750616 9.22257258L49.4331748 12.5861672C48.7406418 13.5401017 47.4065199 13.751571 46.45333 13.058497 45.5001401 12.3654229 45.288836 11.0302587 45.9813689 10.0763242L48.4232557 6.71272955C49.1157887 5.75879501 50.4499107 5.54732577 51.4031005 6.24039978L51.4031005 6.24039978zM63.3948762 22.568936C63.7589623 23.6903533 63.1457337 24.8948223 62.0251918 25.2591929L58.074136 26.5439717C56.9535941 26.9083423 55.7500653 26.2946347 55.3859792 25.1732173 55.021893 24.0518 55.6351216 22.847331 56.7556635 22.4829604L60.7067193 21.1981816C61.8272612 20.833811 63.03079 21.4475187 63.3948762 22.568936zM.605123841 22.568936C.969209971 21.4475187 2.17273878 20.833811 3.29328066 21.1981816L7.24433651 22.4829604C8.3648784 22.847331 8.97810695 24.0518 8.61402082 25.1732173 8.24993469 26.2946347 7.04640589 26.9083423 5.925864 26.5439717L1.97480815 25.2591929C.854266266 24.8948223.241037711 23.6903533.605123841 22.568936zM12.5968995 6.24039978C13.5500893 5.54732577 14.8842113 5.75879501 15.5767443 6.71272955L18.0186311 10.0763242C18.711164 11.0302587 18.4998599 12.3654229 17.54667 13.058497 16.5934801 13.751571 15.2593582 13.5401017 14.5668252 12.5861672L12.1249384 9.22257258C11.4324054 8.26863804 11.6437096 6.9334738 12.5968995 6.24039978zM63.3948762 42.7521167C63.03079 43.873534 61.8272612 44.4872416 60.7067193 44.122871L56.7556635 42.8380922C55.6351216 42.4737217 55.021893 41.2692526 55.3859792 40.1478353 55.7500653 39.026418 56.9535941 38.4127103 58.074136 38.7770809L62.0251918 40.0618597C63.1457337 40.4262303 63.7589623 41.6306994 63.3948762 42.7521167zM.605123841 42.7521167C.241037711 41.6306994.854266266 40.4262303 1.97480815 40.0618597L5.925864 38.7770809C7.04640589 38.4127103 8.24993469 39.026418 8.61402082 40.1478353 8.97810695 41.2692526 8.3648784 42.4737217 7.24433651 42.8380922L3.29328066 44.122871C2.17273878 44.4872416.969209971 43.873534.605123841 42.7521167z"/>
    <rect width="46.164" height="3.15" x="8.421" y="59.629" rx="1.575"/>
    <rect width="46.164" height="3.15" x="8.421" y="51.201" rx="1.575"/>
  </g>
</svg>
