<svg xmlns="http://www.w3.org/2000/svg" width="64" height="64" viewBox="0 0 64 64">
  <g fill="#31293E" fill-rule="evenodd" transform="translate(1)">
    <ellipse cx="31.5" cy="32" rx="19.895" ry="19.819"/>
    <path d="M31.5 0C32.659798-2.12244171e-16 33.6.93663956 33.6 2.09204301L33.6 6.16602151C33.6 7.32142496 32.659798 8.25806452 31.5 8.25806452 30.340202 8.25806452 29.4 7.32142496 29.4 6.16602151L29.4 2.09204301C29.4.93663956 30.340202 2.12244171e-16 31.5 0zM50.5999271 6.11145618C51.5382234 6.79058529 51.7462259 8.09888553 51.0645138 9.03362656L48.6607814 12.3295444C47.9790693 13.2642854 46.665793 13.4714998 45.7274967 12.7923707 44.7892004 12.1132416 44.5811979 10.8049414 45.2629101 9.87020034L47.6666424 6.5742825C48.3483545 5.63954147 49.6616308 5.43232707 50.5999271 6.11145618zM62.4043312 22.1114562C62.7627285 23.2103102 62.1590816 24.3905449 61.0560482 24.7475842L57.1667276 26.0065128C56.0636942 26.3635521 54.8789705 25.7621924 54.5205733 24.6633385 54.162176 23.5644845 54.7658228 22.3842498 55.8688563 22.0272105L59.7581768 20.7682819C60.8612103 20.4112426 62.0459339 21.0126022 62.4043312 22.1114562zM62.4043312 41.8885438C62.0459339 42.9873978 60.8612103 43.5887574 59.7581768 43.2317181L55.8688563 41.9727895C54.7658228 41.6157502 54.162176 40.4355155 54.5205733 39.3366615 54.8789705 38.2378076 56.0636942 37.6364479 57.1667276 37.9934872L61.0560482 39.2524158C62.1590816 39.6094551 62.7627285 40.7896898 62.4043312 41.8885438zM50.5999271 57.8885438C49.6616308 58.5676729 48.3483545 58.3604585 47.6666424 57.4257175L45.2629101 54.1297997C44.5811979 53.1950586 44.7892004 51.8867584 45.7274967 51.2076293 46.665793 50.5285002 47.9790693 50.7357146 48.6607814 51.6704556L51.0645138 54.9663734C51.7462259 55.9011145 51.5382234 57.2094147 50.5999271 57.8885438zM31.5 64C30.340202 64 29.4 63.0633604 29.4 61.907957L29.4 57.8339785C29.4 56.678575 30.340202 55.7419355 31.5 55.7419355 32.659798 55.7419355 33.6 56.678575 33.6 57.8339785L33.6 61.907957C33.6 63.0633604 32.659798 64 31.5 64zM12.4000729 57.8885438C11.4617766 57.2094147 11.2537741 55.9011145 11.9354862 54.9663734L14.3392186 51.6704556C15.0209307 50.7357146 16.334207 50.5285002 17.2725033 51.2076293 18.2107996 51.8867584 18.4188021 53.1950586 17.7370899 54.1297997L15.3333576 57.4257175C14.6516455 58.3604585 13.3383692 58.5676729 12.4000729 57.8885438zM.595668781 41.8885438C.237271497 40.7896898.840918356 39.6094551 1.94395178 39.2524158L5.83327237 37.9934872C6.93630579 37.6364479 8.12102946 38.2378076 8.47942675 39.3366615 8.83782403 40.4355155 8.23417717 41.6157502 7.13114375 41.9727895L3.24182315 43.2317181C2.13878973 43.5887574.954066065 42.9873978.595668781 41.8885438zM.595668781 22.1114562C.954066065 21.0126022 2.13878973 20.4112426 3.24182315 20.7682819L7.13114375 22.0272105C8.23417717 22.3842498 8.83782403 23.5644845 8.47942675 24.6633385 8.12102946 25.7621924 6.93630579 26.3635521 5.83327237 26.0065128L1.94395178 24.7475842C.840918356 24.3905449.237271497 23.2103102.595668781 22.1114562zM12.4000729 6.11145618C13.3383692 5.43232707 14.6516455 5.63954147 15.3333576 6.5742825L17.7370899 9.87020034C18.4188021 10.8049414 18.2107996 12.1132416 17.2725033 12.7923707 16.334207 13.4714998 15.0209307 13.2642854 14.3392186 12.3295444L11.9354862 9.03362656C11.2537741 8.09888553 11.4617766 6.79058529 12.4000729 6.11145618z"/>
  </g>
</svg>
