<svg xmlns="http://www.w3.org/2000/svg" width="64" height="64" viewBox="0 0 64 64">
  <g fill="none" fill-rule="evenodd" transform="translate(0 1)">
    <path stroke="#31293E" stroke-width="2.909" d="M10.2657956,28.362702 L10.4110633,28.8293499 L10.2538607,28.8831802 C10.0213006,28.9537661 9.69200674,29.0519936 9.65065537,29.0648487 C9.63539011,29.0695942 9.62156632,29.0739521 9.60936508,29.0778358 C9.60747725,29.0762109 9.60558982,29.0745854 9.60370278,29.0729593 C9.64033732,29.0552072 9.68144348,29.0322204 9.73340264,28.9983407 C9.84782054,28.9222903 9.84782054,28.9222903 10.045988,28.7181995 C10.1607102,28.563779 10.2252531,28.4769018 10.2657956,28.362702 Z M9.63103707,29.0964518 L9.39187855,29.178346 C8.86003481,29.3604636 8.35320442,29.58143 7.87450366,29.8392374 C6.37442162,30.6471164 5.16504864,31.8088879 4.32834301,33.2426011 C3.47006771,34.7132744 3.01552106,36.4485945 3.01552106,38.3534884 C3.01552106,40.2583823 3.47006771,41.9937024 4.32834301,43.4643756 C5.16504864,44.8980888 6.37442162,46.0598603 7.87450366,46.8677393 C9.42430063,47.7023927 11.2572252,48.1454545 13.2682927,48.1454545 L52.2926829,48.1454545 C54.3037504,48.1454545 56.136675,47.7023927 57.6864719,46.8677393 C59.186554,46.0598603 60.395927,44.8980888 61.2326326,43.4643756 C62.0909079,41.9937024 62.5454545,40.2583823 62.5454545,38.3534884 C62.5454545,36.4485945 62.0909079,34.7132744 61.2326326,33.2426011 C60.3970901,31.810881 59.189908,30.6503339 57.6926851,29.8425865 L56.6412681,29.2753501 L56.9933793,28.1337492 C57.3742978,26.8987502 57.5698448,25.6103469 57.5698448,24.2953488 C57.5698448,16.8303276 51.2451185,10.7545455 43.4146341,10.7545455 C39.0645423,10.7545455 35.0508374,12.6429894 32.3893962,15.8024336 C32.5780643,16.7162181 32.6740576,17.6522242 32.6740576,18.6 C32.6740576,26.2539606 26.4295662,32.4545455 18.7317073,32.4545455 C15.3392554,32.4545455 12.1357085,31.243491 9.63103707,29.0964518 Z"/>
    <path fill="#31293E" d="M18.2009557 54.6511282L18.2009557 54.6511282C18.9430104 55.0765413 19.1996991 56.022961 18.774286 56.7650157 18.772717 56.7677525 18.7711397 56.7704845 18.769554 56.7732117L16.2963607 61.0267883C16.1498879 61.2787029 15.9480996 61.4745495 15.7160582 61.6076128 15.4840167 61.7406762 15.2217221 61.8109563 14.9542367 61.8117379 14.6867512 61.8125195 14.4140749 61.7438026 14.16127 61.5988718L14.16127 61.5988718C13.4192153 61.1734587 13.1625265 60.227039 13.5879396 59.4849843 13.5895086 59.4822475 13.591086 59.4795155 13.5926717 59.4767883L16.0658649 55.2232117C16.2123377 54.9712971 16.414126 54.7754505 16.6461675 54.6423872 16.8782089 54.5093238 17.1405035 54.4390437 17.407989 54.4382621 17.6754744 54.4374805 17.9481508 54.5061974 18.2009557 54.6511282zM33.8107118 54.6511282L33.8107118 54.6511282C34.5527665 55.0765413 34.8094552 56.022961 34.3840421 56.7650157 34.3824731 56.7677525 34.3808958 56.7704845 34.3793101 56.7732117L31.9061168 61.0267883C31.759644 61.2787029 31.5578557 61.4745495 31.3258143 61.6076128 31.0937728 61.7406762 30.8314782 61.8109563 30.5639928 61.8117379 30.2965073 61.8125195 30.023831 61.7438026 29.7710261 61.5988718L29.7710261 61.5988718C29.0289713 61.1734587 28.7722826 60.227039 29.1976957 59.4849843 29.1992647 59.4822475 29.2008421 59.4795155 29.2024278 59.4767883L31.675621 55.2232117C31.8220938 54.9712971 32.0238821 54.7754505 32.2559236 54.6423872 32.487965 54.5093238 32.7502596 54.4390437 33.0177451 54.4382621 33.2852305 54.4374805 33.5579069 54.5061974 33.8107118 54.6511282zM49.4204679 54.6511282L49.4204679 54.6511282C50.1625226 55.0765413 50.4192113 56.022961 49.9937982 56.7650157 49.9922292 56.7677525 49.9906519 56.7704845 49.9890662 56.7732117L47.5158729 61.0267883C47.3694001 61.2787029 47.1676118 61.4745495 46.9355704 61.6076128 46.7035289 61.7406762 46.4412343 61.8109563 46.1737489 61.8117379 45.9062634 61.8125195 45.6335871 61.7438026 45.3807822 61.5988718L45.3807822 61.5988718C44.6387274 61.1734587 44.3820387 60.227039 44.8074518 59.4849843 44.8090208 59.4822475 44.8105982 59.4795155 44.8121839 59.4767883L47.2853771 55.2232117C47.4318499 54.9712971 47.6336382 54.7754505 47.8656797 54.6423872 48.0977211 54.5093238 48.3600157 54.4390437 48.6275012 54.4382621 48.8949866 54.4374805 49.167663 54.5061974 49.4204679 54.6511282z"/>
    <ellipse cx="18.732" cy="18.6" stroke="#31293E" stroke-width="2.909" rx="7.911" ry="7.845"/>
    <path fill="#31293E" d="M14.2662346,1.13162766 C15.1279316,1.13314308 15.8277035,1.82865937 15.8292189,2.68510679 L15.8347067,5.78657724 C15.8362221,6.64302466 15.1389072,7.33608398 14.2772102,7.33456857 C13.4155133,7.33305315 12.7157414,6.63753685 12.7142259,5.78108944 L12.7087381,2.67961898 C12.7072227,1.82317157 13.4045377,1.13011224 14.2662346,1.13162766 Z" transform="rotate(-15 14.272 4.233)"/>
    <path fill="#31293E" d="M25.846688,2.69243305 C26.5077603,3.24410771 26.5955913,4.22239405 26.042864,4.87749674 L24.0412616,7.24983346 C23.4885343,7.90493615 22.5045554,7.98878114 21.8434831,7.43710647 C21.1824108,6.88543181 21.0945798,5.90714547 21.6473071,5.25204278 L23.6489096,2.87970606 C24.2016368,2.22460337 25.1856158,2.14075838 25.846688,2.69243305 Z" transform="rotate(-15 23.845 5.065)"/>
    <path fill="#31293E" d="M0.838467141,18.3796169 C0.986606857,17.536444 1.79484212,16.9746889 2.64371112,17.1249018 L5.71773772,17.668871 C6.56660673,17.8190839 7.13466006,18.6243822 6.98652034,19.4675551 C6.83838062,20.310728 6.03014536,20.8724831 5.18127636,20.7222702 L2.10724976,20.178301 C1.25838075,20.0280881 0.690327425,19.2227898 0.838467141,18.3796169 L0.838467141,18.3796169 Z" transform="rotate(-15 3.912 18.924)"/>
    <path fill="#31293E" d="M4.38971685,7.3269804 C5.04884093,6.77762749 6.0331227,6.86493394 6.58817171,7.52198481 L8.59818199,9.90137651 C9.153231,10.5584274 9.06886148,11.5364109 8.4097374,12.0857638 C7.75061331,12.6351167 6.76633154,12.5478103 6.21128253,11.8907594 L4.20127225,9.51136769 C3.64622324,8.85431682 3.73059276,7.87633332 4.38971685,7.3269804 Z" transform="rotate(-15 6.4 9.706)"/>
  </g>
</svg>
