<svg xmlns="http://www.w3.org/2000/svg" width="64" height="64" viewBox="0 0 64 64">
  <defs>
    <linearGradient id="icon12-a" x1="50%" x2="50%" y1="2.96%" y2="98.382%">
      <stop offset="0%" stop-color="#A38ECA"/>
      <stop offset="100%" stop-color="#5E7B99"/>
    </linearGradient>
  </defs>
  <g fill="none" fill-rule="evenodd" transform="translate(0 6)">
    <rect width="44" height="3" x="10" y="48" fill="#737373" rx="1.5"/>
    <rect width="44" height="3" x="10" y="40" fill="#737373" rx="1.5"/>
    <path fill="url(#icon12-a)" d="M0,32.0833333 C0,14.3641976 14.3641976,0 32.0833333,0 C49.8024691,0 64.1666667,14.3641976 64.1666667,32.0833333 L0,32.0833333 Z M44.9166667,32.0833333 L49.7291667,32.0833333 C49.7291667,22.3378087 41.828858,14.4375 32.0833333,14.4375 C22.3378087,14.4375 14.4375,22.3378087 14.4375,32.0833333 L19.25,32.0833333 C19.25,24.995679 24.995679,19.25 32.0833333,19.25 C39.1709876,19.25 44.9166667,24.995679 44.9166667,32.0833333 Z M54.5416667,32.0833333 L59.3541667,32.0833333 C59.3541667,17.022068 47.1445987,4.8125 32.0833333,4.8125 C17.022068,4.8125 4.8125,17.022068 4.8125,32.0833333 L9.625,32.0833333 C9.625,19.6799383 19.6799383,9.625 32.0833333,9.625 C44.4867283,9.625 54.5416667,19.6799383 54.5416667,32.0833333 Z M40.1165885,32.0833333 C40.1165885,27.6535494 36.5131173,24.0625 32.0833333,24.0625 C27.6535494,24.0625 24.0625,27.6535494 24.0625,32.0833333 L40.1165885,32.0833333 Z"/>
  </g>
</svg>
