<svg xmlns="http://www.w3.org/2000/svg" width="64" height="64" viewBox="0 0 64 64">
  <g fill="#31293E" fill-rule="evenodd" transform="translate(0 7)">
    <rect width="43.323" height="2.941" x="9.846" y="47.059" rx="1.471"/>
    <rect width="43.323" height="2.941" x="9.846" y="39.216" rx="1.471"/>
    <path d="M0,31.4542484 C0,14.0825467 14.14321,0 31.5897436,0 C49.0362772,0 63.1794872,14.0825467 63.1794872,31.4542484 L0,31.4542484 Z M44.225641,31.4542484 L48.9641026,31.4542484 C48.9641026,21.8998124 41.1853371,14.1544118 31.5897436,14.1544118 C21.9941501,14.1544118 14.2153846,21.8998124 14.2153846,31.4542484 L18.9538462,31.4542484 C18.9538462,24.5055677 24.6111301,18.872549 31.5897436,18.872549 C38.568357,18.872549 44.225641,24.5055677 44.225641,31.4542484 Z M53.7025641,31.4542484 L58.4410256,31.4542484 C58.4410256,16.6883019 46.4192972,4.71813725 31.5897436,4.71813725 C16.76019,4.71813725 4.73846154,16.6883019 4.73846154,31.4542484 L9.47692308,31.4542484 C9.47692308,19.2940572 19.37717,9.43627451 31.5897436,9.43627451 C43.8023171,9.43627451 53.7025641,19.2940572 53.7025641,31.4542484 Z M39.4994102,31.4542484 C39.4994102,27.1113229 35.951377,23.5906863 31.5897436,23.5906863 C27.2281102,23.5906863 23.6923077,27.1113229 23.6923077,31.4542484 L39.4994102,31.4542484 Z"/>
  </g>
</svg>
