<svg xmlns="http://www.w3.org/2000/svg" width="64" height="64" viewBox="0 0 64 64">
  <g fill="none" fill-rule="evenodd" stroke="#31293E" transform="translate(0 1)">
    <path stroke-width="3.148" d="M17.6566298,44.5709664 L46.3433702,44.5709664 C49.0981982,41.2529398 50.6367558,37.0784155 50.6367558,32.6605263 C50.6367558,22.358735 42.2925208,14.007981 32,14.007981 C21.7074792,14.007981 13.3632442,22.358735 13.3632442,32.6605263 C13.3632442,37.0784155 14.9018018,41.2529398 17.6566298,44.5709664 Z"/>
    <path fill="#000" stroke-width="2.126" d="M32 1.06662335C31.4091507 1.06662335 30.9298361 1.54631247 30.9298361 2.13845395L30.9298361 6.29608553C30.9298361 6.88822701 31.4091507 7.36791613 32 7.36791613 32.5908493 7.36791613 33.0701639 6.88822701 33.0701639 6.29608553L33.0701639 2.13845395C33.0701639 1.54631247 32.5908493 1.06662335 32 1.06662335zM50.7778658 7.10028974C50.299876 6.7527385 49.6310406 6.85875437 49.2836098 7.33732543L46.841723 10.70092C46.49393 11.1799901 46.600076 11.850693 47.0785647 12.198607 47.5565545 12.5461582 48.2253899 12.4401424 48.5728207 11.9615713L51.0147075 8.59797671C51.3625005 8.11890666 51.2563546 7.44820375 50.7778658 7.10028974zM62.3836666 22.8972414C62.200911 22.3343379 61.5973141 22.0265496 61.0354889 22.2092403L57.084433 23.4940191C56.5222452 23.6768277 56.2143154 24.2816461 56.3971887 24.8449119 56.5799444 25.4078154 57.1835413 25.7156037 57.7453665 25.532913L61.6964223 24.2481342C62.2586101 24.0653256 62.5665399 23.4605072 62.3836666 22.8972414zM1.61633338 22.8972414C1.43346008 23.4605072 1.74138985 24.0653256 2.3035777 24.2481342L6.25463354 25.532913C6.81645873 25.7156037 7.42005563 25.4078154 7.60281128 24.8449119 7.78568458 24.2816461 7.47775481 23.6768277 6.91556696 23.4940191L2.96451112 22.2092403C2.40268594 22.0265496 1.79908903 22.3343379 1.61633338 22.8972414zM13.2221342 7.10028974C12.7436454 7.44820375 12.6374995 8.11890666 12.9852925 8.59797671L15.4271793 11.9615713C15.7746101 12.4401424 16.4434455 12.5461582 16.9214353 12.198607 17.399924 11.850693 17.50607 11.1799901 17.158277 10.70092L14.7163902 7.33732543C14.3689594 6.85875437 13.700124 6.7527385 13.2221342 7.10028974zM62.3836666 42.4238113C62.5665399 41.8605454 62.2586101 41.2557271 61.6964223 41.0729184L57.7453665 39.7881396C57.1835413 39.605449 56.5799444 39.9132372 56.3971887 40.4761407 56.2143154 41.0394065 56.5222452 41.6442249 57.084433 41.8270335L61.0354889 43.1118123C61.5973141 43.294503 62.200911 42.9867147 62.3836666 42.4238113zM1.61633338 42.4238113C1.79908903 42.9867147 2.40268594 43.294503 2.96451112 43.1118123L6.91556696 41.8270335C7.47775481 41.6442249 7.78568458 41.0394065 7.60281128 40.4761407 7.42005563 39.9132372 6.81645873 39.605449 6.25463354 39.7881396L2.3035777 41.0729184C1.74138985 41.2557271 1.43346008 41.8605454 1.61633338 42.4238113z"/>
    <rect width="44.485" height="1.471" x="9.26" y="60.468" fill="#000" stroke-width="1.679" rx=".736"/>
    <rect width="44.485" height="1.471" x="9.26" y="52.041" fill="#000" stroke-width="1.679" rx=".736"/>
  </g>
</svg>
