<svg xmlns="http://www.w3.org/2000/svg" width="64" height="64" viewBox="0 0 64 64">
  <g fill="none" fill-rule="evenodd" transform="translate(0 2)">
    <path stroke="#31293E" stroke-width="3" d="M57.5249722,21.2662689 L56.4511959,20.6809486 L56.8082507,19.5112873 C57.1992539,18.2304159 57.4,16.8940098 57.4,15.5299878 C57.4,7.79161309 50.9179724,1.5 42.9,1.5 C37.0075787,1.5 31.7769362,4.93068401 29.5313333,10.0868499 L28.6377589,12.1386007 L27.0794891,10.5323779 C25.1068766,8.49906188 22.3627868,7.32374541 19.4181818,7.32374541 C13.6093484,7.32374541 8.91818182,11.8771054 8.91818182,17.4712362 C8.91818182,17.9664408 8.95477051,18.4566986 9.02712629,18.9396791 L9.21174612,20.172031 L8.03413388,20.5794683 C7.4899419,20.767751 6.97130131,20.9962166 6.48138724,21.2628054 C4.94511301,22.0987755 3.70579704,23.3016856 2.84778477,24.7871894 C1.96676205,26.3125319 1.5,28.1130079 1.5,30.0893513 C1.5,32.0656947 1.96676205,33.8661707 2.84778477,35.3915132 C3.70579704,36.877017 4.94511301,38.0799271 6.48138724,38.9158972 C8.067268,39.7788609 9.94242318,40.2368421 12,40.2368421 L52,40.2368421 C54.0575768,40.2368421 55.932732,39.7788609 57.5186128,38.9158972 C59.054887,38.0799271 60.294203,36.877017 61.1522152,35.3915132 C62.033238,33.8661707 62.5,32.0656947 62.5,30.0893513 C62.5,28.1130079 62.033238,26.3125319 61.1522152,24.7871894 C60.295395,23.3037494 59.0583218,22.1021047 57.5249722,21.2662689 Z"/>
    <ellipse cx="12.8" cy="56.184" fill="#31293E" rx="3.2" ry="3.211"/>
    <ellipse cx="32" cy="49.763" fill="#31293E" rx="3.2" ry="3.211"/>
    <ellipse cx="20.8" cy="48.158" fill="#31293E" rx="1.6" ry="1.605"/>
    <ellipse cx="51.2" cy="51.368" fill="#31293E" rx="3.2" ry="3.211"/>
    <ellipse cx="40" cy="59.395" fill="#31293E" rx="1.6" ry="1.605"/>
  </g>
</svg>
