<svg xmlns="http://www.w3.org/2000/svg" width="64" height="64" viewBox="0 0 64 64">
  <g fill="none" fill-rule="evenodd" transform="translate(0 1)">
    <path stroke="#31293E" stroke-width="3" d="M38.2502153,40.1 L52,40.1 C54.0583068,40.1 55.9341331,39.643357 57.5204284,38.7829978 C59.0566505,37.9497969 60.2956657,36.7511217 61.1532845,35.2711674 C62.0336379,33.7519811 62.5,31.958946 62.5,29.9906977 C62.5,28.0224494 62.0336379,26.2294143 61.1532845,24.7102279 C60.2968574,23.2323301 59.0600852,22.0349166 57.5267889,21.2018503 L56.449684,20.6166406 L56.8086534,19.4445628 C57.1993951,18.168745 57.4,16.8376574 57.4,15.4790698 C57.4,7.76995625 50.9190356,1.5 42.9,1.5 C37.0063913,1.5 31.7756056,4.9195295 29.5306114,10.0573968 L28.6373184,12.1017768 L27.0812049,10.5030357 C25.1086073,8.47640162 22.3638441,7.30465116 19.4181818,7.30465116 C13.6082852,7.30465116 8.91818182,11.8420535 8.91818182,17.4139535 C8.91818182,17.9070474 8.95473428,18.395214 9.02701901,18.8761383 L9.21251466,20.1102767 L8.032697,20.5171386 C7.48835302,20.7048565 6.96958468,20.9326291 6.47957155,21.1983975 C4.94334955,22.0315984 3.70433427,23.2302737 2.8467155,24.7102279 C1.96636209,26.2294143 1.5,28.0224494 1.5,29.9906977 C1.5,31.958946 1.96636209,33.7519811 2.8467155,35.2711674 C3.70433427,36.7511217 4.94334955,37.9497969 6.47957155,38.7829978 C8.06586688,39.643357 9.94169324,40.1 12,40.1 L29.0460131,40.1 L40.9081602,24.6792088 L38.2502153,40.1 Z"/>
    <polyline stroke="#31293E" stroke-linecap="round" stroke-linejoin="round" stroke-width="3" points="32 44.508 27.595 51.29 33.945 51.29 27.034 61.526"/>
    <path fill="#31293E" d="M17.3856406 44C18.1509088 44.4418278 18.4131091 45.4203724 17.9712813 46.1856406L11.5712813 57.2707658C11.1294535 58.036034 10.1509088 58.2982343 9.38564065 57.8564065 8.62037245 57.4145787 8.3581722 56.436034 8.8 55.6707658L15.2 44.5856406C15.6418278 43.8203724 16.6203724 43.5581722 17.3856406 44L17.3856406 44zM50.9856406 44C51.7509088 44.4418278 52.0131091 45.4203724 51.5712813 46.1856406L48.3712813 51.7282032C47.9294535 52.4934714 46.9509088 52.7556717 46.1856406 52.3138439 45.4203724 51.8720161 45.1581722 50.8934714 45.6 50.1282032L48.8 44.5856406C49.2418278 43.8203724 50.2203724 43.5581722 50.9856406 44z"/>
  </g>
</svg>
