<?xml version="1.0" encoding="UTF-8"?>
<!-- Do not edit this file with editors other than draw.io -->
<!DOCTYPE svg PUBLIC "-//W3C//DTD SVG 1.1//EN" "http://www.w3.org/Graphics/SVG/1.1/DTD/svg11.dtd">
<svg xmlns="http://www.w3.org/2000/svg" xmlns:xlink="http://www.w3.org/1999/xlink" version="1.1" width="941px" height="801px" viewBox="-0.5 -0.5 941 801" content="&lt;mxfile host=&quot;Electron&quot; agent=&quot;Mozilla/5.0 (Windows NT 10.0; Win64; x64) AppleWebKit/537.36 (KHTML, like Gecko) draw.io/24.7.8 Chrome/128.0.6613.36 Electron/32.0.1 Safari/537.36&quot; version=&quot;24.7.8&quot; scale=&quot;1&quot; border=&quot;0&quot;&gt;&#10;  &lt;diagram name=&quot;Page-1&quot; id=&quot;2cc2dc42-3aac-f2a9-1cec-7a8b7cbee084&quot;&gt;&#10;    &lt;mxGraphModel dx=&quot;2442&quot; dy=&quot;2496&quot; grid=&quot;1&quot; gridSize=&quot;10&quot; guides=&quot;1&quot; tooltips=&quot;1&quot; connect=&quot;1&quot; arrows=&quot;1&quot; fold=&quot;1&quot; page=&quot;1&quot; pageScale=&quot;1&quot; pageWidth=&quot;1100&quot; pageHeight=&quot;850&quot; background=&quot;none&quot; math=&quot;0&quot; shadow=&quot;0&quot;&gt;&#10;      &lt;root&gt;&#10;        &lt;mxCell id=&quot;0&quot; /&gt;&#10;        &lt;mxCell id=&quot;1&quot; parent=&quot;0&quot; /&gt;&#10;        &lt;mxCell id=&quot;5sVzTksFhrKSf-6dXFPZ-1&quot; value=&quot;&quot; style=&quot;verticalLabelPosition=bottom;shadow=0;dashed=0;align=center;html=1;verticalAlign=top;strokeWidth=1;shape=mxgraph.mockup.misc.map;&quot; vertex=&quot;1&quot; parent=&quot;1&quot;&gt;&#10;          &lt;mxGeometry x=&quot;70&quot; y=&quot;-810&quot; width=&quot;940&quot; height=&quot;800&quot; as=&quot;geometry&quot; /&gt;&#10;        &lt;/mxCell&gt;&#10;        &lt;mxCell id=&quot;5sVzTksFhrKSf-6dXFPZ-2&quot; value=&quot;&quot; style=&quot;verticalLabelPosition=bottom;shadow=0;dashed=0;align=center;html=1;verticalAlign=top;strokeWidth=1;shape=mxgraph.mockup.navigation.mapNavigator;fillColor2=#99ddff;strokeColor2=none;strokeColor3=#ffffff;strokeColor=#999999;&quot; vertex=&quot;1&quot; parent=&quot;1&quot;&gt;&#10;          &lt;mxGeometry x=&quot;800&quot; y=&quot;-790&quot; width=&quot;190&quot; height=&quot;310&quot; as=&quot;geometry&quot; /&gt;&#10;        &lt;/mxCell&gt;&#10;      &lt;/root&gt;&#10;    &lt;/mxGraphModel&gt;&#10;  &lt;/diagram&gt;&#10;&lt;/mxfile&gt;&#10;" style="background-color: rgb(255, 255, 255);"><defs/><rect fill="#ffffff" width="100%" height="100%" x="0" y="0"/><g><g data-cell-id="0"><g data-cell-id="1"><g data-cell-id="5sVzTksFhrKSf-6dXFPZ-1"><g><rect x="0" y="0" width="936.25" height="796.81" fill="#ffffff" stroke="#000000" stroke-width="3.19" pointer-events="all"/><path d="M 56.18 0 L 48.06 13.28 L 22.47 0.53 Z" fill="#ffca8c" stroke="#d87146" stroke-width="3.19" stroke-miterlimit="10" pointer-events="all"/><path d="M 21.22 57.9 L 51.81 58.96 L 49.94 78.62 L 80.52 84.46 L 70.53 148.21 L 36.83 141.83 L 34.33 160.43 L 5 157.24 L 12.49 130.15 L 1.25 127.49 L 1.25 92.43 L 19.98 79.68 Z" fill="#d87146" stroke="#d87146" stroke-width="3.19" stroke-miterlimit="10" pointer-events="all"/><path d="M 81.77 38.25 L 71.78 29.22 L 87.39 1.59 L 147.31 0 Z" fill="#ffca8c" stroke="#d87146" stroke-width="3.19" stroke-miterlimit="10" pointer-events="all"/><path d="M 96.75 55.78 L 157.29 22.31 L 172.9 47.28 L 106.74 81.27 Z" fill="#ffca8c" stroke="#d87146" stroke-width="3.19" stroke-miterlimit="10" pointer-events="all"/><path d="M 204.73 57.37 L 226.58 88.18 L 105.49 142.36 L 111.73 129.08 L 112.98 104.65 Z" fill="#ffca8c" stroke="#d87146" stroke-width="3.19" stroke-miterlimit="10" pointer-events="all"/><path d="M 178.51 9.56 L 199.74 38.25 L 216.59 29.22 L 249.67 78.62 L 310.21 54.18 L 280.88 1.06 L 194.12 0.53 Z" fill="#ffca8c" stroke="#d87146" stroke-width="3.19" stroke-miterlimit="10" pointer-events="all"/><path d="M 335.8 46.75 L 310.21 0.53 L 380.74 0.53 L 426.94 22.84 L 378.87 61.09 Z" fill="#ffca8c" stroke="#d87146" stroke-width="3.19" stroke-miterlimit="10" pointer-events="all"/><path d="M 358.9 78.09 L 350.78 76.49 L 335.18 45.15 L 366.39 36.65 L 383.87 57.9 Z" fill="#ffca8c" stroke="#d87146" stroke-width="3.19" stroke-miterlimit="10" pointer-events="all"/><path d="M 453.77 9.03 L 443.16 1.06 L 461.89 0.53 Z" fill="#ffca8c" stroke="#d87146" stroke-width="3.19" stroke-miterlimit="10" pointer-events="all"/><path d="M 479.37 29.75 L 466.88 20.19 L 490.6 0.53 L 519.94 0.53 Z" fill="#ffca8c" stroke="#d87146" stroke-width="3.19" stroke-miterlimit="10" pointer-events="all"/><path d="M 591.09 16.47 L 571.12 0.53 L 608.57 1.06 Z" fill="#ffca8c" stroke="#d87146" stroke-width="3.19" stroke-miterlimit="10" pointer-events="all"/><path d="M 614.81 30.28 L 646.02 4.25 L 656 7.44 L 643.52 40.37 Z" fill="#ffca8c" stroke="#d87146" stroke-width="3.19" stroke-miterlimit="10" pointer-events="all"/><path d="M 549.27 86.59 L 603.57 43.56 L 641.02 60.03 L 611.06 131.21 Z" fill="#ffca8c" stroke="#d87146" stroke-width="3.19" stroke-miterlimit="10" pointer-events="all"/><path d="M 574.24 66.93 L 603.57 44.62 L 641.02 60.03 L 627.29 90.84 Z" fill="#d87146" stroke="#d87146" stroke-width="3.19" stroke-miterlimit="10" pointer-events="all"/><path d="M 664.74 52.59 L 675.98 22.84 L 717.18 43.03 L 679.72 75.43 Z" fill="#ffca8c" stroke="#d87146" stroke-width="3.19" stroke-miterlimit="10" pointer-events="all"/><path d="M 749.63 19.12 L 722.17 0 L 771.48 0 Z" fill="#ffca8c" stroke="#d87146" stroke-width="3.19" stroke-miterlimit="10" pointer-events="all"/><path d="M 775.22 20.19 L 794.57 5.31 L 846.38 34.53 L 824.53 50.47 Z" fill="#ffca8c" stroke="#d87146" stroke-width="3.19" stroke-miterlimit="10" pointer-events="all"/><path d="M 838.89 73.84 L 869.47 49.93 L 936.26 88.71 L 935.63 131.74 Z" fill="#ffca8c" stroke="#d87146" stroke-width="3.19" stroke-miterlimit="10" pointer-events="all"/><path d="M 868.22 19.66 L 833.89 1.06 L 875.09 0.53 L 882.58 6.37 Z" fill="#ffca8c" stroke="#d87146" stroke-width="3.19" stroke-miterlimit="10" pointer-events="all"/><path d="M 913.16 17.53 L 931.89 1.06 L 937.51 1.59 L 936.26 33.47 Z" fill="#ffca8c" stroke="#d87146" stroke-width="3.19" stroke-miterlimit="10" pointer-events="all"/><path d="M 690.33 91.9 L 758.99 31.87 L 810.18 61.62 L 710.93 130.68 Z" fill="#ffca8c" stroke="#d87146" stroke-width="3.19" stroke-miterlimit="10" pointer-events="all"/><path d="M 659.13 96.15 L 695.33 147.15 L 661 169.99 L 632.29 146.08 Z" fill="#ffca8c" stroke="#d87146" stroke-width="3.19" stroke-miterlimit="10" pointer-events="all"/><path d="M 765.86 123.24 L 813.92 88.71 L 852 111.55 L 827.65 156.18 Z" fill="#ffca8c" stroke="#d87146" stroke-width="3.19" stroke-miterlimit="10" pointer-events="all"/><path d="M 845.13 166.8 L 870.1 121.12 L 926.9 153.52 L 870.72 182.74 Z" fill="#ffca8c" stroke="#d87146" stroke-width="3.19" stroke-miterlimit="10" pointer-events="all"/><path d="M 893.19 193.36 L 936.88 169.99 L 935.63 217.27 Z" fill="#ffca8c" stroke="#d87146" stroke-width="3.19" stroke-miterlimit="10" pointer-events="all"/><path d="M 844.51 231.08 L 870.72 210.89 L 930.02 243.3 L 898.18 269.85 Z" fill="#ffca8c" stroke="#d87146" stroke-width="3.19" stroke-miterlimit="10" pointer-events="all"/><path d="M 745.26 191.24 L 760.86 151.39 L 852 199.2 L 797.69 227.89 Z" fill="#ffca8c" stroke="#d87146" stroke-width="3.19" stroke-miterlimit="10" pointer-events="all"/><path d="M 795.82 278.88 L 805.18 257.64 L 797.69 245.95 L 827.03 241.7 L 883.2 283.14 L 857.61 313.42 Z" fill="#ffca8c" stroke="#d87146" stroke-width="3.19" stroke-miterlimit="10" pointer-events="all"/><path d="M 710.31 167.86 L 742.14 138.65 L 748.38 141.83 L 746.51 150.87 L 729.03 181.67 Z" fill="#ffca8c" stroke="#d87146" stroke-width="3.19" stroke-miterlimit="10" pointer-events="all"/><path d="M 619.18 221.51 L 697.2 177.96 L 715.3 191.77 L 665.37 230.55 L 680.35 245.95 L 660.37 260.29 Z" fill="#ffca8c" stroke="#d87146" stroke-width="3.19" stroke-miterlimit="10" pointer-events="all"/><path d="M 686.59 233.73 L 718.42 203.98 L 745.26 222.58 L 713.43 253.39 Z" fill="#d87146" stroke="#d87146" stroke-width="3.19" stroke-miterlimit="10" pointer-events="all"/><path d="M 747.14 249.67 L 761.49 234.8 L 780.21 249.67 L 777.1 269.32 Z" fill="#ffca8c" stroke="#d87146" stroke-width="3.19" stroke-miterlimit="10" pointer-events="all"/><path d="M 737.15 313.94 L 677.85 273.57 L 694.7 262.42 L 714.68 276.76 L 730.28 265.07 L 769.61 285.79 Z" fill="#ffca8c" stroke="#d87146" stroke-width="3.19" stroke-miterlimit="10" pointer-events="all"/><path d="M 755.87 321.91 L 786.46 296.41 L 843.25 333.07 L 836.39 345.29 L 815.79 350.6 Z" fill="#ffca8c" stroke="#d87146" stroke-width="3.19" stroke-miterlimit="10" pointer-events="all"/><path d="M 927.52 282.6 L 903.18 313.42 L 936.88 328.29 L 937.51 286.85 Z" fill="#ffca8c" stroke="#d87146" stroke-width="3.19" stroke-miterlimit="10" pointer-events="all"/><path d="M 900.68 377.69 L 912.54 363.35 L 936.88 370.25 L 935.01 392.56 Z" fill="#ffca8c" stroke="#d87146" stroke-width="3.19" stroke-miterlimit="10" pointer-events="all"/><path d="M 875.09 429.75 L 888.2 397.35 L 926.27 409.03 L 905.05 435.59 Z" fill="#ffca8c" stroke="#d87146" stroke-width="3.19" stroke-miterlimit="10" pointer-events="all"/><path d="M 831.4 537.58 L 866.35 455.25 L 894.44 455.25 L 933.76 469.06 L 888.2 564.14 Z" fill="#ffca8c" stroke="#d87146" stroke-width="3.19" stroke-miterlimit="10" pointer-events="all"/><path d="M 908.17 573.71 L 921.28 545.55 L 936.26 549.27 L 936.26 586.45 Z" fill="#ffca8c" stroke="#d87146" stroke-width="3.19" stroke-miterlimit="10" pointer-events="all"/><path d="M 930.02 529.62 L 936.88 514.21 L 936.88 529.62 Z" fill="#ffca8c" stroke="#d87146" stroke-width="3.19" stroke-miterlimit="10" pointer-events="all"/><path d="M 801.44 615.67 L 825.16 563.08 L 936.26 612.48 L 935.63 674.1 Z" fill="#ffca8c" stroke="#d87146" stroke-width="3.19" stroke-miterlimit="10" pointer-events="all"/><path d="M 773.97 685.79 L 794.57 639.04 L 936.88 701.2 L 936.26 750.07 Z" fill="#ffca8c" stroke="#d87146" stroke-width="3.19" stroke-miterlimit="10" pointer-events="all"/><path d="M 758.37 732.54 L 767.73 711.29 L 937.51 775.03 L 937.51 784.06 L 925.02 788.84 Z" fill="#ffca8c" stroke="#d87146" stroke-width="3.19" stroke-miterlimit="10" pointer-events="all"/><path d="M 751.5 752.72 L 867.6 791.5 L 864.48 796.28 L 775.84 796.28 L 737.15 785.66 Z" fill="#ffca8c" stroke="#d87146" stroke-width="3.19" stroke-miterlimit="10" pointer-events="all"/><path d="M 671.61 789.91 L 666.62 798.41 L 576.11 796.28 L 589.84 763.35 Z" fill="#d87146" stroke="#d87146" stroke-width="3.19" stroke-miterlimit="10" pointer-events="all"/><path d="M 694.7 771.31 L 614.19 742.63 L 631.66 711.82 L 709.06 740.51 Z" fill="#ffca8c" stroke="#d87146" stroke-width="3.19" stroke-miterlimit="10" pointer-events="all"/><path d="M 715.92 718.73 L 650.39 692.17 L 664.74 669.85 L 725.91 692.7 Z" fill="#ffca8c" stroke="#d87146" stroke-width="3.19" stroke-miterlimit="10" pointer-events="all"/><path d="M 714.68 600.8 L 756.5 622.05 L 732.78 675.17 L 677.23 654.98 Z" fill="#ffca8c" stroke="#d87146" stroke-width="3.19" stroke-miterlimit="10" pointer-events="all"/><path d="M 740.89 589.64 L 770.23 537.58 L 788.33 547.68 L 764.61 601.33 Z" fill="#ffca8c" stroke="#d87146" stroke-width="3.19" stroke-miterlimit="10" pointer-events="all"/><path d="M 798.31 472.78 L 813.29 478.62 L 795.2 524.3 L 777.72 516.87 Z" fill="#ffca8c" stroke="#d87146" stroke-width="3.19" stroke-miterlimit="10" pointer-events="all"/><path d="M 774.6 405.31 L 793.95 371.31 L 847.63 389.91 L 835.14 422.31 Z" fill="#ffca8c" stroke="#d87146" stroke-width="3.19" stroke-miterlimit="10" pointer-events="all"/><path d="M 758.37 436.12 L 767.11 420.72 L 826.4 441.97 L 817.67 461.09 Z" fill="#ffca8c" stroke="#d87146" stroke-width="3.19" stroke-miterlimit="10" pointer-events="all"/><path d="M 749.01 452.59 L 763.99 458.96 L 744.01 498.28 L 726.54 491.37 Z" fill="#ffca8c" stroke="#d87146" stroke-width="3.19" stroke-miterlimit="10" pointer-events="all"/><path d="M 742.76 425.5 L 708.43 482.34 L 686.59 472.25 L 720.92 417.53 Z" fill="#ffca8c" stroke="#d87146" stroke-width="3.19" stroke-miterlimit="10" pointer-events="all"/><path d="M 773.97 367.07 L 749.63 409.03 L 729.66 401.59 L 751.5 360.16 Z" fill="#ffca8c" stroke="#d87146" stroke-width="3.19" stroke-miterlimit="10" pointer-events="all"/><path d="M 730.28 352.19 L 664.12 463.22 L 629.79 447.28 L 712.8 344.76 Z" fill="#ffca8c" stroke="#d87146" stroke-width="3.19" stroke-miterlimit="10" pointer-events="all"/><path d="M 606.7 436.12 L 588.59 427.62 L 672.86 333.07 L 687.21 337.32 Z" fill="#ffca8c" stroke="#d87146" stroke-width="3.19" stroke-miterlimit="10" pointer-events="all"/><path d="M 649.14 315.54 L 573.61 406.91 L 551.14 372.38 L 628.54 300.67 Z" fill="#ffca8c" stroke="#d87146" stroke-width="3.19" stroke-miterlimit="10" pointer-events="all"/><path d="M 607.94 286.32 L 531.8 357.5 L 513.07 364.41 L 466.26 373.44 L 459.39 359.63 L 482.49 349 L 480.61 338.38 L 582.98 264.01 Z" fill="#ffca8c" stroke="#d87146" stroke-width="3.19" stroke-miterlimit="10" pointer-events="all"/><path d="M 503.71 367.07 L 466.88 373.97 L 459.39 359.1 L 483.11 349 L 481.86 338.38 L 486.86 334.13 Z" fill="#d87146" stroke="#d87146" stroke-width="3.19" stroke-miterlimit="10" pointer-events="all"/><path d="M 475 394.69 L 527.43 384.6 L 553.02 429.75 L 499.96 448.87 Z" fill="#d87146" stroke="#d87146" stroke-width="3.19" stroke-miterlimit="10" pointer-events="all"/><path d="M 512.45 470.65 L 571.12 446.75 L 590.47 457.37 L 534.92 521.65 Z" fill="#ffca8c" stroke="#d87146" stroke-width="3.19" stroke-miterlimit="10" pointer-events="all"/><path d="M 544.28 550.87 L 614.19 466.4 L 652.26 482.87 L 568 602.39 Z" fill="#ffca8c" stroke="#d87146" stroke-width="3.19" stroke-miterlimit="10" pointer-events="all"/><path d="M 582.35 620.98 L 615.43 580.08 L 677.23 605.58 L 647.89 642.23 Z" fill="#ffca8c" stroke="#d87146" stroke-width="3.19" stroke-miterlimit="10" pointer-events="all"/><path d="M 627.92 565.21 L 674.73 498.28 L 730.9 520.59 L 690.96 589.11 Z" fill="#ffca8c" stroke="#d87146" stroke-width="3.19" stroke-miterlimit="10" pointer-events="all"/><path d="M 463.14 48.87 L 517.44 91.9 L 501.21 104.12 L 458.77 73.31 Z" fill="#ffca8c" stroke="#d87146" stroke-width="3.19" stroke-miterlimit="10" pointer-events="all"/><path d="M 534.92 108.37 L 635.41 186.45 L 611.06 198.14 L 521.81 122.18 Z" fill="#ffca8c" stroke="#d87146" stroke-width="3.19" stroke-miterlimit="10" pointer-events="all"/><path d="M 443.16 40.37 L 436.92 79.68 L 482.49 120.05 L 454.4 140.24 L 398.22 75.96 Z" fill="#ffca8c" stroke="#d87146" stroke-width="3.19" stroke-miterlimit="10" pointer-events="all"/><path d="M 502.46 136.52 L 597.96 215.14 L 549.27 251.26 L 472.5 163.61 Z" fill="#ffca8c" stroke="#d87146" stroke-width="3.19" stroke-miterlimit="10" pointer-events="all"/><path d="M 454.4 179.55 L 529.92 266.67 L 475 307.04 L 433.18 295.89 L 402.59 228.95 Z" fill="#ffca8c" stroke="#d87146" stroke-width="3.19" stroke-miterlimit="10" pointer-events="all"/><path d="M 458.77 317.66 L 437.55 312.35 L 432.55 293.76 L 456.27 281.54 L 476.87 306.51 Z" fill="#d87146" stroke="#d87146" stroke-width="3.19" stroke-miterlimit="10" pointer-events="all"/><path d="M 352.66 180.61 L 400.72 284.2 L 377.63 302.26 L 285.87 285.26 L 292.12 242.23 L 315.83 228.95 L 301.48 203.45 Z" fill="#ffca8c" stroke="#d87146" stroke-width="3.19" stroke-miterlimit="10" pointer-events="all"/><path d="M 399.47 278.88 L 406.34 293.23 L 405.71 310.76 L 377 302.26 L 372.01 301.73 L 378.87 277.82 Z" fill="#d87146" stroke="#d87146" stroke-width="3.19" stroke-miterlimit="10" pointer-events="all"/><path d="M 394.48 201.33 L 378.87 166.8 L 423.19 146.08 L 434.43 159.89 Z" fill="#ffca8c" stroke="#d87146" stroke-width="3.19" stroke-miterlimit="10" pointer-events="all"/><path d="M 373.25 146.08 L 355.78 112.62 L 380.74 96.15 L 406.96 127.49 Z" fill="#ffca8c" stroke="#d87146" stroke-width="3.19" stroke-miterlimit="10" pointer-events="all"/><path d="M 350.16 157.24 L 288.99 186.45 L 273.39 150.87 L 332.06 125.37 Z" fill="#ffca8c" stroke="#d87146" stroke-width="3.19" stroke-miterlimit="10" pointer-events="all"/><path d="M 328.31 105.18 L 265.9 133.86 L 249.05 105.71 L 314.59 77.03 Z" fill="#ffca8c" stroke="#d87146" stroke-width="3.19" stroke-miterlimit="10" pointer-events="all"/><path d="M 184.13 168.92 L 164.78 143.43 L 227.2 117.4 L 244.05 140.24 Z" fill="#ffca8c" stroke="#d87146" stroke-width="3.19" stroke-miterlimit="10" pointer-events="all"/><path d="M 233.44 166.27 L 250.92 192.3 L 217.84 207.7 L 199.74 196.55 L 201.61 179.55 Z" fill="#d87146" stroke="#d87146" stroke-width="3.19" stroke-miterlimit="10" pointer-events="all"/><path d="M 149.8 151.93 L 198.49 219.39 L 167.28 235.33 L 112.98 167.86 Z" fill="#ffca8c" stroke="#d87146" stroke-width="3.19" stroke-miterlimit="10" pointer-events="all"/><path d="M 178.51 248.08 L 210.35 230.01 L 271.52 241.17 L 259.03 283.14 L 212.22 290.04 Z" fill="#d87146" stroke="#d87146" stroke-width="3.19" stroke-miterlimit="10" pointer-events="all"/><path d="M 448.16 593.36 L 519.31 553.52 L 586.72 712.35 L 573.61 724.57 Z" fill="#ffca8c" stroke="#d87146" stroke-width="3.19" stroke-miterlimit="10" pointer-events="all"/><path d="M 418.82 582.74 L 528.67 690.57 L 493.72 686.85 L 400.1 595.49 Z" fill="#ffca8c" stroke="#d87146" stroke-width="3.19" stroke-miterlimit="10" pointer-events="all"/><path d="M 534.92 717.13 L 569.25 739.97 L 541.78 796.28 L 396.35 796.81 Z" fill="#ffca8c" stroke="#d87146" stroke-width="3.19" stroke-miterlimit="10" pointer-events="all"/><path d="M 62.42 694.82 L 137.94 765.47 L 94.88 797.88 L 27.47 796.81 L 30.59 717.13 Z" fill="#b2d8ad" stroke="#d87146" stroke-width="3.19" stroke-miterlimit="10" pointer-events="all"/><path d="M 0 741.04 L 36.2 712.88 L 86.14 759.1 L 34.96 797.35 L 0.63 798.41 Z" fill="#ffca8c" stroke="#d87146" stroke-width="3.19" stroke-miterlimit="10" pointer-events="all"/><path d="M 50.56 684.2 L 1.25 717.66 L 1.25 670.92 L 23.1 658.7 Z" fill="#b2d8ad" stroke="#d87146" stroke-width="3.19" stroke-miterlimit="10" pointer-events="all"/><path d="M 99.87 649.14 L 83.02 631.08 L 159.17 577.42 L 157.92 562.55 L 200.98 533.86 L 220.96 538.12 L 230.94 551.39 Z" fill="#b2d8ad" stroke="#d87146" stroke-width="3.19" stroke-miterlimit="10" pointer-events="all"/><path d="M 96.12 555.65 L 134.82 594.42 L 112.98 608.24 L 72.41 571.05 Z" fill="#d87146" stroke="#d87146" stroke-width="3.19" stroke-miterlimit="10" pointer-events="all"/><path d="M 124.21 537.58 L 45.57 591.24 L 0.63 541.83 L 72.41 488.18 Z" fill="#b2d8ad" stroke="#d87146" stroke-width="3.19" stroke-miterlimit="10" pointer-events="all"/><path d="M 234.69 509.96 L 257.16 495.09 L 281.5 517.93 L 247.18 540.24 L 234.07 529.08 Z" fill="#b2d8ad" stroke="#d87146" stroke-width="3.19" stroke-miterlimit="10" pointer-events="all"/><path d="M 93.63 178.49 L 190.37 303.32 L 173.52 316.07 L 199.74 345.82 L 190.37 352.19 L 113.6 260.83 L 126.08 253.92 L 91.76 209.83 L 58.67 227.89 L 81.77 264.01 L 68.04 270.92 L 44.94 246.48 L 50.56 216.73 L 83.02 199.74 Z" fill="#b2d8ad" stroke="#d87146" stroke-width="3.19" stroke-miterlimit="10" pointer-events="all"/><path d="M 83.64 222.58 L 105.49 247.01 L 92.38 255.51 L 73.65 228.42 Z" fill="#b2d8ad" stroke="#d87146" stroke-width="3.19" stroke-miterlimit="10" pointer-events="all"/><path d="M 66.16 291.1 L 101.12 269.85 L 156.67 333.6 L 141.06 342.63 L 94.25 295.89 L 78.02 302.79 Z" fill="#b2d8ad" stroke="#d87146" stroke-width="3.19" stroke-miterlimit="10" pointer-events="all"/><path d="M 79.9 391.5 L 73.65 387.25 L 79.9 358.04 L 123.59 360.16 Z" fill="#b2d8ad" stroke="#d87146" stroke-width="3.19" stroke-miterlimit="10" pointer-events="all"/><path d="M 64.29 386.72 L 55.55 387.78 L 34.96 361.22 L 63.04 362.29 Z" fill="#b2d8ad" stroke="#d87146" stroke-width="3.19" stroke-miterlimit="10" pointer-events="all"/><path d="M 21.22 373.97 L 48.69 394.16 L 41.82 402.13 L 16.86 390.44 Z" fill="#b2d8ad" stroke="#d87146" stroke-width="3.19" stroke-miterlimit="10" pointer-events="all"/><path d="M 27.47 345.82 L 33.08 302.26 L 53.68 302.26 L 64.29 313.94 L 59.3 347.94 Z" fill="#b2d8ad" stroke="#d87146" stroke-width="3.19" stroke-miterlimit="10" pointer-events="all"/><path d="M 39.33 260.29 L 56.8 276.23 L 38.08 282.6 Z" fill="#b2d8ad" stroke="#d87146" stroke-width="3.19" stroke-miterlimit="10" pointer-events="all"/><path d="M 14.98 294.82 L 1.25 346.88 L 2.5 293.23 Z" fill="#b2d8ad" stroke="#d87146" stroke-width="3.19" stroke-miterlimit="10" pointer-events="all"/><path d="M 182.26 366 L 88.01 426.03 L 94.88 433.47 L 187.88 375.57 Z" fill="#b2d8ad" stroke="#d87146" stroke-width="3.19" stroke-miterlimit="10" pointer-events="all"/><path d="M 75.53 434 L 79.9 438.78 L 34.33 469.06 L 31.84 464.28 Z" fill="#b2d8ad" stroke="#d87146" stroke-width="3.19" stroke-miterlimit="10" pointer-events="all"/><path d="M 149.18 427.62 C 149.18 427.62 204.11 387.78 204.11 387.78 C 204.11 387.78 260.28 439.31 260.28 439.31 C 260.28 439.31 203.48 483.4 203.48 483.4 C 203.48 483.4 192.25 475.43 192.25 475.43 C 192.25 475.43 159.17 440.37 159.17 440.37 C 159.17 440.37 148.55 428.16 148.55 428.16 Z" fill="#b2d8ad" stroke="#d87146" stroke-width="3.19" stroke-miterlimit="10" pointer-events="all"/><path d="M 137.32 437.19 C 137.32 437.19 148.55 449.93 148.55 449.93 C 148.55 449.93 175.39 486.06 175.39 486.06 C 175.39 486.06 186 496.68 186 496.68 C 186 496.68 134.2 534.4 134.2 534.4 C 134.2 534.4 80.52 477.56 80.52 477.56 C 80.52 477.56 138.57 437.19 138.57 437.19 Z" fill="#b2d8ad" stroke="#d87146" stroke-width="3.19" stroke-miterlimit="10" pointer-events="all"/><path d="M 15.61 407.44 C 15.61 407.44 22.47 410.09 22.47 410.09 C 22.47 410.09 43.69 438.78 43.69 439.31 C 43.69 439.84 2.5 468 2.5 468 C 2.5 468 1.25 418.59 1.25 418.59 C 1.25 418.59 15.61 407.97 15.61 407.97 Z" fill="#b2d8ad" stroke="#d87146" stroke-width="3.19" stroke-miterlimit="10" pointer-events="all"/><ellipse cx="63.98" cy="414.34" rx="12.171314741035856" ry="10.624701195219123" fill="#b2d8ad" stroke="#d87146" stroke-width="3.19" pointer-events="all"/><path d="M 89.26 398.94 L 166.66 349.54 L 175.39 360.69 L 99.25 410.63 Z" fill="#b2d8ad" stroke="#d87146" stroke-width="3.19" stroke-miterlimit="10" pointer-events="all"/><path d="M 16.86 281.01 L 24.97 252.86 C 22.45 245.34 18.24 240.51 13.59 239.78 C 8.94 239.05 4.38 242.51 1.25 249.14 L 1.25 278.88 L 16.23 281.54 Z" fill="#b2d8ad" stroke="#d87146" stroke-width="3.19" stroke-miterlimit="10" pointer-events="all"/><path d="M 2.5 209.3 L 41.2 215.14 L 34.96 242.23 C 28.15 232.2 15.49 226.1 1.88 226.29 L 1.88 208.24 Z" fill="#b2d8ad" stroke="#d87146" stroke-width="3.19" stroke-miterlimit="10" pointer-events="all"/><path d="M 234.69 313.94 C 261.87 308.13 290.24 307.59 317.71 312.35 C 341.79 314.71 365.11 321.02 386.36 330.95 C 388.26 353.8 408.95 372.29 435.67 375.03 L 479.37 458.44 L 433.8 474.9 L 458.77 529.08 L 503.08 515.27 L 519.94 554.58 L 459.39 586.99 L 418.2 548.21 L 214.72 713.42 L 157.92 661.89 L 206.6 621.51 C 235.33 629.43 266.83 621.89 286.5 602.39 L 274.64 594.42 L 297.11 579.02 L 304.6 585.93 C 326.93 570.47 336.88 545.48 330.19 521.65 L 276.51 480.21 L 310.21 451.53 L 225.95 366.53 L 256.54 339.97 L 234.69 313.95 Z" fill="#d87146" stroke="#d87146" stroke-width="3.19" stroke-miterlimit="10" pointer-events="all"/><path d="M 927.14 440.37 L 936.88 426.99 L 936.88 444.2 Z" fill="#ffca8c" stroke="#d87146" stroke-width="3.19" stroke-miterlimit="10" pointer-events="all"/><path d="M 317.45 662.21 C 317.45 662.21 378.12 614.4 378.12 614.4 C 378.12 614.4 409.58 638.62 409.58 638.62 C 409.58 638.62 336.93 669.85 336.93 669.85 C 336.93 669.85 317.45 662.84 317.45 662.84 Z" fill="#b2d8ad" stroke="#d87146" stroke-width="3.19" stroke-miterlimit="10" pointer-events="all"/><path d="M 306.22 670.49 L 330.19 676.87 C 315.91 689.26 315.91 709.1 330.19 721.49 L 305.47 726.59 L 271.02 701.09 L 306.22 670.49 Z" fill="#b2d8ad" stroke="#d87146" stroke-width="3.19" stroke-miterlimit="10" pointer-events="all"/><path d="M 266.52 703.64 C 294.9 737.83 339.99 750.2 380.37 734.87 L 386.36 745.71 C 366.2 767.36 338.61 773.9 313.71 762.92 L 321.95 751.45 L 283.75 741.89 L 259.03 710.01 L 266.52 703.64 Z" fill="#b2d8ad" stroke="#d87146" stroke-width="3.19" stroke-miterlimit="10" pointer-events="all"/><path d="M 250.79 715.11 C 250.79 715.11 274.76 742.52 274.76 742.52 C 274.76 742.52 265.77 752.72 265.77 752.72 C 265.77 752.72 297.98 771.85 297.98 771.85 C 297.98 771.85 288.24 782.05 288.24 782.05 C 288.24 782.05 215.59 745.07 215.59 745.07 C 215.59 745.07 250.04 714.48 250.04 714.48 Z" fill="#b2d8ad" stroke="#d87146" stroke-width="3.19" stroke-miterlimit="10" pointer-events="all"/><path d="M 307.72 771.85 C 307.72 771.85 330.19 776.31 330.19 776.31 C 330.19 776.31 328.69 795.43 328.69 795.43 C 328.69 795.43 285.25 797.98 285.25 797.98 C 285.25 797.98 307.72 772.48 307.72 772.48 Z" fill="#b2d8ad" stroke="#d87146" stroke-width="3.19" stroke-miterlimit="10" pointer-events="all"/><path d="M 420.82 651.37 C 420.82 651.37 433.55 661.57 433.55 661.57 C 433.55 661.57 390.11 720.85 390.11 720.85 C 390.11 720.85 348.16 710.65 348.16 710.65 C 348.16 710.65 362.39 671.77 362.39 671.77 C 362.39 671.77 420.82 651.37 420.82 651.37 Z" fill="#b2d8ad" stroke="#d87146" stroke-width="3.19" stroke-miterlimit="10" pointer-events="all"/><path d="M 444.78 674.95 C 444.78 674.95 459.02 689.62 459.02 689.62 C 459.02 689.62 396.1 744.44 396.1 744.44 C 396.1 744.44 391.61 734.87 391.61 734.87 C 391.61 734.87 444.04 674.95 444.04 674.95 Z" fill="#b2d8ad" stroke="#d87146" stroke-width="3.19" stroke-miterlimit="10" pointer-events="all"/><path d="M 471 695.35 L 502.46 706.83 L 359.4 797.35 L 338.43 796.71 L 340.67 778.22 C 358.62 778.05 375.9 772.39 389.36 762.29 C 421.33 744.6 449.04 721.88 471 695.35 Z" fill="#b2d8ad" stroke="#d87146" stroke-width="3.19" stroke-miterlimit="10" pointer-events="all"/><path d="M 420.69 391.5 L 448.16 428.16 L 430.06 447.28 L 392.61 414.87 Z" fill="#ffffff" stroke="#d87146" stroke-width="3.19" stroke-miterlimit="10" pointer-events="all"/><path d="M 259.03 355.38 L 296.48 327.23 L 348.29 372.38 L 307.1 404.78 Z" fill="#ffffff" stroke="#d87146" stroke-width="3.19" stroke-miterlimit="10" pointer-events="all"/><path d="M 370.14 426.56 L 401.97 453.12 L 378.87 473.31 L 348.91 443.03 Z" fill="#ffffff" stroke="#d87146" stroke-width="3.19" stroke-miterlimit="10" pointer-events="all"/><rect x="0.63" y="0.53" width="936.25" height="796.81" fill="none" stroke="#000000" stroke-width="6.37" pointer-events="all"/></g></g><g data-cell-id="5sVzTksFhrKSf-6dXFPZ-2"><g><ellipse cx="825" cy="113" rx="95" ry="93" fill="rgb(255, 255, 255)" stroke="#999999" pointer-events="all"/><path d="M 796.5 201.04 L 796.5 314.5 C 796.49 322.85 803.21 329.7 811.7 330 L 836.4 330 C 840.81 330.37 845.17 328.9 848.42 325.95 C 851.67 323 853.52 318.85 853.5 314.5 L 853.5 201.04" fill="rgb(255, 255, 255)" stroke="#999999" stroke-miterlimit="10" pointer-events="all"/><ellipse cx="825" cy="240.1" rx="19" ry="18.599999999999998" fill="#99ddff" stroke="none" pointer-events="all"/><ellipse cx="825" cy="302.1" rx="19" ry="18.599999999999998" fill="#99ddff" stroke="none" pointer-events="all"/><path d="M 764.31 125.4 L 755.78 133.46 L 734.33 113 L 755.78 92.54 L 764.31 100.6 L 751.7 113 Z" fill="#99ddff" stroke="none" pointer-events="all"/><path d="M 812.27 53.48 L 803.74 44.8 L 824.89 23.72 L 846.34 44.8 L 837.5 53.48 L 824.89 41.08 Z" fill="#99ddff" stroke="none" pointer-events="all"/><path d="M 885.76 101.22 L 894.92 92.23 L 915.74 113 L 894.92 133.77 L 885.76 125.71 L 898.4 113 Z" fill="#99ddff" stroke="none" pointer-events="all"/><path d="M 837.18 172.83 L 846.34 181.82 L 824.89 202.28 L 803.74 181.51 L 812.9 172.83 L 824.89 185.23 Z" fill="#99ddff" stroke="none" pointer-events="all"/><path d="M 793.33 119.2 L 793.33 106.8 L 809.1 113 Z M 818.58 82 L 831.19 82 L 824.89 97.5 Z M 856.43 106.8 L 856.43 119.2 L 840.66 113 Z M 831.19 144 L 818.58 144 L 824.89 128.5 Z" fill="#99ddff" stroke="none" pointer-events="all"/><path d="M 825 227.7 L 825 252.5 M 811.7 240.1 L 838.3 240.1 M 811.7 302.1 L 838.3 302.1" fill="none" stroke="#ffffff" stroke-width="2" stroke-miterlimit="10" pointer-events="all"/></g></g></g></g></g></svg>