<svg xmlns="http://www.w3.org/2000/svg" width="64" height="64" viewBox="0 0 64 64">
  <g fill="none" fill-rule="evenodd" transform="translate(0 8)">
    <path stroke="#4C6BFF" stroke-width="2.909" d="M10.2631229,27.2676096 L10.4063215,27.7332438 L10.2489588,27.7864772 C10.0164555,27.8561909 9.68730415,27.9531885 9.64588475,27.965909 C9.63375576,27.9696339 9.62252948,27.9731193 9.61229458,27.9763231 C9.61004205,27.9744063 9.60779009,27.9724888 9.6055387,27.9705705 C9.63992697,27.9536872 9.67858024,27.9320091 9.72662269,27.9010623 C9.84093584,27.826056 9.84093584,27.826056 10.0404259,27.6230752 C10.1564915,27.4690108 10.2219227,27.382158 10.2631229,27.2676096 Z M9.54512339,27.9978082 C9.54310704,27.9984669 9.54215237,27.9987768 9.54232476,27.9987072 C9.54351982,27.998224 9.54471626,27.9977381 9.54591437,27.9972492 Z M9.63379171,27.9945787 L9.38676691,28.0781433 C8.85437268,28.2582441 8.34707614,28.4767383 7.86800998,28.7316215 C6.36806926,29.5296526 5.15973145,30.676388 4.32442937,32.0903819 C3.46859595,33.5391312 3.01552106,35.2479087 3.01552106,37.1239099 C3.01552106,38.999911 3.46859595,40.7086885 4.32442937,42.1574378 C5.15973145,43.5714318 6.36806926,44.7181672 7.86800998,45.5161983 C9.41931077,46.3415551 11.2546314,46.7798295 13.2682927,46.7798295 L52.2926829,46.7798295 C54.3063442,46.7798295 56.1416648,46.3415551 57.6929656,45.5161983 C59.1929063,44.7181672 60.4012442,43.5714318 61.2365462,42.1574378 C62.0923797,40.7086885 62.5454545,38.999911 62.5454545,37.1239099 C62.5454545,35.2479087 62.0923797,33.5391312 61.2365462,32.0903819 C60.4024062,30.6783551 59.1962602,29.5328309 57.6991825,28.734932 L56.6357215,28.1681382 L56.9948644,27.0178249 C57.3748193,25.8008516 57.5698448,24.5314287 57.5698448,23.2358285 C57.5698448,15.8751454 51.2488695,9.87642045 43.4146341,9.87642045 C39.0649791,9.87642045 35.0528221,11.7392805 32.3919004,14.8540987 C32.5789107,15.754179 32.6740576,16.6760107 32.6740576,17.609375 C32.6740576,25.1845126 26.4256618,31.3139205 18.7317073,31.3139205 C15.3410935,31.3139205 12.1384934,30.117246 9.63379171,27.9945787 Z"/>
    <ellipse cx="18.732" cy="17.609" stroke="#FFB806" stroke-width="2.909" rx="7.911" ry="7.733"/>
    <path fill="#31293E" stroke="#FFB806" stroke-width="1.552" d="M13.5051232 1.20839128C13.0867725 1.31835334 12.8437936 1.731191 12.9524824 2.12909872L13.7605028 5.08724656C13.8707466 5.49084718 14.3028388 5.73556509 14.7267506 5.62414128 15.1451013 5.51417922 15.3880803 5.10134156 15.2793914 4.70343384L14.471371 1.745286C14.3611272 1.34168539 13.929035 1.09696747 13.5051232 1.20839128zM24.6859986 2.16776548C24.2883292 1.98586043 23.8163048 2.15439162 23.6348991 2.53600918L22.3155055 5.31157678C22.1379683 5.68505626 22.3029697 6.12976088 22.6926015 6.30798929 23.0902709 6.48989434 23.5622953 6.32136315 23.743701 5.93974559L25.0630946 3.16417799C25.2406318 2.7906985 25.0756304 2.34599388 24.6859986 2.16776548zM1.41932751 18.1270471C1.45620064 18.540483 1.83520014 18.8524454 2.27138688 18.8150107L5.38145813 18.5480962C5.81565865 18.510832 6.13077966 18.1424369 6.09408893 17.7310462 6.0572158 17.3176103 5.6782163 17.0056479 5.24202956 17.0430826L2.13195831 17.3099971C1.69775779 17.3472613 1.38263679 17.7156564 1.41932751 18.1270471zM4.31799368 7.51745048C4.07629297 7.85606153 4.15966377 8.31987695 4.50914337 8.55992523L7.06649609 10.3165031C7.42495264 10.5627174 7.92179636 10.4767787 8.16988953 10.1292121 8.41159023 9.79060109 8.32821943 9.32678567 7.97873983 9.08673739L5.42138711 7.33015955C5.06293057 7.08394525 4.56608685 7.16988391 4.31799368 7.51745048z"/>
  </g>
</svg>
