<svg xmlns="http://www.w3.org/2000/svg" width="64" height="64" viewBox="0 0 64 64">
  <g fill="none" fill-rule="evenodd" stroke-width="3" transform="translate(0 10)">
    <path stroke="#FFB806" stroke-linecap="round" stroke-linejoin="round" d="M7.5071241,13.9614274 C8.46326163,14.3049063 9.48063988,14.4830803 10.5257861,14.4830803 C15.3038909,14.4830803 19.1577358,10.7535999 19.1577358,6.17809114 C19.1577358,4.25367383 18.4769635,2.43198302 17.2449864,0.964439558 L13.6739626,-3.28939952 L18.9009605,-1.41167459 C23.4250951,0.213556675 26.5,4.417256 26.5,9.19501087 C26.5,15.4497941 21.2813881,20.5 14.8680503,20.5 C11.3305666,20.5 8.0472652,18.9535759 5.85114999,16.3375416 L2.28012622,12.0837025 L7.5071241,13.9614274 Z"/>
    <path stroke="#4C6BFF" d="M8.21918703,23.0225721 L8.21999622,23.0250056 C8.20394505,23.0303429 8.19891233,23.0321418 8.21918702,23.0225721 Z M7.57504374,23.2867721 C7.19592606,23.437336 6.83037977,23.6081297 6.47957155,23.7983975 C4.94334955,24.6315984 3.70433427,25.8302737 2.8467155,27.3102279 C1.96636209,28.8294143 1.5,30.6224494 1.5,32.5906977 C1.5,34.558946 1.96636209,36.3519811 2.8467155,37.8711674 C3.70433427,39.3511217 4.94334955,40.5497969 6.47957155,41.3829978 C8.06586688,42.243357 9.94169324,42.7 12,42.7 L52,42.7 C54.0583068,42.7 55.9341331,42.243357 57.5204284,41.3829978 C59.0566505,40.5497969 60.2956657,39.3511217 61.1532845,37.8711674 C62.0336379,36.3519811 62.5,34.558946 62.5,32.5906977 C62.5,30.6224494 62.0336379,28.8294143 61.1532845,27.3102279 C60.2968574,25.8323301 59.0600852,24.6349166 57.5267889,23.8018503 L56.449684,23.2166406 L56.8086534,22.0445628 C57.1993951,20.768745 57.4,19.4376574 57.4,18.0790698 C57.4,10.3699563 50.9190356,4.1 42.9,4.1 C38.5968206,4.1 34.6102476,5.91689834 31.8798744,8.99366155 C31.893277,9.26157243 31.9,9.5304094 31.9,9.8 C31.9,18.5813275 24.7813275,25.7 16,25.7 C12.9763924,25.7 10.0765314,24.8527699 7.57504374,23.2867721 Z"/>
  </g>
</svg>
