<svg xmlns="http://www.w3.org/2000/svg" width="64" height="64" viewBox="0 0 64 64">
  <g fill="none" fill-rule="evenodd" transform="translate(0 2)">
    <path stroke="#4C6BFF" stroke-width="2.909" d="M10.2656831,27.3805029 L10.4108629,27.8471076 L10.2536536,27.9009127 C10.0210959,27.9714616 9.69180798,28.069637 9.65045375,28.0824864 C9.63532446,28.0871873 9.62161061,28.0915077 9.60948828,28.0953636 C9.60758562,28.0937267 9.60568336,28.0920892 9.60378151,28.0904512 C9.64032072,28.0727353 9.68132447,28.0498024 9.73311714,28.0160486 C9.84753114,27.9400421 9.84753114,27.9400421 10.0457549,27.7359972 C10.1605327,27.5815924 10.2251128,27.494716 10.2656831,27.3805029 Z M9.63115308,28.1139644 L9.39166257,28.1959303 C8.85979574,28.3779625 8.35294585,28.5988243 7.87422987,28.8565079 C6.37415454,29.6639697 5.16482588,30.8251037 4.3281795,32.2579813 C3.47000635,33.7277266 3.01552106,35.461924 3.01552106,37.3655962 C3.01552106,39.2692683 3.47000635,41.0034657 4.3281795,42.473211 C5.16482588,43.9060886 6.37415454,45.0672227 7.87422987,45.8746844 C9.4240899,46.7089443 11.2571156,47.1518038 13.2682927,47.1518038 L52.2926829,47.1518038 C54.30386,47.1518038 56.1368857,46.7089443 57.6867457,45.8746844 C59.1868211,45.0672227 60.3961497,43.9060886 61.2327961,42.473211 C62.0909693,41.0034657 62.5454545,39.2692683 62.5454545,37.3655962 C62.5454545,35.461924 62.0909693,33.7277266 61.2327961,32.2579813 C60.3973128,30.8270957 59.1901751,29.6671854 57.692959,28.8598553 L56.6410366,28.2926368 L56.9934411,27.1506698 C57.3743195,25.9164333 57.5698448,24.6288326 57.5698448,23.3146549 C57.5698448,15.854048 51.2452775,9.78152958 43.4146341,9.78152958 C39.0645591,9.78152958 35.0509194,11.6688903 32.3895008,14.8264441 C32.5780997,15.7396492 32.6740576,16.6750559 32.6740576,17.6222222 C32.6740576,25.2728444 26.4294008,31.4704185 18.7317073,31.4704185 C15.3393335,31.4704185 12.1358263,30.2599727 9.63115308,28.1139644 Z"/>
    <path fill="#9FBFFD" d="M18.2009557 53.654891L18.2009557 53.654891C18.9426813 54.0798978 19.1994327 55.0257213 18.774426 55.7674469 18.7727447 55.7703811 18.7710539 55.7733097 18.7693534 55.7762328L16.2965613 60.0269418C16.1499714 60.2789287 15.9481676 60.4748066 15.7161422 60.6078791 15.4841168 60.7409517 15.2218699 60.8112188 14.9543937 60.811984 14.6869176 60.8127492 14.4142122 60.7440124 14.16127 60.5990772L14.16127 60.5990772C13.4195443 60.1740705 13.1627929 59.228247 13.5877997 58.4865213 13.5894809 58.4835872 13.5911718 58.4806585 13.5928723 58.4777355L16.0656643 54.2270264C16.2122542 53.9750396 16.4140581 53.7791616 16.6460835 53.6460891 16.8781088 53.5130166 17.1403558 53.4427495 17.4078319 53.4419843 17.6753081 53.4412191 17.9480135 53.5099558 18.2009557 53.654891zM33.8107118 53.654891L33.8107118 53.654891C34.5524374 54.0798978 34.8091888 55.0257213 34.3841821 55.7674469 34.3825008 55.7703811 34.38081 55.7733097 34.3791095 55.7762328L31.9063174 60.0269418C31.7597275 60.2789287 31.5579237 60.4748066 31.3258983 60.6078791 31.0938729 60.7409517 30.831626 60.8112188 30.5641498 60.811984 30.2966736 60.8127492 30.0239683 60.7440124 29.7710261 60.5990772L29.7710261 60.5990772C29.0293004 60.1740705 28.772549 59.228247 29.1975558 58.4865213 29.199237 58.4835872 29.2009279 58.4806585 29.2026284 58.4777355L31.6754204 54.2270264C31.8220103 53.9750396 32.0238142 53.7791616 32.2558396 53.6460891 32.4878649 53.5130166 32.7501119 53.4427495 33.017588 53.4419843 33.2850642 53.4412191 33.5577696 53.5099558 33.8107118 53.654891zM49.4204679 53.654891L49.4204679 53.654891C50.1621935 54.0798978 50.4189449 55.0257213 49.9939382 55.7674469 49.9922569 55.7703811 49.990566 55.7733097 49.9888656 55.7762328L47.5160735 60.0269418C47.3694836 60.2789287 47.1676798 60.4748066 46.9356544 60.6078791 46.703629 60.7409517 46.4413821 60.8112188 46.1739059 60.811984 45.9064297 60.8127492 45.6337244 60.7440124 45.3807822 60.5990772L45.3807822 60.5990772C44.6390565 60.1740705 44.3823051 59.228247 44.8073119 58.4865213 44.8089931 58.4835872 44.810684 58.4806585 44.8123845 58.4777355L47.2851765 54.2270264C47.4317664 53.9750396 47.6335703 53.7791616 47.8655957 53.6460891 48.097621 53.5130166 48.359868 53.4427495 48.6273441 53.4419843 48.8948203 53.4412191 49.1675257 53.5099558 49.4204679 53.654891z"/>
    <ellipse cx="18.732" cy="17.622" stroke="#FFB806" stroke-width="2.909" rx="7.911" ry="7.841"/>
    <path fill="#31293E" stroke="#FFB806" stroke-width="1.552" d="M13.6630693 1.0195414C13.2443972 1.13087844 12.9980105 1.55441526 13.1088673 1.96501945L13.9168878 4.9578563C14.0283454 5.37068543 14.4594989 5.61773519 14.8803755 5.50581191 15.2990476 5.39447488 15.5454344 4.97093806 15.4345775 4.56033387L14.6265571 1.56749702C14.5150995 1.15466788 14.083946.907618124 13.6630693 1.0195414zM24.8386643 1.98982716C24.4438017 1.80708794 23.9747133 1.97653485 23.7921775 2.36503276L22.4727839 5.17314831C22.2917476 5.55845476 22.45982 6.01674833 22.8515068 6.19801777 23.2463695 6.38075699 23.7154578 6.21131007 23.8979936 5.82281217L25.2173872 3.01469662C25.3984235 2.62939017 25.2303511 2.1710966 24.8386643 1.98982716z"/>
    <path fill="#31293E" stroke="#FFB806" stroke-width="1.552" d="M1.6025637,17.5357448 C1.52881193,17.9556311 1.81404454,18.3597737 2.2426813,18.4356433 L5.31667209,18.9797461 C5.74452928,19.0554777 6.14881056,18.7746378 6.22242378,18.3555403 C6.29617555,17.9356539 6.01094295,17.5315113 5.58230618,17.4556417 L2.50831539,16.911539 C2.0804582,16.8358074 1.67617692,17.1166473 1.6025637,17.5357448 Z" transform="rotate(-15 3.912 17.946)"/>
    <path fill="#31293E" stroke="#FFB806" stroke-width="1.552" d="M4.47624951,7.40318764 C4.23026312,7.75184389 4.31544085,8.23126858 4.66840868,8.47655588 L7.22576141,10.2537324 C7.58226064,10.5014738 8.07472918,10.415293 8.32320473,10.0631087 C8.56919112,9.71445242 8.48401339,9.23502773 8.13104556,8.98974042 L5.57369283,7.21256391 C5.2171936,6.96482254 4.72472506,7.05100332 4.47624951,7.40318764 Z"/>
  </g>
</svg>
