<svg xmlns="http://www.w3.org/2000/svg" width="64" height="64" viewBox="0 0 64 64">
  <path fill="none" stroke="#4C6BFF" stroke-width="3" d="M57.5214901,21.3901481 L56.4540701,20.804624 L56.8074862,19.6395828 C57.1989861,18.3489981 57.4,17.0023715 57.4,15.627907 C57.4,7.83328185 50.9159257,1.5 42.9,1.5 C37.0098581,1.5 31.7794728,4.95214532 29.5327049,10.1435136 L28.6385978,12.2094319 L27.0762138,10.5888141 C25.1035641,8.54263908 22.3607575,7.36046512 19.4181818,7.36046512 C13.6113951,7.36046512 8.91818182,11.9445339 8.91818182,17.5813953 C8.91818182,18.0806545 8.9548392,18.5749296 9.02732972,19.0618605 L9.21028379,20.2907934 L8.03689287,20.6993298 C7.49299102,20.8886987 6.97459366,21.118497 6.4848675,21.3866638 C4.94848526,22.2279639 3.70858609,23.4390283 2.84981906,24.9352134 C1.96752165,26.4723942 1.5,28.2871711 1.5,30.2790698 C1.5,32.2709684 1.96752165,34.0857453 2.84981906,35.6229262 C3.70858609,37.1191113 4.94848526,38.3301756 6.4848675,39.1714758 C8.06995734,40.0394475 9.94382528,40.5 12,40.5 L52,40.5 C54.0561747,40.5 55.9300427,40.0394475 57.5151325,39.1714758 C59.0515147,38.3301756 60.2914139,37.1191113 61.1501809,35.6229262 C62.0324783,34.0857453 62.5,32.2709684 62.5,30.2790698 C62.5,28.2871711 62.0324783,26.4723942 61.1501809,24.9352134 C60.2926065,23.4411061 59.0549498,22.2313144 57.5214901,21.3901481 Z" transform="translate(0 11)"/>
</svg>
