<svg xmlns="http://www.w3.org/2000/svg" width="64" height="64" viewBox="0 0 64 64">
  <g fill="none" fill-rule="evenodd" transform="translate(0 1)">
    <path stroke="#4C6BFF" stroke-width="3" d="M57.5303409,21.0763135 L56.4467033,20.4913286 L56.8094489,19.3145136 C57.1996741,18.0485496 57.4,16.7278338 57.4,15.379845 C57.4,7.72777483 50.9211052,1.5 42.9,1.5 C37.0040733,1.5 31.7729896,4.89780304 29.5291874,10.0000248 L28.6364511,12.0300337 L27.0845736,10.4458651 C25.1119962,8.43224288 22.3659086,7.26744186 19.4181818,7.26744186 C13.6062156,7.26744186 8.91818182,11.7737689 8.91818182,17.3023256 C8.91818182,17.7913019 8.95466266,18.2753889 9.02680695,18.7523019 L9.21402862,19.9899391 L8.02989258,20.3956726 C7.48525018,20.5822894 6.96623038,20.8087116 6.47602157,21.0728818 C4.93989352,21.9006911 3.70145899,23.0911243 2.84460893,24.5602736 C1.96557275,26.0674631 1.5,27.845989 1.5,29.7984496 C1.5,31.7509102 1.96557275,33.5294362 2.84460893,35.0366256 C3.70145899,36.505775 4.93989352,37.6962082 6.47602157,38.5240174 C8.06313128,39.3793003 9.94026913,39.8333333 12,39.8333333 L52,39.8333333 C54.0597309,39.8333333 55.9368687,39.3793003 57.5239784,38.5240174 C59.0601065,37.6962082 60.298541,36.505775 61.1553911,35.0366256 C62.0344272,33.5294362 62.5,31.7509102 62.5,29.7984496 C62.5,27.845989 62.0344272,26.0674631 61.1553911,24.5602736 C60.2997321,23.0931665 59.0635411,21.9039878 57.5303409,21.0763135 Z"/>
    <path fill="#9FBFFD" d="M19.1263185 46.9253911L19.1263185 46.9253911C19.8873365 47.3619486 20.1503638 48.3327753 19.7138063 49.0937933 19.7123389 49.0963514 19.7108643 49.0989054 19.7093827 49.1014552L13.0331799 60.5908525C12.8843978 60.8468988 12.6772921 61.0465122 12.4387355 61.1824924 12.2001788 61.3184727 11.9301711 61.3908197 11.6555848 61.3923333 11.3809985 61.3938468 11.1018337 61.3245268 10.8449628 61.177173L10.8449628 61.177173C10.0839448 60.7406155 9.82091752 59.7697888 10.257475 59.0087708 10.2589424 59.0062127 10.260417 59.0036587 10.2618986 59.0011089L16.9381014 47.5117116C17.0868835 47.2556653 17.2939891 47.0560519 17.5325458 46.9200717 17.7711025 46.7840914 18.0411102 46.7117444 18.3156965 46.7102309 18.5902828 46.7087173 18.8694476 46.7780373 19.1263185 46.9253911zM35.1263185 46.9253911L35.1263185 46.9253911C35.8873365 47.3619486 36.1503638 48.3327753 35.7138063 49.0937933 35.7123389 49.0963514 35.7108643 49.0989054 35.7093827 49.1014552L29.0331799 60.5908525C28.8843978 60.8468988 28.6772921 61.0465122 28.4387355 61.1824924 28.2001788 61.3184727 27.9301711 61.3908197 27.6555848 61.3923333 27.3809985 61.3938468 27.1018337 61.3245268 26.8449628 61.177173L26.8449628 61.177173C26.0839448 60.7406155 25.8209175 59.7697888 26.257475 59.0087708 26.2589424 59.0062127 26.260417 59.0036587 26.2618986 59.0011089L32.9381014 47.5117116C33.0868835 47.2556653 33.2939891 47.0560519 33.5325458 46.9200717 33.7711025 46.7840914 34.0411102 46.7117444 34.3156965 46.7102309 34.5902828 46.7087173 34.8694476 46.7780373 35.1263185 46.9253911zM51.1263185 46.9253911L51.1263185 46.9253911C51.8873365 47.3619486 52.1503638 48.3327753 51.7138063 49.0937933 51.7123389 49.0963514 51.7108643 49.0989054 51.7093827 49.1014552L45.0331799 60.5908525C44.8843978 60.8468988 44.6772921 61.0465122 44.4387355 61.1824924 44.2001788 61.3184727 43.9301711 61.3908197 43.6555848 61.3923333 43.3809985 61.3938468 43.1018337 61.3245268 42.8449628 61.177173L42.8449628 61.177173C42.0839448 60.7406155 41.8209175 59.7697888 42.257475 59.0087708 42.2589424 59.0062127 42.260417 59.0036587 42.2618986 59.0011089L48.9381014 47.5117116C49.0868835 47.2556653 49.2939891 47.0560519 49.5325458 46.9200717 49.7711025 46.7840914 50.0411102 46.7117444 50.3156965 46.7102309 50.5902828 46.7087173 50.8694476 46.7780373 51.1263185 46.9253911z"/>
  </g>
</svg>
