<svg xmlns="http://www.w3.org/2000/svg" width="64" height="64" viewBox="0 0 64 64">
  <defs>
    <linearGradient id="icon5-a" x1="50%" x2="50%" y1="0%" y2="98.382%">
      <stop offset="0%" stop-color="#689CFF"/>
      <stop offset="100%" stop-color="#37A7F4"/>
    </linearGradient>
    <linearGradient id="icon5-b" x1="50%" x2="50%" y1="0%" y2="100%">
      <stop offset="0%" stop-color="#FFC31F"/>
      <stop offset="100%" stop-color="#FFB500"/>
    </linearGradient>
    <linearGradient id="icon5-c" x1="50%" x2="50%" y1="0%" y2="100%">
      <stop offset="0%" stop-color="#FFC31F"/>
      <stop offset="100%" stop-color="#FFB500"/>
    </linearGradient>
    <linearGradient id="icon5-d" x1="50%" x2="50%" y1="0%" y2="100%">
      <stop offset="0%" stop-color="#FFC31F"/>
      <stop offset="100%" stop-color="#FFB500"/>
    </linearGradient>
    <linearGradient id="icon5-e" x1="50%" x2="50%" y1="0%" y2="100%">
      <stop offset="0%" stop-color="#FFC31F"/>
      <stop offset="100%" stop-color="#FFB500"/>
    </linearGradient>
    <linearGradient id="icon5-f" x1="50%" x2="50%" y1="0%" y2="100%">
      <stop offset="0%" stop-color="#FFC31F"/>
      <stop offset="100%" stop-color="#FFB500"/>
    </linearGradient>
  </defs>
  <g fill="none" fill-rule="evenodd" transform="translate(0 1)">
    <path fill="url(#icon5-a)" d="M9.98034055,27.4457258 C12.2336845,29.6440374 15.3232236,31 18.7317073,31 C25.6285315,31 31.2195122,25.4483309 31.2195122,18.6 C31.2195122,17.5099588 31.0778662,16.4527682 30.811854,15.4455865 C33.6518587,11.7196382 38.2391003,9.3 43.4146341,9.3 C52.0356644,9.3 59.0243902,16.0136464 59.0243902,24.2953488 C59.0243902,25.7777991 58.8004568,27.2100056 58.3833123,28.562455 C60.1144455,29.4963963 61.5178777,30.845593 62.488896,32.509454 C63.4612502,34.1756039 64,36.1572843 64,38.3534884 C64,40.5496924 63.4612502,42.5313729 62.488896,44.1975227 C61.5165419,45.8636726 60.1105834,47.2142919 58.376166,48.1483738 C56.6417487,49.0824556 54.5788725,49.6 52.2926829,49.6 L13.2682927,49.6 C10.9821031,49.6 8.91922693,49.0824556 7.18480958,48.1483738 C5.45039224,47.2142919 4.04443374,45.8636726 3.07207959,44.1975227 C2.09972543,42.5313729 1.56097561,40.5496924 1.56097561,38.3534884 C1.56097561,36.1572843 2.09972543,34.1756039 3.07207959,32.509454 C4.04443374,30.8433041 5.45039224,29.4926848 7.18480958,28.558603 C7.73185237,28.2639895 8.31157022,28.0108131 8.92066404,27.8022431 C8.91286861,27.7507432 9.3704216,27.6355939 9.98034055,27.4457258 L9.98034055,27.4457258 Z"/>
    <path fill="#B6B3BB" d="M18.2009557 54.6511282L18.2009557 54.6511282C18.9430104 55.0765413 19.1996991 56.022961 18.774286 56.7650157 18.772717 56.7677525 18.7711397 56.7704845 18.769554 56.7732117L16.2963607 61.0267883C16.1498879 61.2787029 15.9480996 61.4745495 15.7160582 61.6076128 15.4840167 61.7406762 15.2217221 61.8109563 14.9542367 61.8117379 14.6867512 61.8125195 14.4140749 61.7438026 14.16127 61.5988718L14.16127 61.5988718C13.4192153 61.1734587 13.1625265 60.227039 13.5879396 59.4849843 13.5895086 59.4822475 13.591086 59.4795155 13.5926717 59.4767883L16.0658649 55.2232117C16.2123377 54.9712971 16.414126 54.7754505 16.6461675 54.6423872 16.8782089 54.5093238 17.1405035 54.4390437 17.407989 54.4382621 17.6754744 54.4374805 17.9481508 54.5061974 18.2009557 54.6511282zM33.8107118 54.6511282L33.8107118 54.6511282C34.5527665 55.0765413 34.8094552 56.022961 34.3840421 56.7650157 34.3824731 56.7677525 34.3808958 56.7704845 34.3793101 56.7732117L31.9061168 61.0267883C31.759644 61.2787029 31.5578557 61.4745495 31.3258143 61.6076128 31.0937728 61.7406762 30.8314782 61.8109563 30.5639928 61.8117379 30.2965073 61.8125195 30.023831 61.7438026 29.7710261 61.5988718L29.7710261 61.5988718C29.0289713 61.1734587 28.7722826 60.227039 29.1976957 59.4849843 29.1992647 59.4822475 29.2008421 59.4795155 29.2024278 59.4767883L31.675621 55.2232117C31.8220938 54.9712971 32.0238821 54.7754505 32.2559236 54.6423872 32.487965 54.5093238 32.7502596 54.4390437 33.0177451 54.4382621 33.2852305 54.4374805 33.5579069 54.5061974 33.8107118 54.6511282zM49.4204679 54.6511282L49.4204679 54.6511282C50.1625226 55.0765413 50.4192113 56.022961 49.9937982 56.7650157 49.9922292 56.7677525 49.9906519 56.7704845 49.9890662 56.7732117L47.5158729 61.0267883C47.3694001 61.2787029 47.1676118 61.4745495 46.9355704 61.6076128 46.7035289 61.7406762 46.4412343 61.8109563 46.1737489 61.8117379 45.9062634 61.8125195 45.6335871 61.7438026 45.3807822 61.5988718L45.3807822 61.5988718C44.6387274 61.1734587 44.3820387 60.227039 44.8074518 59.4849843 44.8090208 59.4822475 44.8105982 59.4795155 44.8121839 59.4767883L47.2853771 55.2232117C47.4318499 54.9712971 47.6336382 54.7754505 47.8656797 54.6423872 48.0977211 54.5093238 48.3600157 54.4390437 48.6275012 54.4382621 48.8949866 54.4374805 49.167663 54.5061974 49.4204679 54.6511282z"/>
    <ellipse cx="18.732" cy="18.6" fill="url(#icon5-b)" rx="9.366" ry="9.3"/>
    <path fill="url(#icon5-c)" d="M14.2662346,1.13162766 C15.1279316,1.13314308 15.8277035,1.82865937 15.8292189,2.68510679 L15.8347067,5.78657724 C15.8362221,6.64302466 15.1389072,7.33608398 14.2772102,7.33456857 C13.4155133,7.33305315 12.7157414,6.63753685 12.7142259,5.78108944 L12.7087381,2.67961898 C12.7072227,1.82317157 13.4045377,1.13011224 14.2662346,1.13162766 Z" transform="rotate(-15 14.272 4.233)"/>
    <path fill="url(#icon5-d)" d="M25.846688,2.69243305 C26.5077603,3.24410771 26.5955913,4.22239405 26.042864,4.87749674 L24.0412616,7.24983346 C23.4885343,7.90493615 22.5045554,7.98878114 21.8434831,7.43710647 C21.1824108,6.88543181 21.0945798,5.90714547 21.6473071,5.25204278 L23.6489096,2.87970606 C24.2016368,2.22460337 25.1856158,2.14075838 25.846688,2.69243305 Z" transform="rotate(-15 23.845 5.065)"/>
    <path fill="url(#icon5-e)" d="M0.838467141,18.3796169 C0.986606857,17.536444 1.79484212,16.9746889 2.64371112,17.1249018 L5.71773772,17.668871 C6.56660673,17.8190839 7.13466006,18.6243822 6.98652034,19.4675551 C6.83838062,20.310728 6.03014536,20.8724831 5.18127636,20.7222702 L2.10724976,20.178301 C1.25838075,20.0280881 0.690327425,19.2227898 0.838467141,18.3796169 L0.838467141,18.3796169 Z" transform="rotate(-15 3.912 18.924)"/>
    <path fill="url(#icon5-f)" d="M4.38971685,7.3269804 C5.04884093,6.77762749 6.0331227,6.86493394 6.58817171,7.52198481 L8.59818199,9.90137651 C9.153231,10.5584274 9.06886148,11.5364109 8.4097374,12.0857638 C7.75061331,12.6351167 6.76633154,12.5478103 6.21128253,11.8907594 L4.20127225,9.51136769 C3.64622324,8.85431682 3.73059276,7.87633332 4.38971685,7.3269804 Z" transform="rotate(-15 6.4 9.706)"/>
  </g>
</svg>
