<svg xmlns="http://www.w3.org/2000/svg" width="64" height="64" viewBox="0 0 64 64">
  <path fill="#31293E" fill-rule="evenodd" d="M58.2428951 19.7563641C60.0173066 20.7142526 61.4558246 22.0980442 62.4511184 23.8045682 63.4477814 25.5134399 64 27.5459326 64 29.7984496 64 32.0509666 63.4477814 34.0834594 62.4511184 35.792331 61.4544554 37.5012027 60.013348 38.8864533 58.2355702 39.8444859 56.4577924 40.8025186 54.3433443 41.3333333 52 41.3333333L12 41.3333333C9.6566557 41.3333333 7.5422076 40.8025186 5.76442982 39.8444859 3.98665204 38.8864533 2.54554459 37.5012027 1.54888158 35.792331.552218566 34.0834594 0 32.0509666 0 29.7984496 0 27.5459326.552218566 25.5134399 1.54888158 23.8045682 2.54554459 22.0956965 3.98665204 20.710446 5.76442982 19.7524133 6.32514868 19.4502456 6.91935948 19.1905775 7.54368064 18.9766596 7.46099103 18.4300362 7.41818182 17.8709864 7.41818182 17.3023256 7.41818182 10.9317852 12.7907648 5.76744186 19.4181818 5.76744186 22.862369 5.76744186 25.9676564 7.16220351 28.1560983 9.39618189 30.584323 3.87459853 36.2714358 0 42.9 0 51.736556 0 58.9 6.88579113 58.9 15.379845 58.9 16.9003068 58.6704682 18.3692365 58.2428951 19.7563641L58.2428951 19.7563641zM19.1263185 46.9253911L19.1263185 46.9253911C19.8873365 47.3619486 20.1503638 48.3327753 19.7138063 49.0937933 19.7123389 49.0963514 19.7108643 49.0989054 19.7093827 49.1014552L13.0331799 60.5908525C12.8843978 60.8468988 12.6772921 61.0465122 12.4387355 61.1824924 12.2001788 61.3184727 11.9301711 61.3908197 11.6555848 61.3923333 11.3809985 61.3938468 11.1018337 61.3245268 10.8449628 61.177173L10.8449628 61.177173C10.0839448 60.7406155 9.82091752 59.7697888 10.257475 59.0087708 10.2589424 59.0062127 10.260417 59.0036587 10.2618986 59.0011089L16.9381014 47.5117116C17.0868835 47.2556653 17.2939891 47.0560519 17.5325458 46.9200717 17.7711025 46.7840914 18.0411102 46.7117444 18.3156965 46.7102309 18.5902828 46.7087173 18.8694476 46.7780373 19.1263185 46.9253911zM35.1263185 46.9253911L35.1263185 46.9253911C35.8873365 47.3619486 36.1503638 48.3327753 35.7138063 49.0937933 35.7123389 49.0963514 35.7108643 49.0989054 35.7093827 49.1014552L29.0331799 60.5908525C28.8843978 60.8468988 28.6772921 61.0465122 28.4387355 61.1824924 28.2001788 61.3184727 27.9301711 61.3908197 27.6555848 61.3923333 27.3809985 61.3938468 27.1018337 61.3245268 26.8449628 61.177173L26.8449628 61.177173C26.0839448 60.7406155 25.8209175 59.7697888 26.257475 59.0087708 26.2589424 59.0062127 26.260417 59.0036587 26.2618986 59.0011089L32.9381014 47.5117116C33.0868835 47.2556653 33.2939891 47.0560519 33.5325458 46.9200717 33.7711025 46.7840914 34.0411102 46.7117444 34.3156965 46.7102309 34.5902828 46.7087173 34.8694476 46.7780373 35.1263185 46.9253911zM51.1263185 46.9253911L51.1263185 46.9253911C51.8873365 47.3619486 52.1503638 48.3327753 51.7138063 49.0937933 51.7123389 49.0963514 51.7108643 49.0989054 51.7093827 49.1014552L45.0331799 60.5908525C44.8843978 60.8468988 44.6772921 61.0465122 44.4387355 61.1824924 44.2001788 61.3184727 43.9301711 61.3908197 43.6555848 61.3923333 43.3809985 61.3938468 43.1018337 61.3245268 42.8449628 61.177173L42.8449628 61.177173C42.0839448 60.7406155 41.8209175 59.7697888 42.257475 59.0087708 42.2589424 59.0062127 42.260417 59.0036587 42.2618986 59.0011089L48.9381014 47.5117116C49.0868835 47.2556653 49.2939891 47.0560519 49.5325458 46.9200717 49.7711025 46.7840914 50.0411102 46.7117444 50.3156965 46.7102309 50.5902828 46.7087173 50.8694476 46.7780373 51.1263185 46.9253911z" transform="translate(0 1)"/>
</svg>
