<svg xmlns="http://www.w3.org/2000/svg" width="64" height="64" viewBox="0 0 64 64">
  <g fill="none" fill-rule="evenodd" transform="translate(2 2)">
    <path stroke="#31293E" stroke-linecap="round" stroke-linejoin="round" stroke-width="2.813" d="M29.4375,34.1464436 C27.727002,32.7668647 24.6138022,31.9409282 22.2451946,31.9409282 C19.1130662,31.9409282 16.3182583,33.3851687 14.4903892,35.6440313 C12.6625201,33.3851687 9.86771213,31.9409282 6.73558377,31.9409282 C4.1389763,31.9409282 1.7742023,32.9335253 0,34.5599814 C4.01759004,21.4413547 15.3790254,12 30,12 C44.6209746,12 55.98241,21.4413547 60,34.5599814 C58.2257977,32.9335253 55.8610237,31.9409282 53.2644162,31.9409282 C50.1322879,31.9409282 47.3374799,33.3851687 45.5096108,35.6440313 C43.6817417,33.3851687 40.8869338,31.9409282 37.7548054,31.9409282 C35.3861978,31.9409282 31.147998,32.7668647 29.4375,34.1464436 L29.625,52.5 C29.625,56.6421356 26.2671356,60 22.125,60 C17.9828644,60 15.4449134,56.6421356 15.4449134,52.5"/>
    <path fill="#31293E" d="M17.4899809.388188549C18.2074198.802402112 18.4532325 1.71978772 18.039019 2.43722665L15.6571335 6.56277335C15.2429199 7.28021228 14.3255343 7.52602501 13.6080954 7.11181145 12.8906564 6.69759789 12.6448437 5.78021228 13.0590573 5.06277335L15.4409427.937226655C15.8551563.21978772 16.7725419-.0260250132 17.4899809.388188549zM32.4899809.388188549C33.2074198.802402112 33.4532325 1.71978772 33.039019 2.43722665L30.6571335 6.56277335C30.2429199 7.28021228 29.3255343 7.52602501 28.6080954 7.11181145 27.8906564 6.69759789 27.6448437 5.78021228 28.0590573 5.06277335L30.4409427.937226655C30.8551563.21978772 31.7725419-.0260250132 32.4899809.388188549zM47.4899809.388188549C48.2074198.802402112 48.4532325 1.71978772 48.039019 2.43722665L45.6571335 6.56277335C45.2429199 7.28021228 44.3255343 7.52602501 43.6080954 7.11181145 42.8906564 6.69759789 42.6448437 5.78021228 43.0590573 5.06277335L45.4409427.937226655C45.8551563.21978772 46.7725419-.0260250132 47.4899809.388188549z"/>
  </g>
</svg>
