<?xml version="1.0" encoding="UTF-8"?>
<!-- Do not edit this file with editors other than draw.io -->
<!DOCTYPE svg PUBLIC "-//W3C//DTD SVG 1.1//EN" "http://www.w3.org/Graphics/SVG/1.1/DTD/svg11.dtd">
<svg xmlns="http://www.w3.org/2000/svg" xmlns:xlink="http://www.w3.org/1999/xlink" version="1.1" width="481px" height="481px" viewBox="-0.5 -0.5 481 481" content="&lt;mxfile host=&quot;Electron&quot; agent=&quot;Mozilla/5.0 (Windows NT 10.0; Win64; x64) AppleWebKit/537.36 (KHTML, like Gecko) draw.io/24.7.17 Chrome/128.0.6613.36 Electron/32.0.1 Safari/537.36&quot; version=&quot;24.7.17&quot; scale=&quot;1&quot; border=&quot;0&quot;&gt;&#10;  &lt;diagram name=&quot;Page-1&quot; id=&quot;xDO8-HkSdvWJG_5vtqPZ&quot;&gt;&#10;    &lt;mxGraphModel dx=&quot;-433&quot; dy=&quot;823&quot; grid=&quot;1&quot; gridSize=&quot;10&quot; guides=&quot;1&quot; tooltips=&quot;1&quot; connect=&quot;1&quot; arrows=&quot;1&quot; fold=&quot;1&quot; page=&quot;1&quot; pageScale=&quot;1&quot; pageWidth=&quot;827&quot; pageHeight=&quot;1169&quot; math=&quot;0&quot; shadow=&quot;0&quot;&gt;&#10;      &lt;root&gt;&#10;        &lt;mxCell id=&quot;0&quot; /&gt;&#10;        &lt;mxCell id=&quot;1&quot; parent=&quot;0&quot; /&gt;&#10;        &lt;mxCell id=&quot;_xr6G_7NQHozpmP0kcXu-4&quot; value=&quot;&quot; style=&quot;sketch=0;points=[[0.015,0.015,0],[0.985,0.015,0],[0.985,0.985,0],[0.015,0.985,0],[0.25,0,0],[0.5,0,0],[0.75,0,0],[1,0.25,0],[1,0.5,0],[1,0.75,0],[0.75,1,0],[0.5,1,0],[0.25,1,0],[0,0.75,0],[0,0.5,0],[0,0.25,0]];verticalLabelPosition=bottom;html=1;verticalAlign=top;aspect=fixed;align=center;pointerEvents=1;shape=mxgraph.cisco19.rect;prIcon=wireless_location_appliance;fillColor=#FAFAFA;strokeColor=#005073;movable=1;resizable=1;rotatable=1;deletable=1;editable=1;locked=0;connectable=1;&quot; vertex=&quot;1&quot; parent=&quot;1&quot;&gt;&#10;          &lt;mxGeometry x=&quot;1900&quot; y=&quot;250&quot; width=&quot;480&quot; height=&quot;480&quot; as=&quot;geometry&quot; /&gt;&#10;        &lt;/mxCell&gt;&#10;      &lt;/root&gt;&#10;    &lt;/mxGraphModel&gt;&#10;  &lt;/diagram&gt;&#10;&lt;/mxfile&gt;&#10;"><defs/><g><g data-cell-id="0"><g data-cell-id="1"><g data-cell-id="_xr6G_7NQHozpmP0kcXu-4"><g><rect x="0" y="0" width="480" height="480" fill="none" stroke="none" pointer-events="all"/><path d="M 29.45 0 C 13.24 0 0 13.18 0 29.32 L 0 450.68 C 0 466.82 13.24 480 29.45 480 L 450.55 480 C 466.76 480 480 466.82 480 450.68 L 480 29.32 C 480 13.18 466.76 0 450.55 0 Z" fill="#fafafa" stroke="none" pointer-events="all"/><rect x="0" y="0" width="480" height="480" fill="none" stroke="none" pointer-events="all"/><path d="M 215.62 56.51 L 215.62 132.31 L 229.9 132.31 L 229.9 82.89 L 260.6 132.31 L 276.04 132.31 L 276.04 56.51 L 261.75 56.51 L 261.75 107.14 L 230.58 56.51 Z M 247.64 147.9 L 221.26 187.24 L 238.29 187.24 L 238.29 218.84 C 231.95 221.38 226.94 226.38 224.39 232.69 L 192.63 232.69 L 192.63 215.74 L 153.1 242 L 192.63 268.25 L 192.63 251.3 L 224.38 251.3 C 226.93 257.61 231.95 262.61 238.29 265.14 L 238.29 296.75 L 221.26 296.75 L 247.64 336.09 L 274.02 296.75 L 256.99 296.75 L 256.99 265.15 C 263.33 262.61 268.35 257.61 270.9 251.3 L 302.66 251.3 L 302.66 268.25 L 342.18 242 L 302.66 215.74 L 302.66 232.69 L 270.9 232.69 C 268.35 226.38 263.33 221.38 256.99 218.85 L 256.99 187.24 L 274.02 187.24 Z M 361.64 203 L 361.64 278.8 L 419.56 278.8 L 419.56 266.04 L 377.01 266.04 L 377.01 245.4 L 415.25 245.4 L 415.25 232.63 L 377.01 232.63 L 377.01 215.83 L 418.11 215.83 L 418.11 203 Z M 36.84 203.2 L 55.02 279 L 71.7 279.01 L 86.81 222.34 L 101.98 279 L 118.3 279 L 136.79 203.2 L 121.31 203.2 L 109.62 256.15 L 96.27 203.2 L 77.98 203.2 L 64.06 255.28 L 52.58 203.2 Z M 243.59 358.69 C 237.74 358.69 232.74 359.57 228.58 361.33 C 224.46 363.09 221.28 365.66 219.07 369.03 C 216.89 372.37 215.8 375.98 215.8 379.84 C 215.8 385.83 218.13 390.92 222.81 395.09 C 226.14 398.06 231.92 400.55 240.16 402.59 C 246.57 404.17 250.68 405.28 252.48 405.89 C 255.1 406.83 256.94 407.93 257.98 409.2 C 259.05 410.45 259.59 411.96 259.59 413.76 C 259.59 416.55 258.33 419 255.8 421.1 C 253.31 423.17 249.59 424.2 244.63 424.2 C 239.96 424.2 236.23 423.03 233.46 420.69 C 230.73 418.34 228.91 414.67 228.01 409.67 L 213.05 411.12 C 214.05 419.6 217.13 426.06 222.29 430.51 C 227.46 434.92 234.85 437.13 244.47 437.13 C 251.09 437.13 256.61 436.21 261.05 434.39 C 265.48 432.53 268.91 429.7 271.33 425.91 C 273.76 422.12 274.97 418.05 274.97 413.7 C 274.97 408.91 273.95 404.9 271.9 401.66 C 269.89 398.38 267.09 395.82 263.49 393.96 C 259.92 392.06 254.4 390.23 246.92 388.48 C 239.44 386.71 234.72 385.03 232.79 383.41 C 231.26 382.13 230.5 380.6 230.5 378.81 C 230.5 376.84 231.31 375.27 232.94 374.1 C 235.47 372.27 238.97 371.36 243.43 371.36 C 247.76 371.36 251 372.22 253.15 373.94 C 255.33 375.64 256.75 378.42 257.41 382.32 L 272.79 381.65 C 272.55 374.68 270 369.12 265.15 364.95 C 260.34 360.78 253.15 358.69 243.59 358.69 Z M 29.44 13.24 L 450.56 13.24 C 459.62 13.24 466.71 20.29 466.71 29.31 L 466.71 450.68 C 466.71 459.7 459.62 466.76 450.56 466.76 L 29.44 466.76 C 20.39 466.76 13.3 459.7 13.3 450.68 L 13.3 29.31 C 13.3 20.29 20.39 13.24 29.44 13.24 Z M 29.44 0 C 13.25 0 0 13.18 0 29.31 L 0 450.68 C 0 466.81 13.25 480 29.44 480 L 450.56 480 C 466.75 480 480 466.81 480 450.68 L 480 29.31 C 480 13.18 466.75 0 450.56 0 Z" fill="#005073" stroke="none" pointer-events="all"/></g></g></g></g></g></svg>