<svg id="Component_56_1" data-name="Component 56 – 1" xmlns="http://www.w3.org/2000/svg" xmlns:xlink="http://www.w3.org/1999/xlink" width="137.892" height="126.391" viewBox="0 0 137.892 126.391">
  <defs>
    <linearGradient id="linear-gradient" x1="0.5" x2="0.5" y2="0.984" gradientUnits="objectBoundingBox">
      <stop offset="0" stop-color="#b6b6b6"/>
      <stop offset="1" stop-color="#020202"/>
    </linearGradient>
  </defs>
  <path id="shape" d="M125.488,44.748a23.678,23.678,0,0,1,9.067,9.169,27.792,27.792,0,0,1,3.337,13.576,27.793,27.793,0,0,1-3.337,13.576,23.678,23.678,0,0,1-9.083,9.178,27.052,27.052,0,0,1-13.435,3.372H25.855A27.052,27.052,0,0,1,12.42,90.247a23.679,23.679,0,0,1-9.083-9.178A27.793,27.793,0,0,1,0,67.493,27.793,27.793,0,0,1,3.337,53.917a23.679,23.679,0,0,1,9.083-9.178,24.867,24.867,0,0,1,3.833-1.757,26.615,26.615,0,0,1-.27-3.792A25.992,25.992,0,0,1,41.838,13.063a25.658,25.658,0,0,1,18.826,8.219A34.425,34.425,0,0,1,126.9,34.835a35.183,35.183,0,0,1-1.416,9.913Z" fill="url(#linear-gradient)"/>
  <g id="Ellipse_28" data-name="Ellipse 28" transform="matrix(0.891, 0.454, -0.454, 0.891, 38.347, 93.619)" fill="#c0f9ff" stroke="#c0f9ff" stroke-width="1">
    <ellipse cx="8.277" cy="8" rx="8.277" ry="8" stroke="none"/>
    <ellipse cx="8.277" cy="8" rx="7.777" ry="7.5" fill="none"/>
  </g>
  <g id="Ellipse_29" data-name="Ellipse 29" transform="matrix(0.891, 0.454, -0.454, 0.891, 70.683, 93.619)" fill="#c0f9ff" stroke="#c0f9ff" stroke-width="1">
    <ellipse cx="8.277" cy="8" rx="8.277" ry="8" stroke="none"/>
    <ellipse cx="8.277" cy="8" rx="7.777" ry="7.5" fill="none"/>
  </g>
  <g id="Ellipse_30" data-name="Ellipse 30" transform="matrix(0.891, 0.454, -0.454, 0.891, 90.277, 104.619)" fill="#c0f9ff" stroke="#c0f9ff" stroke-width="1">
    <ellipse cx="8.277" cy="8" rx="8.277" ry="8" stroke="none"/>
    <ellipse cx="8.277" cy="8" rx="7.777" ry="7.5" fill="none"/>
  </g>
  <g id="Ellipse_31" data-name="Ellipse 31" transform="matrix(0.891, 0.454, -0.454, 0.891, 113.999, 95.619)" fill="#c0f9ff" stroke="#c0f9ff" stroke-width="1">
    <ellipse cx="8.277" cy="8" rx="8.277" ry="8" stroke="none"/>
    <ellipse cx="8.277" cy="8" rx="7.777" ry="7.5" fill="none"/>
  </g>
  <g id="Ellipse_32" data-name="Ellipse 32" transform="matrix(0.891, 0.454, -0.454, 0.891, 57.643, 104.619)" fill="#c0f9ff" stroke="#c0f9ff" stroke-width="1">
    <ellipse cx="8.277" cy="8" rx="8.277" ry="8" stroke="none"/>
    <ellipse cx="8.277" cy="8" rx="7.777" ry="7.5" fill="none"/>
  </g>
  <g id="Ellipse_33" data-name="Ellipse 33" transform="matrix(0.891, 0.454, -0.454, 0.891, 25.552, 104.619)" fill="#c0f9ff" stroke="#c0f9ff" stroke-width="1">
    <ellipse cx="8.277" cy="8" rx="8.277" ry="8" stroke="none"/>
    <ellipse cx="8.277" cy="8" rx="7.777" ry="7.5" fill="none"/>
  </g>
  <g id="Ellipse_34" data-name="Ellipse 34" transform="matrix(0.891, 0.454, -0.454, 0.891, 8.114, 93.619)" fill="#c0f9ff" stroke="#c0f9ff" stroke-width="1">
    <ellipse cx="8.277" cy="8" rx="8.277" ry="8" stroke="none"/>
    <ellipse cx="8.277" cy="8" rx="7.777" ry="7.5" fill="none"/>
  </g>
</svg>
