<?xml version="1.0" encoding="UTF-8"?>
<!-- Do not edit this file with editors other than draw.io -->
<!DOCTYPE svg PUBLIC "-//W3C//DTD SVG 1.1//EN" "http://www.w3.org/Graphics/SVG/1.1/DTD/svg11.dtd">
<svg xmlns="http://www.w3.org/2000/svg" xmlns:xlink="http://www.w3.org/1999/xlink" version="1.1" width="591px" height="571px" viewBox="-0.5 -0.5 591 571" content="&lt;mxfile host=&quot;Electron&quot; agent=&quot;Mozilla/5.0 (Windows NT 10.0; Win64; x64) AppleWebKit/537.36 (KHTML, like Gecko) draw.io/24.7.17 Chrome/128.0.6613.36 Electron/32.0.1 Safari/537.36&quot; version=&quot;24.7.17&quot; scale=&quot;1&quot; border=&quot;0&quot;&gt;&#10;  &lt;diagram name=&quot;Page-1&quot; id=&quot;xDO8-HkSdvWJG_5vtqPZ&quot;&gt;&#10;    &lt;mxGraphModel dx=&quot;1208&quot; dy=&quot;810&quot; grid=&quot;1&quot; gridSize=&quot;10&quot; guides=&quot;1&quot; tooltips=&quot;1&quot; connect=&quot;1&quot; arrows=&quot;1&quot; fold=&quot;1&quot; page=&quot;1&quot; pageScale=&quot;1&quot; pageWidth=&quot;827&quot; pageHeight=&quot;1169&quot; math=&quot;0&quot; shadow=&quot;0&quot;&gt;&#10;      &lt;root&gt;&#10;        &lt;mxCell id=&quot;0&quot; /&gt;&#10;        &lt;mxCell id=&quot;1&quot; parent=&quot;0&quot; /&gt;&#10;        &lt;mxCell id=&quot;_xr6G_7NQHozpmP0kcXu-3&quot; value=&quot;&quot; style=&quot;verticalLabelPosition=bottom;shadow=0;dashed=0;align=center;html=1;verticalAlign=top;strokeWidth=1;shape=mxgraph.mockup.misc.map;&quot; vertex=&quot;1&quot; parent=&quot;1&quot;&gt;&#10;          &lt;mxGeometry x=&quot;119&quot; y=&quot;180&quot; width=&quot;590&quot; height=&quot;570&quot; as=&quot;geometry&quot; /&gt;&#10;        &lt;/mxCell&gt;&#10;      &lt;/root&gt;&#10;    &lt;/mxGraphModel&gt;&#10;  &lt;/diagram&gt;&#10;&lt;/mxfile&gt;&#10;"><defs/><g><g data-cell-id="0"><g data-cell-id="1"><g data-cell-id="_xr6G_7NQHozpmP0kcXu-3"><g><rect x="0" y="0" width="587.65" height="567.73" fill="#ffffff" stroke="#000000" stroke-width="2.27" pointer-events="all"/><path d="M 35.26 0 L 30.17 9.46 L 14.11 0.38 Z" fill="#ffca8c" stroke="#d87146" stroke-width="2.27" stroke-miterlimit="10" pointer-events="all"/><path d="M 13.32 41.26 L 32.52 42.01 L 31.34 56.02 L 50.54 60.18 L 44.27 105.6 L 23.12 101.06 L 21.55 114.3 L 3.14 112.03 L 7.84 92.73 L 0.79 90.84 L 0.79 65.86 L 12.54 56.77 Z" fill="#d87146" stroke="#d87146" stroke-width="2.27" stroke-miterlimit="10" pointer-events="all"/><path d="M 51.32 27.25 L 45.05 20.82 L 54.85 1.14 L 92.46 0 Z" fill="#ffca8c" stroke="#d87146" stroke-width="2.27" stroke-miterlimit="10" pointer-events="all"/><path d="M 60.73 39.74 L 98.73 15.9 L 108.52 33.69 L 66.99 57.91 Z" fill="#ffca8c" stroke="#d87146" stroke-width="2.27" stroke-miterlimit="10" pointer-events="all"/><path d="M 128.5 40.88 L 142.21 62.83 L 66.21 101.44 L 70.13 91.97 L 70.91 74.56 Z" fill="#ffca8c" stroke="#d87146" stroke-width="2.27" stroke-miterlimit="10" pointer-events="all"/><path d="M 112.05 6.81 L 125.37 27.25 L 135.94 20.82 L 156.71 56.02 L 194.71 38.61 L 176.3 0.76 L 121.84 0.38 Z" fill="#ffca8c" stroke="#d87146" stroke-width="2.27" stroke-miterlimit="10" pointer-events="all"/><path d="M 210.77 33.31 L 194.71 0.38 L 238.98 0.38 L 267.97 16.28 L 237.8 43.53 Z" fill="#ffca8c" stroke="#d87146" stroke-width="2.27" stroke-miterlimit="10" pointer-events="all"/><path d="M 225.27 55.64 L 220.17 54.5 L 210.38 32.17 L 229.97 26.12 L 240.94 41.26 Z" fill="#ffca8c" stroke="#d87146" stroke-width="2.27" stroke-miterlimit="10" pointer-events="all"/><path d="M 284.81 6.44 L 278.16 0.76 L 289.91 0.38 Z" fill="#ffca8c" stroke="#d87146" stroke-width="2.27" stroke-miterlimit="10" pointer-events="all"/><path d="M 300.88 21.2 L 293.04 14.38 L 307.93 0.38 L 326.34 0.38 Z" fill="#ffca8c" stroke="#d87146" stroke-width="2.27" stroke-miterlimit="10" pointer-events="all"/><path d="M 371 11.73 L 358.47 0.38 L 381.97 0.76 Z" fill="#ffca8c" stroke="#d87146" stroke-width="2.27" stroke-miterlimit="10" pointer-events="all"/><path d="M 385.89 21.57 L 405.48 3.03 L 411.75 5.3 L 403.91 28.77 Z" fill="#ffca8c" stroke="#d87146" stroke-width="2.27" stroke-miterlimit="10" pointer-events="all"/><path d="M 344.76 61.69 L 378.84 31.04 L 402.34 42.77 L 383.54 93.49 Z" fill="#ffca8c" stroke="#d87146" stroke-width="2.27" stroke-miterlimit="10" pointer-events="all"/><path d="M 360.43 47.69 L 378.84 31.79 L 402.34 42.77 L 393.73 64.72 Z" fill="#d87146" stroke="#d87146" stroke-width="2.27" stroke-miterlimit="10" pointer-events="all"/><path d="M 417.23 37.47 L 424.29 16.28 L 450.14 30.66 L 426.64 53.75 Z" fill="#ffca8c" stroke="#d87146" stroke-width="2.27" stroke-miterlimit="10" pointer-events="all"/><path d="M 470.51 13.63 L 453.28 0 L 484.23 0 Z" fill="#ffca8c" stroke="#d87146" stroke-width="2.27" stroke-miterlimit="10" pointer-events="all"/><path d="M 486.58 14.38 L 498.72 3.79 L 531.24 24.6 L 517.52 35.96 Z" fill="#ffca8c" stroke="#d87146" stroke-width="2.27" stroke-miterlimit="10" pointer-events="all"/><path d="M 526.54 52.61 L 545.73 35.58 L 587.65 63.21 L 587.26 93.87 Z" fill="#ffca8c" stroke="#d87146" stroke-width="2.27" stroke-miterlimit="10" pointer-events="all"/><path d="M 544.95 14 L 523.4 0.76 L 549.26 0.38 L 553.96 4.54 Z" fill="#ffca8c" stroke="#d87146" stroke-width="2.27" stroke-miterlimit="10" pointer-events="all"/><path d="M 573.16 12.49 L 584.91 0.76 L 588.43 1.14 L 587.65 23.84 Z" fill="#ffca8c" stroke="#d87146" stroke-width="2.27" stroke-miterlimit="10" pointer-events="all"/><path d="M 433.3 65.48 L 476.39 22.71 L 508.51 43.91 L 446.22 93.11 Z" fill="#ffca8c" stroke="#d87146" stroke-width="2.27" stroke-miterlimit="10" pointer-events="all"/><path d="M 413.71 68.51 L 436.43 104.84 L 414.88 121.12 L 396.86 104.09 Z" fill="#ffca8c" stroke="#d87146" stroke-width="2.27" stroke-miterlimit="10" pointer-events="all"/><path d="M 480.7 87.81 L 510.86 63.21 L 534.76 79.48 L 519.48 111.27 Z" fill="#ffca8c" stroke="#d87146" stroke-width="2.27" stroke-miterlimit="10" pointer-events="all"/><path d="M 530.45 118.85 L 546.12 86.29 L 581.78 109.38 L 546.52 130.2 Z" fill="#ffca8c" stroke="#d87146" stroke-width="2.27" stroke-miterlimit="10" pointer-events="all"/><path d="M 560.62 137.77 L 588.04 121.12 L 587.26 154.8 Z" fill="#ffca8c" stroke="#d87146" stroke-width="2.27" stroke-miterlimit="10" pointer-events="all"/><path d="M 530.06 164.64 L 546.52 150.26 L 583.73 173.35 L 563.75 192.27 Z" fill="#ffca8c" stroke="#d87146" stroke-width="2.27" stroke-miterlimit="10" pointer-events="all"/><path d="M 467.77 136.25 L 477.56 107.87 L 534.76 141.93 L 500.68 162.37 Z" fill="#ffca8c" stroke="#d87146" stroke-width="2.27" stroke-miterlimit="10" pointer-events="all"/><path d="M 499.5 198.71 L 505.38 183.57 L 500.68 175.24 L 519.09 172.21 L 554.35 201.73 L 538.29 223.31 Z" fill="#ffca8c" stroke="#d87146" stroke-width="2.27" stroke-miterlimit="10" pointer-events="all"/><path d="M 445.83 119.6 L 465.81 98.78 L 469.73 101.06 L 468.55 107.49 L 457.58 129.44 Z" fill="#ffca8c" stroke="#d87146" stroke-width="2.27" stroke-miterlimit="10" pointer-events="all"/><path d="M 388.63 157.83 L 437.6 126.79 L 448.97 136.63 L 417.62 164.26 L 427.03 175.24 L 414.49 185.46 Z" fill="#ffca8c" stroke="#d87146" stroke-width="2.27" stroke-miterlimit="10" pointer-events="all"/><path d="M 430.94 166.54 L 450.92 145.34 L 467.77 158.59 L 447.79 180.54 Z" fill="#d87146" stroke="#d87146" stroke-width="2.27" stroke-miterlimit="10" pointer-events="all"/><path d="M 468.95 177.89 L 477.96 167.29 L 489.71 177.89 L 487.75 191.89 Z" fill="#ffca8c" stroke="#d87146" stroke-width="2.27" stroke-miterlimit="10" pointer-events="all"/><path d="M 462.68 223.69 L 425.46 194.92 L 436.04 186.97 L 448.57 197.19 L 458.37 188.87 L 483.05 203.63 Z" fill="#ffca8c" stroke="#d87146" stroke-width="2.27" stroke-miterlimit="10" pointer-events="all"/><path d="M 474.43 229.36 L 493.63 211.2 L 529.28 237.31 L 524.97 246.02 L 512.04 249.8 Z" fill="#ffca8c" stroke="#d87146" stroke-width="2.27" stroke-miterlimit="10" pointer-events="all"/><path d="M 582.17 201.36 L 566.89 223.31 L 588.04 233.9 L 588.43 204.38 Z" fill="#ffca8c" stroke="#d87146" stroke-width="2.27" stroke-miterlimit="10" pointer-events="all"/><path d="M 565.32 269.1 L 572.76 258.88 L 588.04 263.81 L 586.87 279.7 Z" fill="#ffca8c" stroke="#d87146" stroke-width="2.27" stroke-miterlimit="10" pointer-events="all"/><path d="M 549.26 306.2 L 557.48 283.11 L 581.38 291.44 L 568.06 310.36 Z" fill="#ffca8c" stroke="#d87146" stroke-width="2.27" stroke-miterlimit="10" pointer-events="all"/><path d="M 521.84 383.03 L 543.77 324.36 L 561.4 324.36 L 586.08 334.2 L 557.48 401.95 Z" fill="#ffca8c" stroke="#d87146" stroke-width="2.27" stroke-miterlimit="10" pointer-events="all"/><path d="M 570.02 408.76 L 578.25 388.71 L 587.65 391.36 L 587.65 417.85 Z" fill="#ffca8c" stroke="#d87146" stroke-width="2.27" stroke-miterlimit="10" pointer-events="all"/><path d="M 583.73 377.35 L 588.04 366.38 L 588.04 377.35 Z" fill="#ffca8c" stroke="#d87146" stroke-width="2.27" stroke-miterlimit="10" pointer-events="all"/><path d="M 503.03 438.67 L 517.92 401.2 L 587.65 436.4 L 587.26 480.3 Z" fill="#ffca8c" stroke="#d87146" stroke-width="2.27" stroke-miterlimit="10" pointer-events="all"/><path d="M 485.79 488.63 L 498.72 455.32 L 588.04 499.6 L 587.65 534.42 Z" fill="#ffca8c" stroke="#d87146" stroke-width="2.27" stroke-miterlimit="10" pointer-events="all"/><path d="M 476 521.93 L 481.87 506.79 L 588.43 552.21 L 588.43 558.65 L 580.6 562.05 Z" fill="#ffca8c" stroke="#d87146" stroke-width="2.27" stroke-miterlimit="10" pointer-events="all"/><path d="M 471.69 536.32 L 544.56 563.95 L 542.6 567.35 L 486.97 567.35 L 462.68 559.78 Z" fill="#ffca8c" stroke="#d87146" stroke-width="2.27" stroke-miterlimit="10" pointer-events="all"/><path d="M 421.54 562.81 L 418.41 568.86 L 361.6 567.35 L 370.22 543.88 Z" fill="#d87146" stroke="#d87146" stroke-width="2.27" stroke-miterlimit="10" pointer-events="all"/><path d="M 436.04 549.56 L 385.5 529.12 L 396.47 507.17 L 445.05 527.61 Z" fill="#ffca8c" stroke="#d87146" stroke-width="2.27" stroke-miterlimit="10" pointer-events="all"/><path d="M 449.36 512.09 L 408.22 493.17 L 417.23 477.27 L 455.63 493.55 Z" fill="#ffca8c" stroke="#d87146" stroke-width="2.27" stroke-miterlimit="10" pointer-events="all"/><path d="M 448.57 428.07 L 474.82 443.21 L 459.93 481.06 L 425.07 466.67 Z" fill="#ffca8c" stroke="#d87146" stroke-width="2.27" stroke-miterlimit="10" pointer-events="all"/><path d="M 465.03 420.12 L 483.44 383.03 L 494.8 390.22 L 479.91 428.45 Z" fill="#ffca8c" stroke="#d87146" stroke-width="2.27" stroke-miterlimit="10" pointer-events="all"/><path d="M 501.07 336.85 L 510.47 341.02 L 499.11 373.57 L 488.14 368.27 Z" fill="#ffca8c" stroke="#d87146" stroke-width="2.27" stroke-miterlimit="10" pointer-events="all"/><path d="M 486.18 288.79 L 498.33 264.56 L 532.02 277.81 L 524.19 300.9 Z" fill="#ffca8c" stroke="#d87146" stroke-width="2.27" stroke-miterlimit="10" pointer-events="all"/><path d="M 476 310.74 L 481.48 299.76 L 518.7 314.9 L 513.22 328.53 Z" fill="#ffca8c" stroke="#d87146" stroke-width="2.27" stroke-miterlimit="10" pointer-events="all"/><path d="M 470.12 322.47 L 479.52 327.01 L 466.99 355.02 L 456.02 350.1 Z" fill="#ffca8c" stroke="#d87146" stroke-width="2.27" stroke-miterlimit="10" pointer-events="all"/><path d="M 466.2 303.17 L 444.66 343.67 L 430.94 336.47 L 452.49 297.49 Z" fill="#ffca8c" stroke="#d87146" stroke-width="2.27" stroke-miterlimit="10" pointer-events="all"/><path d="M 485.79 261.53 L 470.51 291.44 L 457.98 286.14 L 471.69 256.61 Z" fill="#ffca8c" stroke="#d87146" stroke-width="2.27" stroke-miterlimit="10" pointer-events="all"/><path d="M 458.37 250.94 L 416.84 330.04 L 395.29 318.69 L 447.4 245.64 Z" fill="#ffca8c" stroke="#d87146" stroke-width="2.27" stroke-miterlimit="10" pointer-events="all"/><path d="M 380.8 310.74 L 369.44 304.68 L 422.32 237.31 L 431.34 240.34 Z" fill="#ffca8c" stroke="#d87146" stroke-width="2.27" stroke-miterlimit="10" pointer-events="all"/><path d="M 407.44 224.82 L 360.03 289.92 L 345.93 265.32 L 394.51 214.22 Z" fill="#ffca8c" stroke="#d87146" stroke-width="2.27" stroke-miterlimit="10" pointer-events="all"/><path d="M 381.58 204.01 L 333.79 254.72 L 322.03 259.64 L 292.65 266.08 L 288.34 256.24 L 302.84 248.67 L 301.66 241.1 L 365.91 188.11 Z" fill="#ffca8c" stroke="#d87146" stroke-width="2.27" stroke-miterlimit="10" pointer-events="all"/><path d="M 316.16 261.53 L 293.04 266.46 L 288.34 255.86 L 303.23 248.67 L 302.44 241.1 L 305.58 238.07 Z" fill="#d87146" stroke="#d87146" stroke-width="2.27" stroke-miterlimit="10" pointer-events="all"/><path d="M 298.14 281.22 L 331.04 274.02 L 347.11 306.2 L 313.81 319.82 Z" fill="#d87146" stroke="#d87146" stroke-width="2.27" stroke-miterlimit="10" pointer-events="all"/><path d="M 321.64 335.34 L 358.47 318.31 L 370.61 325.88 L 335.75 371.67 Z" fill="#ffca8c" stroke="#d87146" stroke-width="2.27" stroke-miterlimit="10" pointer-events="all"/><path d="M 341.62 392.49 L 385.5 332.31 L 409.4 344.04 L 356.51 429.2 Z" fill="#ffca8c" stroke="#d87146" stroke-width="2.27" stroke-miterlimit="10" pointer-events="all"/><path d="M 365.52 442.45 L 386.28 413.31 L 425.07 431.47 L 406.66 457.59 Z" fill="#ffca8c" stroke="#d87146" stroke-width="2.27" stroke-miterlimit="10" pointer-events="all"/><path d="M 394.12 402.71 L 423.5 355.02 L 458.76 370.92 L 433.69 419.74 Z" fill="#ffca8c" stroke="#d87146" stroke-width="2.27" stroke-miterlimit="10" pointer-events="all"/><path d="M 290.69 34.82 L 324.78 65.48 L 314.59 74.18 L 287.95 52.23 Z" fill="#ffca8c" stroke="#d87146" stroke-width="2.27" stroke-miterlimit="10" pointer-events="all"/><path d="M 335.75 77.21 L 398.82 132.85 L 383.54 141.18 L 327.52 87.05 Z" fill="#ffca8c" stroke="#d87146" stroke-width="2.27" stroke-miterlimit="10" pointer-events="all"/><path d="M 278.16 28.77 L 274.24 56.77 L 302.84 85.54 L 285.21 99.92 L 249.95 54.13 Z" fill="#ffca8c" stroke="#d87146" stroke-width="2.27" stroke-miterlimit="10" pointer-events="all"/><path d="M 315.37 97.27 L 375.31 153.29 L 344.76 179.03 L 296.57 116.58 Z" fill="#ffca8c" stroke="#d87146" stroke-width="2.27" stroke-miterlimit="10" pointer-events="all"/><path d="M 285.21 127.93 L 332.61 190 L 298.14 218.77 L 271.89 210.82 L 252.69 163.13 Z" fill="#ffca8c" stroke="#d87146" stroke-width="2.27" stroke-miterlimit="10" pointer-events="all"/><path d="M 287.95 226.34 L 274.63 222.55 L 271.5 209.3 L 286.38 200.6 L 299.31 218.39 Z" fill="#d87146" stroke="#d87146" stroke-width="2.27" stroke-miterlimit="10" pointer-events="all"/><path d="M 221.35 128.69 L 251.52 202.49 L 237.02 215.36 L 179.43 203.25 L 183.35 172.59 L 198.24 163.13 L 189.23 144.96 Z" fill="#ffca8c" stroke="#d87146" stroke-width="2.27" stroke-miterlimit="10" pointer-events="all"/><path d="M 250.73 198.71 L 255.04 208.92 L 254.65 221.41 L 236.63 215.36 L 233.49 214.98 L 237.8 197.95 Z" fill="#d87146" stroke="#d87146" stroke-width="2.27" stroke-miterlimit="10" pointer-events="all"/><path d="M 247.6 143.45 L 237.8 118.85 L 265.62 104.09 L 272.67 113.93 Z" fill="#ffca8c" stroke="#d87146" stroke-width="2.27" stroke-miterlimit="10" pointer-events="all"/><path d="M 234.28 104.09 L 223.31 80.24 L 238.98 68.51 L 255.43 90.84 Z" fill="#ffca8c" stroke="#d87146" stroke-width="2.27" stroke-miterlimit="10" pointer-events="all"/><path d="M 219.78 112.03 L 181.39 132.85 L 171.6 107.49 L 208.42 89.32 Z" fill="#ffca8c" stroke="#d87146" stroke-width="2.27" stroke-miterlimit="10" pointer-events="all"/><path d="M 206.07 74.94 L 166.89 95.38 L 156.32 75.32 L 197.45 54.88 Z" fill="#ffca8c" stroke="#d87146" stroke-width="2.27" stroke-miterlimit="10" pointer-events="all"/><path d="M 115.57 120.36 L 103.43 102.19 L 142.6 83.65 L 153.18 99.92 Z" fill="#ffca8c" stroke="#d87146" stroke-width="2.27" stroke-miterlimit="10" pointer-events="all"/><path d="M 146.52 118.47 L 157.49 137.01 L 136.73 147.99 L 125.37 140.04 L 126.54 127.93 Z" fill="#d87146" stroke="#d87146" stroke-width="2.27" stroke-miterlimit="10" pointer-events="all"/><path d="M 94.03 108.25 L 124.58 156.32 L 104.99 167.67 L 70.91 119.6 Z" fill="#ffca8c" stroke="#d87146" stroke-width="2.27" stroke-miterlimit="10" pointer-events="all"/><path d="M 112.05 176.75 L 132.03 163.89 L 170.42 171.83 L 162.58 201.73 L 133.2 206.65 Z" fill="#d87146" stroke="#d87146" stroke-width="2.27" stroke-miterlimit="10" pointer-events="all"/><path d="M 281.29 422.77 L 325.95 394.38 L 368.26 507.55 L 360.03 516.26 Z" fill="#ffca8c" stroke="#d87146" stroke-width="2.27" stroke-miterlimit="10" pointer-events="all"/><path d="M 262.88 415.2 L 331.83 492.03 L 309.89 489.38 L 251.12 424.28 Z" fill="#ffca8c" stroke="#d87146" stroke-width="2.27" stroke-miterlimit="10" pointer-events="all"/><path d="M 335.75 510.96 L 357.29 527.23 L 340.05 567.35 L 248.77 567.73 Z" fill="#ffca8c" stroke="#d87146" stroke-width="2.27" stroke-miterlimit="10" pointer-events="all"/><path d="M 39.18 495.06 L 86.58 545.4 L 59.55 568.49 L 17.24 567.73 L 19.2 510.96 Z" fill="#b2d8ad" stroke="#d87146" stroke-width="2.27" stroke-miterlimit="10" pointer-events="all"/><path d="M 0 527.99 L 22.72 507.93 L 54.07 540.86 L 21.94 568.11 L 0.39 568.86 Z" fill="#ffca8c" stroke="#d87146" stroke-width="2.27" stroke-miterlimit="10" pointer-events="all"/><path d="M 31.74 487.49 L 0.79 511.34 L 0.79 478.03 L 14.5 469.32 Z" fill="#b2d8ad" stroke="#d87146" stroke-width="2.27" stroke-miterlimit="10" pointer-events="all"/><path d="M 62.68 462.51 L 52.11 449.64 L 99.9 411.42 L 99.12 400.82 L 126.15 380.38 L 138.69 383.41 L 144.95 392.87 Z" fill="#b2d8ad" stroke="#d87146" stroke-width="2.27" stroke-miterlimit="10" pointer-events="all"/><path d="M 60.33 395.9 L 84.62 423.53 L 70.91 433.37 L 45.45 406.87 Z" fill="#d87146" stroke="#d87146" stroke-width="2.27" stroke-miterlimit="10" pointer-events="all"/><path d="M 77.96 383.03 L 28.6 421.25 L 0.39 386.06 L 45.45 347.83 Z" fill="#b2d8ad" stroke="#d87146" stroke-width="2.27" stroke-miterlimit="10" pointer-events="all"/><path d="M 147.3 363.35 L 161.41 352.75 L 176.69 369.02 L 155.14 384.92 L 146.91 376.97 Z" fill="#b2d8ad" stroke="#d87146" stroke-width="2.27" stroke-miterlimit="10" pointer-events="all"/><path d="M 58.77 127.17 L 119.49 216.12 L 108.91 225.2 L 125.37 246.39 L 119.49 250.94 L 71.3 185.84 L 79.14 180.92 L 57.59 149.5 L 36.83 162.37 L 51.32 188.11 L 42.7 193.03 L 28.21 175.62 L 31.74 154.42 L 52.11 142.31 Z" fill="#b2d8ad" stroke="#d87146" stroke-width="2.27" stroke-miterlimit="10" pointer-events="all"/><path d="M 52.5 158.59 L 66.21 176 L 57.98 182.05 L 46.23 162.75 Z" fill="#b2d8ad" stroke="#d87146" stroke-width="2.27" stroke-miterlimit="10" pointer-events="all"/><path d="M 41.53 207.41 L 63.47 192.27 L 98.33 237.69 L 88.54 244.12 L 59.16 210.82 L 48.97 215.74 Z" fill="#b2d8ad" stroke="#d87146" stroke-width="2.27" stroke-miterlimit="10" pointer-events="all"/><path d="M 50.15 278.95 L 46.23 275.92 L 50.15 255.1 L 77.57 256.61 Z" fill="#b2d8ad" stroke="#d87146" stroke-width="2.27" stroke-miterlimit="10" pointer-events="all"/><path d="M 40.35 275.54 L 34.87 276.3 L 21.94 257.37 L 39.57 258.13 Z" fill="#b2d8ad" stroke="#d87146" stroke-width="2.27" stroke-miterlimit="10" pointer-events="all"/><path d="M 13.32 266.46 L 30.56 280.84 L 26.25 286.51 L 10.58 278.19 Z" fill="#b2d8ad" stroke="#d87146" stroke-width="2.27" stroke-miterlimit="10" pointer-events="all"/><path d="M 17.24 246.39 L 20.77 215.36 L 33.69 215.36 L 40.35 223.69 L 37.22 247.91 Z" fill="#b2d8ad" stroke="#d87146" stroke-width="2.27" stroke-miterlimit="10" pointer-events="all"/><path d="M 24.68 185.46 L 35.65 196.81 L 23.9 201.36 Z" fill="#b2d8ad" stroke="#d87146" stroke-width="2.27" stroke-miterlimit="10" pointer-events="all"/><path d="M 9.4 210.06 L 0.79 247.15 L 1.57 208.92 Z" fill="#b2d8ad" stroke="#d87146" stroke-width="2.27" stroke-miterlimit="10" pointer-events="all"/><path d="M 114.4 260.78 L 55.24 303.55 L 59.55 308.84 L 117.92 267.59 Z" fill="#b2d8ad" stroke="#d87146" stroke-width="2.27" stroke-miterlimit="10" pointer-events="all"/><path d="M 47.4 309.22 L 50.15 312.63 L 21.55 334.2 L 19.98 330.8 Z" fill="#b2d8ad" stroke="#d87146" stroke-width="2.27" stroke-miterlimit="10" pointer-events="all"/><path d="M 93.63 304.68 C 93.63 304.68 128.11 276.3 128.11 276.3 C 128.11 276.3 163.37 313.01 163.37 313.01 C 163.37 313.01 127.72 344.42 127.72 344.42 C 127.72 344.42 120.67 338.75 120.67 338.75 C 120.67 338.75 99.9 313.77 99.9 313.77 C 99.9 313.77 93.24 305.06 93.24 305.06 Z" fill="#b2d8ad" stroke="#d87146" stroke-width="2.27" stroke-miterlimit="10" pointer-events="all"/><path d="M 86.19 311.49 C 86.19 311.49 93.24 320.58 93.24 320.58 C 93.24 320.58 110.09 346.31 110.09 346.31 C 110.09 346.31 116.75 353.89 116.75 353.89 C 116.75 353.89 84.23 380.76 84.23 380.76 C 84.23 380.76 50.54 340.26 50.54 340.26 C 50.54 340.26 86.97 311.49 86.97 311.49 Z" fill="#b2d8ad" stroke="#d87146" stroke-width="2.27" stroke-miterlimit="10" pointer-events="all"/><path d="M 9.79 290.3 C 9.79 290.3 14.11 292.19 14.11 292.19 C 14.11 292.19 27.42 312.63 27.42 313.01 C 27.42 313.39 1.57 333.45 1.57 333.45 C 1.57 333.45 0.79 298.25 0.79 298.25 C 0.79 298.25 9.79 290.68 9.79 290.68 Z" fill="#b2d8ad" stroke="#d87146" stroke-width="2.27" stroke-miterlimit="10" pointer-events="all"/><ellipse cx="40.16" cy="295.22" rx="7.639442231075698" ry="7.570099601593626" fill="#b2d8ad" stroke="#d87146" stroke-width="2.27" pointer-events="all"/><path d="M 56.02 284.24 L 104.6 249.04 L 110.09 256.99 L 62.29 292.57 Z" fill="#b2d8ad" stroke="#d87146" stroke-width="2.27" stroke-miterlimit="10" pointer-events="all"/><path d="M 10.58 200.22 L 15.67 180.16 C 14.09 174.81 11.45 171.36 8.53 170.84 C 5.61 170.32 2.75 172.79 0.79 177.51 L 0.79 198.71 L 10.19 200.6 Z" fill="#b2d8ad" stroke="#d87146" stroke-width="2.27" stroke-miterlimit="10" pointer-events="all"/><path d="M 1.57 149.12 L 25.86 153.29 L 21.94 172.59 C 17.67 165.44 9.72 161.09 1.18 161.24 L 1.18 148.37 Z" fill="#b2d8ad" stroke="#d87146" stroke-width="2.27" stroke-miterlimit="10" pointer-events="all"/><path d="M 147.3 223.69 C 164.37 219.54 182.17 219.16 199.41 222.55 C 214.53 224.23 229.16 228.73 242.5 235.8 C 243.7 252.08 256.68 265.26 273.45 267.21 L 300.88 326.63 L 272.28 338.37 L 287.95 376.97 L 315.77 367.13 L 326.34 395.14 L 288.34 418.23 L 262.48 390.6 L 134.77 508.31 L 99.12 471.59 L 129.68 442.83 C 147.71 448.47 167.48 443.1 179.82 429.2 L 172.38 423.53 L 186.48 412.55 L 191.18 417.47 C 205.2 406.46 211.45 388.65 207.25 371.67 L 173.55 342.15 L 194.71 321.71 L 141.82 261.16 L 161.02 242.23 L 147.3 223.69 Z" fill="#d87146" stroke="#d87146" stroke-width="2.27" stroke-miterlimit="10" pointer-events="all"/><path d="M 581.93 313.77 L 588.04 304.23 L 588.04 316.49 Z" fill="#ffca8c" stroke="#d87146" stroke-width="2.27" stroke-miterlimit="10" pointer-events="all"/><path d="M 199.25 471.82 C 199.25 471.82 237.33 437.76 237.33 437.76 C 237.33 437.76 257.08 455.02 257.08 455.02 C 257.08 455.02 211.48 477.27 211.48 477.27 C 211.48 477.27 199.25 472.28 199.25 472.28 Z" fill="#b2d8ad" stroke="#d87146" stroke-width="2.27" stroke-miterlimit="10" pointer-events="all"/><path d="M 192.2 477.73 L 207.25 482.27 C 198.29 491.1 198.29 505.23 207.25 514.06 L 191.73 517.69 L 170.11 499.53 L 192.2 477.73 Z" fill="#b2d8ad" stroke="#d87146" stroke-width="2.27" stroke-miterlimit="10" pointer-events="all"/><path d="M 167.28 501.34 C 185.1 525.71 213.4 534.52 238.74 523.6 L 242.5 531.32 C 229.85 546.74 212.53 551.4 196.9 543.58 L 202.07 535.41 L 178.1 528.59 L 162.58 505.89 L 167.28 501.34 Z" fill="#b2d8ad" stroke="#d87146" stroke-width="2.27" stroke-miterlimit="10" pointer-events="all"/><path d="M 157.41 509.52 C 157.41 509.52 172.46 529.05 172.46 529.05 C 172.46 529.05 166.81 536.32 166.81 536.32 C 166.81 536.32 187.03 549.94 187.03 549.94 C 187.03 549.94 180.92 557.21 180.92 557.21 C 180.92 557.21 135.32 530.87 135.32 530.87 C 135.32 530.87 156.94 509.06 156.94 509.06 Z" fill="#b2d8ad" stroke="#d87146" stroke-width="2.27" stroke-miterlimit="10" pointer-events="all"/><path d="M 193.14 549.94 C 193.14 549.94 207.25 553.12 207.25 553.12 C 207.25 553.12 206.3 566.75 206.3 566.75 C 206.3 566.75 179.04 568.56 179.04 568.56 C 179.04 568.56 193.14 550.4 193.14 550.4 Z" fill="#b2d8ad" stroke="#d87146" stroke-width="2.27" stroke-miterlimit="10" pointer-events="all"/><path d="M 264.13 464.1 C 264.13 464.1 272.12 471.37 272.12 471.37 C 272.12 471.37 244.85 513.61 244.85 513.61 C 244.85 513.61 218.53 506.34 218.53 506.34 C 218.53 506.34 227.46 478.63 227.46 478.63 C 227.46 478.63 264.13 464.1 264.13 464.1 Z" fill="#b2d8ad" stroke="#d87146" stroke-width="2.27" stroke-miterlimit="10" pointer-events="all"/><path d="M 279.17 480.91 C 279.17 480.91 288.11 491.35 288.11 491.35 C 288.11 491.35 248.62 530.41 248.62 530.41 C 248.62 530.41 245.79 523.6 245.79 523.6 C 245.79 523.6 278.7 480.91 278.7 480.91 Z" fill="#b2d8ad" stroke="#d87146" stroke-width="2.27" stroke-miterlimit="10" pointer-events="all"/><path d="M 295.63 495.44 L 315.37 503.61 L 225.58 568.11 L 212.42 567.65 L 213.83 554.48 C 225.09 554.36 235.94 550.33 244.38 543.13 C 264.45 530.53 281.84 514.34 295.63 495.44 Z" fill="#b2d8ad" stroke="#d87146" stroke-width="2.27" stroke-miterlimit="10" pointer-events="all"/><path d="M 264.05 278.95 L 281.29 305.06 L 269.93 318.69 L 246.42 295.6 Z" fill="#ffffff" stroke="#d87146" stroke-width="2.27" stroke-miterlimit="10" pointer-events="all"/><path d="M 162.58 253.21 L 186.09 233.15 L 218.61 265.32 L 192.75 288.41 Z" fill="#ffffff" stroke="#d87146" stroke-width="2.27" stroke-miterlimit="10" pointer-events="all"/><path d="M 232.32 303.93 L 252.3 322.85 L 237.8 337.23 L 219 315.66 Z" fill="#ffffff" stroke="#d87146" stroke-width="2.27" stroke-miterlimit="10" pointer-events="all"/><rect x="0.39" y="0.38" width="587.65" height="567.73" fill="none" stroke="#000000" stroke-width="4.54" pointer-events="all"/></g></g></g></g></g></svg>