<?xml version="1.0" encoding="UTF-8"?>
<svg id="Layer_1" data-name="Layer 1" xmlns="http://www.w3.org/2000/svg" xmlns:xlink="http://www.w3.org/1999/xlink" viewBox="0 0 63.36 47.83">
  <defs>
    <style>
      .cls-1 {
        fill: url(#linear-gradient-2);
      }

      .cls-2 {
        fill: url(#linear-gradient-3);
      }

      .cls-2, .cls-3, .cls-4, .cls-5, .cls-6 {
        fill-rule: evenodd;
      }

      .cls-3 {
        fill: url(#linear-gradient-5);
      }

      .cls-4 {
        fill: url(#linear-gradient-6);
      }

      .cls-5 {
        fill: url(#linear-gradient-4);
      }

      .cls-6 {
        fill: url(#linear-gradient);
      }
    </style>
    <linearGradient id="linear-gradient" x1="32.19" y1="46.99" x2="32" y2="9.35" gradientUnits="userSpaceOnUse">
      <stop offset="0" stop-color="#737577"/>
      <stop offset=".39" stop-color="#afb0b1"/>
      <stop offset=".8" stop-color="#e8e8e9"/>
      <stop offset="1" stop-color="#fff"/>
    </linearGradient>
    <linearGradient id="linear-gradient-2" x1="-877.65" y1="537" x2="-877.65" y2="536" gradientTransform="translate(16458.29 9876) scale(18.73 -18.38)" gradientUnits="userSpaceOnUse">
      <stop offset="0" stop-color="#ffc31f"/>
      <stop offset="1" stop-color="#ffb500"/>
    </linearGradient>
    <linearGradient id="linear-gradient-3" x1="-683.21" y1="445.62" x2="-683.21" y2="444.62" gradientTransform="translate(2787.49 2085.96) rotate(-15) scale(3.13 -6.13)" gradientUnits="userSpaceOnUse">
      <stop offset="0" stop-color="#ffc31f"/>
      <stop offset="1" stop-color="#ffb500"/>
    </linearGradient>
    <linearGradient id="linear-gradient-4" x1="-777.62" y1="429.63" x2="-777.62" y2="428.63" gradientTransform="translate(4462.38 1216.05) rotate(-15) scale(5.11 -5.41)" gradientUnits="userSpaceOnUse">
      <stop offset="0" stop-color="#ffc31f"/>
      <stop offset="1" stop-color="#ffb500"/>
    </linearGradient>
    <linearGradient id="linear-gradient-5" x1="-803.72" y1="362.71" x2="-803.72" y2="361.71" gradientTransform="translate(5148.74 -5.98) rotate(-15) scale(6.19 -3.61)" gradientUnits="userSpaceOnUse">
      <stop offset="0" stop-color="#ffc31f"/>
      <stop offset="1" stop-color="#ffb500"/>
    </linearGradient>
    <linearGradient id="linear-gradient-6" x1="-778.28" y1="430.1" x2="-778.28" y2="429.1" gradientTransform="translate(4468.11 1225.59) rotate(-15) scale(5.13 -5.43)" gradientUnits="userSpaceOnUse">
      <stop offset="0" stop-color="#ffc31f"/>
      <stop offset="1" stop-color="#ffb500"/>
    </linearGradient>
  </defs>
  <path class="cls-6" d="M9.34,25.94c2.25,2.17,5.34,3.51,8.75,3.51,6.9,0,12.49-5.48,12.49-12.25,0-1.08-.14-2.12-.41-3.12,2.84-3.68,7.43-6.07,12.6-6.07,8.62,0,15.61,6.63,15.61,14.81,0,1.46-.22,2.88-.64,4.22,1.73.92,3.13,2.26,4.11,3.9.97,1.65,1.51,3.6,1.51,5.77s-.54,4.13-1.51,5.77c-.97,1.65-2.38,2.98-4.11,3.9s-3.8,1.43-6.08,1.43H12.63c-2.29,0-4.35-.51-6.08-1.43-1.73-.92-3.14-2.26-4.11-3.9-.97-1.65-1.51-3.6-1.51-5.77s.54-4.13,1.51-5.77c.97-1.65,2.38-2.98,4.11-3.9.55-.29,1.13-.54,1.74-.75,0-.05.45-.16,1.06-.35h0Z"/>
  <ellipse class="cls-1" cx="18.09" cy="17.2" rx="9.37" ry="9.19"/>
  <path class="cls-2" d="M12.67.05c.83-.22,1.69.27,1.91,1.08l.81,2.96c.22.82-.27,1.66-1.1,1.88-.83.22-1.69-.27-1.91-1.08l-.81-2.96c-.22-.82.27-1.66,1.1-1.88Z"/>
  <path class="cls-5" d="M24.37,1.06c.78.36,1.12,1.27.76,2.03l-1.32,2.78c-.36.77-1.29,1.1-2.07.74-.78-.36-1.12-1.27-.76-2.03l1.32-2.78c.36-.77,1.29-1.1,2.07-.74Z"/>
  <path class="cls-3" d="M0,17.79c-.08-.84.56-1.59,1.42-1.66l3.11-.27c.86-.07,1.62.55,1.69,1.39.08.84-.56,1.59-1.42,1.66l-3.11.27c-.86.07-1.62-.55-1.69-1.39H0Z"/>
  <path class="cls-4" d="M3.05,6.66c.49-.69,1.47-.86,2.17-.38l2.56,1.76c.71.49.88,1.44.38,2.13-.49.69-1.47.86-2.17.38l-2.56-1.76c-.71-.49-.88-1.44-.38-2.13Z"/>
</svg>