<?xml version="1.0" encoding="UTF-8"?>
<svg id="Layer_1" data-name="Layer 1" xmlns="http://www.w3.org/2000/svg" xmlns:xlink="http://www.w3.org/1999/xlink" viewBox="0 0 64 61.39">
  <defs>
    <style>
      .cls-1 {
        fill: #3554a5;
      }

      .cls-1, .cls-2 {
        fill-rule: evenodd;
      }

      .cls-2 {
        fill: url(#linear-gradient);
      }
    </style>
    <linearGradient id="linear-gradient" x1="31.8" y1=".19" x2="32.07" y2="40.92" gradientUnits="userSpaceOnUse">
      <stop offset="0" stop-color="#fff"/>
      <stop offset="1" stop-color="#757679"/>
    </linearGradient>
  </defs>
  <path class="cls-2" d="M58.24,19.76c1.77.96,3.21,2.34,4.21,4.05,1,1.71,1.55,3.74,1.55,5.99s-.55,4.29-1.55,5.99c-1,1.71-2.44,3.09-4.22,4.05-1.78.96-3.89,1.49-6.24,1.49H12c-2.34,0-4.46-.53-6.24-1.49-1.78-.96-3.22-2.34-4.22-4.05-1-1.71-1.55-3.74-1.55-5.99s.55-4.29,1.55-5.99c1-1.71,2.44-3.09,4.22-4.05.56-.3,1.15-.56,1.78-.78-.08-.55-.13-1.11-.13-1.67,0-6.37,5.37-11.53,12-11.53,3.44,0,6.55,1.39,8.74,3.63C30.58,3.87,36.27,0,42.9,0c8.84,0,16,6.89,16,15.38,0,1.52-.23,2.99-.66,4.38h0Z"/>
  <path class="cls-1" d="M19.13,46.93h0c.76.44,1.02,1.41.59,2.17,0,0,0,0,0,0l-6.68,11.49c-.15.26-.36.46-.59.59-.24.14-.51.21-.78.21-.27,0-.55-.07-.81-.22h0c-.76-.44-1.02-1.41-.59-2.17,0,0,0,0,0,0l6.68-11.49c.15-.26.36-.46.59-.59.24-.14.51-.21.78-.21s.55.07.81.22ZM35.13,46.93h0c.76.44,1.02,1.41.59,2.17,0,0,0,0,0,0l-6.68,11.49c-.15.26-.36.46-.59.59-.24.14-.51.21-.78.21-.27,0-.55-.07-.81-.22h0c-.76-.44-1.02-1.41-.59-2.17,0,0,0,0,0,0l6.68-11.49c.15-.26.36-.46.59-.59.24-.14.51-.21.78-.21s.55.07.81.22ZM51.13,46.93h0c.76.44,1.02,1.41.59,2.17,0,0,0,0,0,0l-6.68,11.49c-.15.26-.36.46-.59.59-.24.14-.51.21-.78.21-.27,0-.55-.07-.81-.22h0c-.76-.44-1.02-1.41-.59-2.17,0,0,0,0,0,0l6.68-11.49c.15-.26.36-.46.59-.59.24-.14.51-.21.78-.21s.55.07.81.22Z"/>
</svg>