<svg id="Component_61_1" data-name="Component 61 – 1" xmlns="http://www.w3.org/2000/svg" xmlns:xlink="http://www.w3.org/1999/xlink" width="204.446" height="138.557" viewBox="0 0 204.446 138.557">
  <defs>
    <linearGradient id="linear-gradient" x1="0.5" x2="0.5" y2="0.984" gradientUnits="objectBoundingBox">
      <stop offset="0" stop-color="#d8d8d8"/>
      <stop offset="1" stop-color="#444"/>
    </linearGradient>
  </defs>
  <path id="shape" d="M125.488,44.748a23.678,23.678,0,0,1,9.067,9.169,27.792,27.792,0,0,1,3.337,13.576,27.793,27.793,0,0,1-3.337,13.576,23.678,23.678,0,0,1-9.083,9.178,27.052,27.052,0,0,1-13.435,3.372H25.855A27.052,27.052,0,0,1,12.42,90.247a23.679,23.679,0,0,1-9.083-9.178A27.793,27.793,0,0,1,0,67.493,27.793,27.793,0,0,1,3.337,53.917a23.679,23.679,0,0,1,9.083-9.178,24.867,24.867,0,0,1,3.833-1.757,26.615,26.615,0,0,1-.27-3.792A25.992,25.992,0,0,1,41.838,13.063a25.658,25.658,0,0,1,18.826,8.219A34.425,34.425,0,0,1,126.9,34.835a35.183,35.183,0,0,1-1.416,9.913Z" fill="url(#linear-gradient)"/>
  <text id="_" data-name="*******" transform="translate(69.446 85.557)" fill="#fff" font-size="40" font-family="SegoeUI-Bold, Segoe UI" font-weight="700"><tspan x="-63.711" y="43">*******</tspan></text>
</svg>
