<svg id="Component_58_1" data-name="Component 58 – 1" xmlns="http://www.w3.org/2000/svg" xmlns:xlink="http://www.w3.org/1999/xlink" width="137.446" height="134.007" viewBox="0 0 137.446 134.007">
  <defs>
    <linearGradient id="linear-gradient" x1="0.5" x2="0.5" y2="0.984" gradientUnits="objectBoundingBox">
      <stop offset="0" stop-color="#98a2b7"/>
      <stop offset="1" stop-color="#0d0d0d"/>
    </linearGradient>
  </defs>
  <path id="shape" d="M22.018,25.5h9.216L4.769,59.5,9.216,34H0L26.466,0,22.018,25.5Z" transform="translate(54.985 74.507)" fill="#ffb100"/>
  <path id="shape-2" data-name="shape" d="M78.322,94.069l4.146-25.326-18.5,25.326H25.771A26.794,26.794,0,0,1,12.38,90.681a23.7,23.7,0,0,1-9.053-9.222A28.106,28.106,0,0,1,0,67.817,28.106,28.106,0,0,1,3.326,54.176a23.7,23.7,0,0,1,9.053-9.222A24.691,24.691,0,0,1,16.2,43.188a26.955,26.955,0,0,1-.27-3.811A26.015,26.015,0,0,1,41.7,13.126a25.482,25.482,0,0,1,18.765,8.259A34.369,34.369,0,0,1,92.132,0c18.977,0,34.361,15.671,34.361,35a35.617,35.617,0,0,1-1.411,9.96,23.7,23.7,0,0,1,9.038,9.213,28.106,28.106,0,0,1,3.326,13.641,28.106,28.106,0,0,1-3.326,13.641,23.7,23.7,0,0,1-9.053,9.222,26.794,26.794,0,0,1-13.391,3.388Z" fill="url(#linear-gradient)"/>
  <g id="Ellipse_24" data-name="Ellipse 24" transform="matrix(0.891, 0.454, -0.454, 0.891, 17.008, 107.74)" fill="#00e6ff" stroke="#00e6ff" stroke-width="1">
    <ellipse cx="8.277" cy="8" rx="8.277" ry="8" stroke="none"/>
    <ellipse cx="8.277" cy="8" rx="7.777" ry="7.5" fill="none"/>
  </g>
  <g id="Polygon_18" data-name="Polygon 18" transform="matrix(0.891, 0.454, -0.454, 0.891, 25.374, 94.069)" fill="#00e6ff">
    <path d="M 13.27489757537842 19.62578582763672 L 7.193864345550537 18.22834396362305 L 7.081884384155273 18.20261383056641 L 6.96990442276001 18.22834396362305 L 0.8888710141181946 19.62578582763672 L 4.843414306640625 11.19765281677246 L 4.864564418792725 11.15258312225342 L 4.876404285430908 11.10423278808594 L 7.081884384155273 2.101375102996826 L 9.28736400604248 11.10423278808594 L 9.29920482635498 11.15258312225342 L 9.320354461669922 11.19765281677246 L 13.27489757537842 19.62578582763672 Z" stroke="none"/>
    <path d="M 7.081884384155273 4.202747344970703 L 5.338354110717773 11.31990337371826 L 1.77773380279541 18.90848541259766 L 7.081884384155273 17.68957328796387 L 12.38603496551514 18.90848541259766 L 8.825414657592773 11.31990337371826 L 7.081884384155273 4.202747344970703 M 7.081884384155273 3.814697265625e-06 L 9.773004531860352 10.98526287078857 L 14.16376399993896 20.34308242797852 L 7.081884384155273 18.71564292907715 L 4.76837158203125e-06 20.34308242797852 L 4.390764236450195 10.98526287078857 L 7.081884384155273 3.814697265625e-06 Z" stroke="none" fill="#00e6ff"/>
  </g>
  <g id="Ellipse_25" data-name="Ellipse 25" transform="matrix(0.891, 0.454, -0.454, 0.891, 38.864, 107.74)" fill="#00e6ff" stroke="#00e6ff" stroke-width="1">
    <ellipse cx="8.277" cy="8" rx="8.277" ry="8" stroke="none"/>
    <ellipse cx="8.277" cy="8" rx="7.777" ry="7.5" fill="none"/>
  </g>
  <g id="Polygon_19" data-name="Polygon 19" transform="matrix(0.891, 0.454, -0.454, 0.891, 47.229, 94.069)" fill="#00e6ff">
    <path d="M 13.27489757537842 19.62578582763672 L 7.193864345550537 18.22834396362305 L 7.081884384155273 18.20261383056641 L 6.96990442276001 18.22834396362305 L 0.8888710141181946 19.62578582763672 L 4.843414306640625 11.19765281677246 L 4.864564418792725 11.15258312225342 L 4.876404285430908 11.10423278808594 L 7.081884384155273 2.101375102996826 L 9.28736400604248 11.10423278808594 L 9.29920482635498 11.15258312225342 L 9.320354461669922 11.19765281677246 L 13.27489757537842 19.62578582763672 Z" stroke="none"/>
    <path d="M 7.081884384155273 4.202747344970703 L 5.338354110717773 11.31990337371826 L 1.77773380279541 18.90848541259766 L 7.081884384155273 17.68957328796387 L 12.38603496551514 18.90848541259766 L 8.825414657592773 11.31990337371826 L 7.081884384155273 4.202747344970703 M 7.081884384155273 3.814697265625e-06 L 9.773004531860352 10.98526287078857 L 14.16376399993896 20.34308242797852 L 7.081884384155273 18.71564292907715 L 4.76837158203125e-06 20.34308242797852 L 4.390764236450195 10.98526287078857 L 7.081884384155273 3.814697265625e-06 Z" stroke="none" fill="#00e6ff"/>
  </g>
  <g id="Ellipse_26" data-name="Ellipse 26" transform="matrix(0.891, 0.454, -0.454, 0.891, 86.091, 107.74)" fill="#00e6ff" stroke="#00e6ff" stroke-width="1">
    <ellipse cx="8.277" cy="8" rx="8.277" ry="8" stroke="none"/>
    <ellipse cx="8.277" cy="8" rx="7.777" ry="7.5" fill="none"/>
  </g>
  <g id="Polygon_20" data-name="Polygon 20" transform="matrix(0.891, 0.454, -0.454, 0.891, 94.457, 94.069)" fill="#00e6ff">
    <path d="M 13.27489757537842 19.62578582763672 L 7.193864345550537 18.22834396362305 L 7.081884384155273 18.20261383056641 L 6.96990442276001 18.22834396362305 L 0.8888710141181946 19.62578582763672 L 4.843414306640625 11.19765281677246 L 4.864564418792725 11.15258312225342 L 4.876404285430908 11.10423278808594 L 7.081884384155273 2.101375102996826 L 9.28736400604248 11.10423278808594 L 9.29920482635498 11.15258312225342 L 9.320354461669922 11.19765281677246 L 13.27489757537842 19.62578582763672 Z" stroke="none"/>
    <path d="M 7.081884384155273 4.202747344970703 L 5.338354110717773 11.31990337371826 L 1.77773380279541 18.90848541259766 L 7.081884384155273 17.68957328796387 L 12.38603496551514 18.90848541259766 L 8.825414657592773 11.31990337371826 L 7.081884384155273 4.202747344970703 M 7.081884384155273 3.814697265625e-06 L 9.773004531860352 10.98526287078857 L 14.16376399993896 20.34308242797852 L 7.081884384155273 18.71564292907715 L 4.76837158203125e-06 20.34308242797852 L 4.390764236450195 10.98526287078857 L 7.081884384155273 3.814697265625e-06 Z" stroke="none" fill="#00e6ff"/>
  </g>
  <g id="Ellipse_27" data-name="Ellipse 27" transform="matrix(0.891, 0.454, -0.454, 0.891, 108.105, 107.74)" fill="#00e6ff" stroke="#00e6ff" stroke-width="1">
    <ellipse cx="8.277" cy="8" rx="8.277" ry="8" stroke="none"/>
    <ellipse cx="8.277" cy="8" rx="7.777" ry="7.5" fill="none"/>
  </g>
  <g id="Polygon_21" data-name="Polygon 21" transform="matrix(0.891, 0.454, -0.454, 0.891, 116.471, 94.069)" fill="#00e6ff">
    <path d="M 13.27489757537842 19.62578582763672 L 7.193864345550537 18.22834396362305 L 7.081884384155273 18.20261383056641 L 6.96990442276001 18.22834396362305 L 0.8888710141181946 19.62578582763672 L 4.843414306640625 11.19765281677246 L 4.864564418792725 11.15258312225342 L 4.876404285430908 11.10423278808594 L 7.081884384155273 2.101375102996826 L 9.28736400604248 11.10423278808594 L 9.29920482635498 11.15258312225342 L 9.320354461669922 11.19765281677246 L 13.27489757537842 19.62578582763672 Z" stroke="none"/>
    <path d="M 7.081884384155273 4.202747344970703 L 5.338354110717773 11.31990337371826 L 1.77773380279541 18.90848541259766 L 7.081884384155273 17.68957328796387 L 12.38603496551514 18.90848541259766 L 8.825414657592773 11.31990337371826 L 7.081884384155273 4.202747344970703 M 7.081884384155273 3.814697265625e-06 L 9.773004531860352 10.98526287078857 L 14.16376399993896 20.34308242797852 L 7.081884384155273 18.71564292907715 L 4.76837158203125e-06 20.34308242797852 L 4.390764236450195 10.98526287078857 L 7.081884384155273 3.814697265625e-06 Z" stroke="none" fill="#00e6ff"/>
  </g>
</svg>
