<svg xmlns="http://www.w3.org/2000/svg" width="64" height="64" viewBox="0 0 64 64">
  <defs>
    <linearGradient id="icon8-a" x1="50%" x2="50%" y1="0%" y2="98.382%">
      <stop offset="0%" stop-color="#689CFF"/>
      <stop offset="100%" stop-color="#37A7F4"/>
    </linearGradient>
  </defs>
  <g fill="none" fill-rule="evenodd" transform="translate(0 8)">
    <path fill="#707885" d="M4.8,19.4186552 C6.16643667,19.9169097 7.6446743,20.189154 9.18764492,20.189154 C16.1512092,20.189154 21.7962935,14.644089 21.7962935,7.8039046 C21.7962935,4.84581455 20.740552,2.12993722 18.9789964,0 C23.7794105,1.75041282 27.2,6.29019857 27.2,11.6147506 C27.2,18.454935 21.5549158,24 14.5913514,24 C10.6392338,24 7.11180423,22.2139106 4.8,19.4186552 L4.8,19.4186552 Z"/>
    <path fill="url(#icon8-a)" d="M7.746695,24.6016342 C10.0838202,26.2391044 12.9296955,27.2 16,27.2 C23.9529004,27.2 30.4,20.7529004 30.4,12.8 C30.4,12.3575926 30.3800493,11.919845 30.3409985,11.4876077 C33.2713134,7.90134462 37.8078582,5.6 42.9,5.6 C51.736556,5.6 58.9,12.5302156 58.9,21.0790698 C58.9,22.609341 58.6704682,24.0877477 58.2428951,25.4838245 C60.0173066,26.447893 61.4558246,27.8406122 62.4511184,29.5581461 C63.4477814,31.2780427 64,33.3236483 64,35.5906977 C64,37.857747 63.4477814,39.9033526 62.4511184,41.6232493 C61.4544554,43.3431459 60.013348,44.7373336 58.2355702,45.7015471 C56.4577924,46.6657606 54.3433443,47.2 52,47.2 L12,47.2 C9.6566557,47.2 7.5422076,46.6657606 5.76442982,45.7015471 C3.98665204,44.7373336 2.54554459,43.3431459 1.54888158,41.6232493 C0.552218566,39.9033526 0,37.857747 0,35.5906977 C0,33.3236483 0.552218566,31.2780427 1.54888158,29.5581461 C2.54554459,27.8382494 3.98665204,26.4440617 5.76442982,25.4798482 C6.32514868,25.1757311 6.91935948,24.9143877 7.54368064,24.6990896 C7.54045011,24.6775962 7.61518888,24.6453628 7.746695,24.6016342 L7.746695,24.6016342 Z"/>
  </g>
</svg>
