<svg xmlns="http://www.w3.org/2000/svg" width="64" height="64" viewBox="0 0 64 64">
  <defs>
    <linearGradient id="icon1-a" x1="50%" x2="50%" y1="0%" y2="98.382%">
      <stop offset="0%" stop-color="#689CFF"/>
      <stop offset="100%" stop-color="#37A7F4"/>
    </linearGradient>
  </defs>
  <g fill="none" fill-rule="evenodd">
    <polygon fill="#FFB100" points="33.023 49.371 36.8 49.371 25.954 64 27.777 53.029 24 53.029 34.846 38.4 33.023 49.371"/>
    <path fill="url(#icon1-a)" d="M36.4695554,41.6 L38.4,30.4 L29.7846154,41.6 L12,41.6 C9.6566557,41.6 7.5422076,41.0657606 5.76442982,40.1015471 C3.98665204,39.1373336 2.54554459,37.7431459 1.54888158,36.0232493 C0.552218566,34.3033526 0,32.257747 0,29.9906977 C0,27.7236483 0.552218566,25.6780427 1.54888158,23.9581461 C2.54554459,22.2382494 3.98665204,20.8440617 5.76442982,19.8798482 C6.32514868,19.5757311 6.91935948,19.3143877 7.54368064,19.0990896 C7.46099103,18.5489396 7.41818182,17.9862831 7.41818182,17.4139535 C7.41818182,11.0023129 12.7907648,5.80465116 19.4181818,5.80465116 C22.862369,5.80465116 25.9676564,7.20841127 28.1560983,9.45680242 C30.584323,3.89959594 36.2714358,0 42.9,0 C51.736556,0 58.9,6.93021559 58.9,15.4790698 C58.9,17.009341 58.6704682,18.4877477 58.2428951,19.8838245 C60.0173066,20.847893 61.4558246,22.2406122 62.4511184,23.9581461 C63.4477814,25.6780427 64,27.7236483 64,29.9906977 C64,32.257747 63.4477814,34.3033526 62.4511184,36.0232493 C61.4544554,37.7431459 60.013348,39.1373336 58.2355702,40.1015471 C56.4577924,41.0657606 54.3433443,41.6 52,41.6 L36.4695554,41.6 Z"/>
    <path fill="#B6B3BB" d="M17.3856406 44C18.1509088 44.4418278 18.4131091 45.4203724 17.9712813 46.1856406L11.5712813 57.2707658C11.1294535 58.036034 10.1509088 58.2982343 9.38564065 57.8564065 8.62037245 57.4145787 8.3581722 56.436034 8.8 55.6707658L15.2 44.5856406C15.6418278 43.8203724 16.6203724 43.5581722 17.3856406 44L17.3856406 44zM50.9856406 44C51.7509088 44.4418278 52.0131091 45.4203724 51.5712813 46.1856406L48.3712813 51.7282032C47.9294535 52.4934714 46.9509088 52.7556717 46.1856406 52.3138439 45.4203724 51.8720161 45.1581722 50.8934714 45.6 50.1282032L48.8 44.5856406C49.2418278 43.8203724 50.2203724 43.5581722 50.9856406 44z"/>
  </g>
</svg>
